<svg width="23" height="24" viewBox="0 0 23 24" fill="none" xmlns="http://www.w3.org/2000/svg">
<path d="M6.89356 19C6.89356 18.4531 6.44043 18 5.89355 18C5.34668 18 4.89355 18.4531 4.89355 19C4.89355 19.5469 5.34668 20 5.89355 20C6.44043 20 6.89356 19.5469 6.89356 19ZM22.8936 19.9531C22.8936 16.8437 22.2686 11.9375 18.5498 11.125C19.0029 12.1875 18.8936 13.4062 18.8936 14.5469C20.1279 15.25 20.8936 16.5781 20.8936 18V19.3906C21.2061 19.6719 21.3936 20.0781 21.3936 20.5C21.3936 21.3281 20.7217 22 19.8936 22C19.0654 22 18.3936 21.3281 18.3936 20.5C18.3936 20.0781 18.5811 19.6719 18.8936 19.3906V18C18.8936 16.9062 17.9873 16 16.8936 16C15.7998 16 14.8936 16.9062 14.8936 18V19.3906C15.2061 19.6719 15.3936 20.0781 15.3936 20.5C15.3936 21.3281 14.7217 22 13.8936 22C13.0654 22 12.3936 21.3281 12.3936 20.5C12.3936 20.0781 12.5811 19.6719 12.8936 19.3906V18C12.8936 15.7969 14.6904 14 16.8936 14V13C16.8936 12.4844 16.8467 11.9687 16.5029 11.5469C15.1904 12.5781 13.5654 13.1719 11.8936 13.1719C10.2217 13.1719 8.59668 12.5781 7.28418 11.5469C6.94043 11.9687 6.89356 12.4844 6.89356 13V16.1719C8.08105 16.5937 8.89356 17.7344 8.89356 19C8.89356 20.6562 7.54981 22 5.89355 22C4.2373 22 2.89355 20.6562 2.89355 19C2.89355 17.7344 3.69043 16.5937 4.89355 16.1719V13C4.89355 12.3594 4.9873 11.7187 5.2373 11.125C1.51855 11.9375 0.893555 16.8437 0.893555 19.9531C0.893555 22.5 2.56543 24 5.06543 24H18.7217C21.2217 24 22.8936 22.5 22.8936 19.9531ZM17.8936 6C17.8936 2.6875 15.2061 -1.19209e-06 11.8936 -1.19209e-06C8.58106 -1.19209e-06 5.89355 2.6875 5.89355 6C5.89355 9.3125 8.58106 12 11.8936 12C15.2061 12 17.8936 9.3125 17.8936 6Z" fill="#CBCED7"/>
</svg>
