<svg width="25" height="19" viewBox="0 0 25 19" fill="none" xmlns="http://www.w3.org/2000/svg">
<path d="M24.1904 9.79688C24.6123 9.375 24.6123 8.67188 24.1904 8.20312L16.3154 0.328125C15.5654 -0.375 14.3936 0.140625 14.3936 1.125V5.625H8.01855C7.3623 5.625 6.89355 6.14062 6.89355 6.75V11.25C6.89355 11.9062 7.3623 12.375 8.01855 12.375H14.3936V16.875C14.3936 17.9062 15.6123 18.375 16.3154 17.6719L24.1904 9.79688ZM9.89355 17.4375V15.5625C9.89355 15.2812 9.6123 15 9.33105 15H5.39355C4.5498 15 3.89355 14.3438 3.89355 13.5V4.5C3.89355 3.70312 4.5498 3 5.39355 3H9.33105C9.6123 3 9.89355 2.76562 9.89355 2.4375V0.5625C9.89355 0.28125 9.6123 0 9.33105 0H5.39355C2.90918 0 0.893555 2.01562 0.893555 4.5V13.5C0.893555 15.9844 2.90918 18 5.39355 18H9.33105C9.6123 18 9.89355 17.7656 9.89355 17.4375Z" fill="#CBCED7"/>
</svg>
