<svg width="36" height="36" viewBox="0 0 36 36" fill="none" xmlns="http://www.w3.org/2000/svg">
<path d="M28.8977 2.74002H24.6187L25.673 1.68578C26.0373 1.32145 26.0373 0.732311 25.673 0.367977C25.3086 0.00364311 24.7195 0.00364311 24.3552 0.367977L21.7196 3.01134C21.5413 3.18963 21.4482 3.42218 21.4482 3.67024C21.4482 3.91829 21.549 4.15085 21.7196 4.32914L24.3629 6.9725C24.5412 7.15079 24.7815 7.24381 25.0218 7.24381C25.2621 7.24381 25.4947 7.15079 25.6807 6.9725C26.0451 6.60816 26.0451 6.01903 25.6807 5.65469L24.6265 4.60045H28.9055C31.6883 4.60045 33.9441 6.86397 33.9441 9.63911V12.7631C33.9441 13.2747 34.3627 13.6933 34.8743 13.6933C35.386 13.6933 35.8045 13.2747 35.8045 12.7631V9.63911C35.8045 5.83298 32.7038 2.74002 28.8977 2.74002Z" fill="white"/>
<path d="M34.8047 17.9954H19.5259C19.0143 17.9954 18.5957 18.414 18.5957 18.9256V34.2043C18.5957 34.716 19.0143 35.1346 19.5259 35.1346H34.8047C35.3163 35.1346 35.7349 34.716 35.7349 34.2043V18.9256C35.7349 18.4062 35.3163 17.9954 34.8047 17.9954ZM33.8745 33.2741H20.4561V19.8558H33.8745V33.2741Z" fill="white"/>
<path d="M12.2546 28.2589C11.8903 27.8946 11.3012 27.8946 10.9368 28.2589C10.5725 28.6232 10.5725 29.2124 10.9368 29.5767L11.9911 30.6309H7.71208C4.92919 30.6309 2.67342 28.3674 2.67342 25.5923V22.4683C2.67342 21.9567 2.25482 21.5381 1.7432 21.5381C1.23158 21.5381 0.812988 21.9567 0.812988 22.4683V25.5923C0.812988 29.3984 3.90595 32.4914 7.71208 32.4914H11.9911L10.9368 33.5456C10.5725 33.9099 10.5725 34.4991 10.9368 34.8634C11.1151 35.0417 11.3554 35.1347 11.5957 35.1347C11.836 35.1347 12.0686 35.0417 12.2546 34.8634L14.898 32.22C15.2623 31.8557 15.2623 31.2666 14.898 30.9022L12.2546 28.2589Z" fill="white"/>
<path d="M1.81254 1.95711C2.0606 1.95711 2.3009 1.85633 2.47144 1.6858C2.64198 1.51526 2.74275 1.27495 2.74275 1.02689C2.74275 0.786588 2.64198 0.538531 2.47144 0.367992C2.3009 0.197453 2.0606 0.0966797 1.81254 0.0966797C1.56448 0.0966797 1.32418 0.197453 1.15364 0.367992C0.983097 0.538531 0.882324 0.778837 0.882324 1.02689C0.882324 1.27495 0.983097 1.51526 1.15364 1.6858C1.33193 1.85633 1.56448 1.95711 1.81254 1.95711Z" fill="white"/>
<path d="M9.45609 1.95711C9.96771 1.95711 10.3863 1.53851 10.3863 1.02689C10.3863 0.515276 9.96771 0.0966797 9.45609 0.0966797C8.94447 0.0966797 8.52588 0.515276 8.52588 1.02689C8.52588 1.53851 8.93672 1.95711 9.45609 1.95711Z" fill="white"/>
<path d="M5.63432 1.95711C6.14593 1.95711 6.56453 1.53851 6.56453 1.02689C6.56453 0.515276 6.14593 0.0966797 5.63432 0.0966797C5.1227 0.0966797 4.7041 0.515276 4.7041 1.02689C4.7041 1.53851 5.1227 1.95711 5.63432 1.95711Z" fill="white"/>
<path d="M13.2701 1.95711C13.7817 1.95711 14.2003 1.53851 14.2003 1.02689C14.2003 0.515276 13.7817 0.0966797 13.2701 0.0966797C12.7584 0.0966797 12.3398 0.515276 12.3398 1.02689C12.3398 1.53851 12.7584 1.95711 13.2701 1.95711Z" fill="white"/>
<path d="M17.0918 0.0966797C16.8515 0.0966797 16.6035 0.197453 16.4329 0.367992C16.2624 0.538531 16.1616 0.778837 16.1616 1.02689C16.1616 1.27495 16.2624 1.51526 16.4329 1.6858C16.6035 1.85633 16.8438 1.95711 17.0918 1.95711C17.3399 1.95711 17.5802 1.85633 17.7507 1.6858C17.9213 1.51526 18.022 1.27495 18.022 1.02689C18.022 0.778837 17.9213 0.538531 17.7507 0.367992C17.5802 0.197453 17.3399 0.0966797 17.0918 0.0966797Z" fill="white"/>
<path d="M17.0918 11.5615C16.5802 11.5615 16.1616 11.9801 16.1616 12.4917C16.1616 13.0034 16.5802 13.422 17.0918 13.422C17.6035 13.422 18.022 13.0034 18.022 12.4917C18.022 11.9724 17.6112 11.5615 17.0918 11.5615Z" fill="white"/>
<path d="M17.0918 7.73999C16.5802 7.73999 16.1616 8.15859 16.1616 8.6702C16.1616 9.18182 16.5802 9.60042 17.0918 9.60042C17.6035 9.60042 18.022 9.18182 18.022 8.6702C18.022 8.15083 17.6112 7.73999 17.0918 7.73999Z" fill="white"/>
<path d="M17.0918 3.91821C16.5802 3.91821 16.1616 4.33681 16.1616 4.84843C16.1616 5.36004 16.5802 5.77864 17.0918 5.77864C17.6035 5.77864 18.022 5.36004 18.022 4.84843C18.022 4.33681 17.6112 3.91821 17.0918 3.91821Z" fill="white"/>
<path d="M17.0918 15.3752C16.8438 15.3752 16.6035 15.476 16.4329 15.6466C16.2624 15.8171 16.1616 16.0574 16.1616 16.3055C16.1616 16.5458 16.2624 16.7938 16.4329 16.9644C16.6035 17.1349 16.8438 17.2357 17.0918 17.2357C17.3399 17.2357 17.5802 17.1349 17.7507 16.9644C17.9213 16.7938 18.022 16.5535 18.022 16.3055C18.022 16.0574 17.9213 15.8171 17.7507 15.6466C17.5803 15.476 17.3399 15.3752 17.0918 15.3752Z" fill="white"/>
<path d="M13.2701 17.2357C13.7817 17.2357 14.2003 16.8171 14.2003 16.3055C14.2003 15.7938 13.7817 15.3752 13.2701 15.3752C12.7584 15.3752 12.3398 15.7938 12.3398 16.3055C12.3398 16.8248 12.7584 17.2357 13.2701 17.2357Z" fill="white"/>
<path d="M9.45609 17.2357C9.96771 17.2357 10.3863 16.8171 10.3863 16.3055C10.3863 15.7938 9.96771 15.3752 9.45609 15.3752C8.94447 15.3752 8.52588 15.7938 8.52588 16.3055C8.52588 16.8248 8.93672 17.2357 9.45609 17.2357Z" fill="white"/>
<path d="M5.63432 17.2357C6.14593 17.2357 6.56453 16.8171 6.56453 16.3055C6.56453 15.7938 6.14593 15.3752 5.63432 15.3752C5.1227 15.3752 4.7041 15.7938 4.7041 16.3055C4.7041 16.8248 5.1227 17.2357 5.63432 17.2357Z" fill="white"/>
<path d="M1.81303 17.2357C2.06108 17.2357 2.30139 17.1349 2.47193 16.9644C2.64247 16.7938 2.74324 16.5535 2.74324 16.3055C2.74324 16.0574 2.64247 15.8171 2.47193 15.6466C2.30139 15.476 2.06108 15.3752 1.81303 15.3752C1.56497 15.3752 1.32466 15.476 1.15412 15.6466C0.983586 15.8171 0.882812 16.0574 0.882812 16.3055C0.882812 16.5458 0.983586 16.7938 1.15412 16.9644C1.33242 17.1349 1.56497 17.2357 1.81303 17.2357Z" fill="white"/>
<path d="M1.81303 13.422C2.32464 13.422 2.74324 13.0034 2.74324 12.4917C2.74324 11.9801 2.32464 11.5615 1.81303 11.5615C1.30141 11.5615 0.882812 11.9801 0.882812 12.4917C0.882812 13.0034 1.30141 13.422 1.81303 13.422Z" fill="white"/>
<path d="M1.81303 9.60042C2.32464 9.60042 2.74324 9.18182 2.74324 8.6702C2.74324 8.15859 2.32464 7.73999 1.81303 7.73999C1.30141 7.73999 0.882812 8.15859 0.882812 8.6702C0.882812 9.18182 1.30141 9.60042 1.81303 9.60042Z" fill="white"/>
<path d="M1.81303 5.77864C2.32464 5.77864 2.74324 5.36004 2.74324 4.84843C2.74324 4.33681 2.32464 3.91821 1.81303 3.91821C1.30141 3.91821 0.882812 4.33681 0.882812 4.84843C0.882812 5.36004 1.30141 5.77864 1.81303 5.77864Z" fill="white"/>
</svg>
