<svg width="10" height="17" viewBox="0 0 10 17" fill="none" xmlns="http://www.w3.org/2000/svg">
<path d="M0.0390625 8.35714C0.0390625 8.22321 0.106027 8.07254 0.206473 7.9721L8.00781 0.170758C8.10826 0.0703125 8.25893 0.00334668 8.39286 0.00334668C8.52679 0.00334668 8.67746 0.0703125 8.7779 0.170758L9.61496 1.00781C9.7154 1.10826 9.78237 1.25893 9.78237 1.39286C9.78237 1.52678 9.7154 1.67745 9.61496 1.7779L3.03571 8.35714L9.61496 14.9364C9.7154 15.0368 9.78237 15.1875 9.78237 15.3214C9.78237 15.4721 9.7154 15.606 9.61496 15.7065L8.7779 16.5435C8.67746 16.644 8.52679 16.7109 8.39286 16.7109C8.25893 16.7109 8.10826 16.644 8.00781 16.5435L0.206473 8.74219C0.106027 8.64174 0.0390625 8.49107 0.0390625 8.35714Z" fill="#2B89F8"/>
</svg>
