<svg width="260" height="55" viewBox="0 0 260 55" fill="none" xmlns="http://www.w3.org/2000/svg">
<path d="M12.6023 13.8055C5.6089 15.6942 -4.66268 23.3467 10.1984 38.8466L8.44997 40.3088C1.23801 33.4849 -8.02826 18.1557 12.6023 11.4294V13.8055Z" fill="white"/>
<path d="M41.4502 13.8055C48.9693 15.6942 60.0132 23.3467 44.0349 38.8466L45.9147 40.3088C53.6688 33.4849 63.6317 18.1557 41.4502 11.4294V13.8055Z" fill="white"/>
<path d="M15.2251 15.0851C16.9149 15.0851 18.2847 13.9395 18.2847 12.5262C18.2847 11.113 16.9149 9.96729 15.2251 9.96729C13.5353 9.96729 12.1655 11.113 12.1655 12.5262C12.1655 13.9395 13.5353 15.0851 15.2251 15.0851Z" fill="#D3D1D1"/>
<path d="M39.2642 15.0851C40.9539 15.0851 42.3239 13.9395 42.3239 12.5262C42.3239 11.113 40.9539 9.96729 39.2642 9.96729C37.5744 9.96729 36.2046 11.113 36.2046 12.5262C36.2046 13.9395 37.5744 15.0851 39.2642 15.0851Z" fill="#D3D1D1"/>
<path d="M7.3335 21.8386C7.3335 17.4771 8.04672 13.6581 9.47317 10.3818C10.8995 7.10547 13.0616 4.55611 15.959 2.73366C18.8788 0.911218 22.5674 0 27.0251 0C31.5272 0 35.2271 0.92146 38.1245 2.76438C41.0442 4.60729 43.2062 7.1669 44.6103 10.4432C46.0368 13.7195 46.75 17.518 46.75 21.8386C46.75 26.2002 46.0368 30.0292 44.6103 33.3261C43.1839 36.6024 41.0108 39.162 38.0911 41.0049C35.1936 42.8274 31.505 43.7386 27.0251 43.7386C22.5451 43.7386 18.8453 42.817 15.9256 40.9743C13.0058 39.1312 10.8438 36.5614 9.43971 33.2647C8.03557 29.9679 7.3335 26.1592 7.3335 21.8386ZM17.9649 21.8386C17.9649 23.4972 18.0653 25.1866 18.2658 26.9066C18.4888 28.6062 18.9122 30.1931 19.5362 31.6675C20.1603 33.1213 21.063 34.2988 22.2442 35.1998C23.4478 36.0802 25.0414 36.5205 27.0251 36.5205C29.031 36.5205 30.6245 36.0802 31.8058 35.1998C33.0094 34.2988 33.9232 33.1213 34.5474 31.6675C35.1714 30.1931 35.5837 28.6062 35.7842 26.9066C35.9849 25.1866 36.0852 23.4972 36.0852 21.8386C36.0852 20.18 35.9849 18.5008 35.7842 16.8012C35.5837 15.0813 35.1714 13.5045 34.5474 12.0711C33.9232 10.6172 33.0094 9.45008 31.8058 8.56957C30.6245 7.66857 29.031 7.2181 27.0251 7.2181C25.0414 7.2181 23.4478 7.66857 22.2442 8.56957C21.063 9.45008 20.1603 10.6172 19.5362 12.0711C18.9122 13.5045 18.4888 15.0813 18.2658 16.8012C18.0653 18.5008 17.9649 20.18 17.9649 21.8386Z" fill="#0B569A"/>
<path d="M8.59627 39.7144C9.65818 38.6474 11.5316 38.5163 12.6968 39.4272L20.6045 45.6095L28.8516 50.6828C30.1372 51.4737 30.3253 53.0398 29.2627 54.1073C28.2686 55.1061 26.5449 55.2941 25.3614 54.5328L16.8893 49.0823L8.80485 43.0044C7.69293 42.1683 7.60075 40.7146 8.59627 39.7144Z" fill="#4AD295"/>
<path d="M25.0476 54.1057C23.9856 53.0388 24.171 51.4742 25.4534 50.6809L34.1563 45.2976L41.6168 39.4343C42.7799 38.5202 44.6554 38.6493 45.7182 39.717C46.7124 40.7156 46.6209 42.1675 45.5112 43.0029L37.5664 48.983L28.9541 54.5307C27.7696 55.2936 26.0432 55.1059 25.0476 54.1057Z" fill="#4AD295"/>
<path d="M92.7395 28.3589C92.3335 28.6397 91.8168 28.8737 91.1892 29.0608C90.5617 29.248 89.8235 29.3417 88.9744 29.3417C87.941 29.3417 87.0365 29.1857 86.2614 28.8737C85.5231 28.5305 84.8404 27.9065 84.2128 27.0018L75.077 13.5711C74.671 12.9783 74.2465 12.3543 73.8035 11.6992C73.3975 11.044 72.9916 10.3889 72.5855 9.73376C72.2164 9.07854 71.8472 8.45462 71.4781 7.86186C71.1459 7.23791 70.8506 6.69194 70.5922 6.22396L70.3153 6.27076C70.5 7.89307 70.6291 9.64018 70.7029 11.512C70.7768 13.3527 70.8136 15.0998 70.8136 16.7532V28.9673C70.5554 29.0296 70.1678 29.0921 69.6509 29.1544C69.1711 29.248 68.6728 29.2949 68.156 29.2949C67.0486 29.2949 66.2366 29.1232 65.7197 28.78C65.24 28.4369 65 27.8597 65 27.0486V1.40389C65.3692 1.06072 65.8858 0.79553 66.5503 0.608342C67.2516 0.389952 67.9899 0.280762 68.765 0.280762C69.7986 0.280762 70.7029 0.436749 71.4781 0.748733C72.2532 1.06072 72.9546 1.66908 73.5821 2.57381L82.7732 16.0513C83.1793 16.6442 83.5854 17.268 83.9912 17.9232C84.3974 18.5783 84.785 19.2335 85.1541 19.8887C85.5602 20.5438 85.9292 21.1834 86.2614 21.8073C86.6306 22.4002 86.9443 22.9304 87.2027 23.3984L87.4241 23.3516C87.1289 20.9806 86.9627 18.6407 86.9258 16.3321C86.889 13.9923 86.8704 11.7148 86.8704 9.49972V0.608342C87.1659 0.545949 87.5535 0.483546 88.0331 0.421153C88.513 0.327559 89.0298 0.280762 89.5834 0.280762C90.6909 0.280762 91.4845 0.452365 91.9643 0.79553C92.4812 1.13871 92.7395 1.71588 92.7395 2.52701V28.3589Z" fill="white"/>
<path d="M114.889 4.72648V28.9205C114.631 29.0141 114.243 29.0921 113.726 29.1544C113.246 29.248 112.729 29.2949 112.176 29.2949C111.032 29.2949 110.219 29.1232 109.74 28.78C109.26 28.4057 109.02 27.7973 109.02 26.955V4.72648H99.2197C99.0351 4.50809 98.869 4.22731 98.7214 3.88414C98.6105 3.54096 98.5552 3.15098 98.5552 2.71421C98.5552 2.02785 98.7399 1.51309 99.1088 1.16992C99.515 0.795541 100.05 0.608352 100.715 0.608352H124.8C124.948 0.795541 125.077 1.06073 125.187 1.4039C125.335 1.74708 125.409 2.12145 125.409 2.52702C125.409 3.99332 124.689 4.72648 123.249 4.72648H114.889ZM134.502 29.0608C133.542 29.0608 132.767 28.8113 132.176 28.312C131.586 27.8129 131.291 27.1578 131.291 26.3466V3.27578C131.291 2.46463 131.586 1.82508 132.176 1.35711C132.767 0.857933 133.542 0.608352 134.502 0.608352H152.829C153.014 0.795541 153.161 1.06073 153.271 1.4039C153.419 1.74708 153.493 2.12145 153.493 2.52702C153.493 3.21338 153.291 3.74375 152.885 4.11812C152.515 4.49249 151.998 4.67968 151.334 4.67968H137.16V12.4479H151.168C151.352 12.6352 151.5 12.9004 151.611 13.2435C151.758 13.5866 151.832 13.961 151.832 14.3666C151.832 15.0841 151.629 15.6145 151.223 15.9578C150.853 16.3009 150.338 16.4725 149.673 16.4725H137.16V24.9896H153.105C153.253 25.1767 153.4 25.4419 153.549 25.785C153.697 26.1282 153.77 26.5025 153.77 26.9082C153.77 27.6257 153.567 28.1717 153.161 28.5461C152.792 28.8892 152.275 29.0608 151.611 29.0608H134.502ZM166.955 28.9205C166.66 29.0141 166.272 29.0921 165.792 29.1544C165.313 29.248 164.777 29.2949 164.186 29.2949C163.042 29.2949 162.212 29.1232 161.695 28.78C161.215 28.4057 160.976 27.7973 160.976 26.955V2.80781C160.976 2.27745 161.142 1.87187 161.473 1.59109C161.843 1.27911 162.341 1.04512 162.968 0.889135C164.113 0.545959 165.479 0.311964 167.066 0.187188C168.654 0.0623927 170.24 0 171.827 0C176.626 0 180.188 0.826742 182.513 2.48023C184.876 4.10253 186.057 6.39557 186.057 9.35937C186.057 11.4184 185.411 13.1811 184.119 14.6474C182.864 16.0825 181.056 17.1589 178.693 17.8764C179.579 18.8124 180.446 19.7483 181.295 20.6843C182.145 21.5889 182.938 22.4625 183.676 23.3048C184.452 24.1159 185.134 24.8647 185.725 25.5511C186.352 26.2062 186.85 26.7523 187.221 27.189C187.034 27.9065 186.629 28.4525 186.001 28.8269C185.375 29.2012 184.692 29.3885 183.953 29.3885C183.068 29.3885 182.365 29.2168 181.85 28.8737C181.333 28.4993 180.816 28 180.299 27.3762L173.156 18.6719H166.955V28.9205ZM172.27 14.6474C174.669 14.6474 176.57 14.2107 177.974 13.3371C179.376 12.4635 180.077 11.1377 180.077 9.35937C180.077 7.61229 179.357 6.30197 177.918 5.42843C176.515 4.55489 174.429 4.11812 171.661 4.11812C170.813 4.11812 169.963 4.14933 169.114 4.21171C168.302 4.2741 167.565 4.3521 166.9 4.4457V14.6474H172.27ZM191.117 26.5338C191.117 25.6291 191.432 24.8804 192.059 24.2876C192.723 23.6947 193.628 23.3984 194.772 23.3984C195.954 23.3984 196.858 23.6947 197.484 24.2876C198.114 24.8804 198.426 25.6291 198.426 26.5338C198.426 27.4385 198.114 28.1873 197.484 28.78C196.858 29.3729 195.954 29.6692 194.772 29.6692C193.628 29.6692 192.723 29.3729 192.059 28.78C191.432 28.1873 191.117 27.4385 191.117 26.5338ZM209.94 16.1917V28.9673C209.645 29.0297 209.259 29.1076 208.779 29.2012C208.299 29.2949 207.763 29.3417 207.173 29.3417C206.029 29.3417 205.199 29.17 204.681 28.8269C204.201 28.4525 203.961 27.8442 203.961 27.0018V0.608352C204.257 0.545959 204.645 0.483556 205.123 0.421164C205.641 0.327569 206.175 0.280772 206.729 0.280772C207.801 0.280772 208.594 0.452365 209.11 0.795541C209.664 1.13872 209.94 1.74708 209.94 2.62062V13.1967L224.171 0.374367C225.574 0.405578 226.588 0.670745 227.215 1.16992C227.844 1.63789 228.156 2.19944 228.156 2.8546C228.156 3.38497 227.991 3.88414 227.659 4.3521C227.326 4.78887 226.848 5.27245 226.219 5.80281L215.699 14.6006C218.764 17.2525 221.439 19.6078 223.728 21.667C226.053 23.6947 228.047 25.3484 229.707 26.6274C229.634 27.501 229.284 28.1873 228.655 28.6864C228.066 29.1544 227.346 29.3885 226.496 29.3885C225.609 29.3885 224.855 29.1857 224.225 28.78C223.637 28.3744 223.027 27.9065 222.399 27.3762L209.94 16.1917ZM258.172 0.561555C259.132 1.21671 259.612 2.05906 259.612 3.08859C259.612 3.61895 259.465 4.11812 259.17 4.58609C258.911 5.02286 258.56 5.49083 258.118 5.98999L241.342 24.8491H259.281C259.465 25.0675 259.631 25.3484 259.778 25.6915C259.926 26.0346 260 26.4247 260 26.8614C260 27.579 259.796 28.1249 259.392 28.4993C258.984 28.8424 258.45 29.0141 257.786 29.0141H235.361C234.954 28.7332 234.622 28.3901 234.365 27.9845C234.143 27.5478 234.032 27.0641 234.032 26.5338C234.032 26.0035 234.161 25.5043 234.42 25.0364C234.715 24.5371 235.084 24.038 235.527 23.5389L252.359 4.72648H235.14C234.954 4.50809 234.788 4.22731 234.642 3.88414C234.493 3.54096 234.42 3.15098 234.42 2.71421C234.42 1.27911 235.176 0.561555 236.69 0.561555H258.172Z" fill="white"/>
<path d="M74.846 46.5932C74.846 48.0576 74.4031 49.1917 73.5172 49.9956C72.6443 50.7994 71.4588 51.2013 69.9605 51.2013C69.0356 51.2013 68.2083 51.0251 67.4788 50.6728C66.7623 50.3094 66.1956 49.7864 65.7787 49.1037C65.3618 48.41 65.1533 47.5731 65.1533 46.5932C65.1533 45.1286 65.5897 44 66.4626 43.2073C67.3354 42.4145 68.5211 42.018 70.0192 42.018C70.9702 42.018 71.8041 42.1997 72.5205 42.5632C73.2501 42.9155 73.8169 43.433 74.2207 44.1156C74.6375 44.7874 74.846 45.6131 74.846 46.5932ZM66.9316 46.5932C66.9316 47.6392 67.1727 48.4705 67.6547 49.0871C68.1497 49.6927 68.9314 49.9956 69.9997 49.9956C71.055 49.9956 71.83 49.6927 72.3252 49.0871C72.8202 48.4705 73.0677 47.6392 73.0677 46.5932C73.0677 45.5471 72.8202 44.7267 72.3252 44.1322C71.83 43.5376 71.0484 43.2403 69.9802 43.2403C68.9118 43.2403 68.1366 43.5376 67.6547 44.1322C67.1727 44.7267 66.9316 45.5471 66.9316 46.5932ZM79.2913 42.1832V45.8664H84.9778V42.1832H86.6976V51.0361H84.9778V47.0887H79.2913V51.0361H77.5715V42.1832H79.2913ZM97.9871 51.0361H96.2479V43.3889H93.1603C92.991 45.2498 92.7564 46.7528 92.4568 47.898C92.1571 49.032 91.7598 49.8579 91.2647 50.3754C90.7697 50.893 90.1444 51.1517 89.3888 51.1517C89.2194 51.1517 89.0501 51.1407 88.8807 51.1187C88.7244 51.1077 88.5941 51.0801 88.4898 51.0361V49.946C88.568 49.968 88.6527 49.9845 88.7439 49.9956C88.8351 50.0066 88.9263 50.0121 89.0175 50.0121C89.721 50.0121 90.2812 49.379 90.698 48.1126C91.1279 46.8464 91.4537 44.87 91.6752 42.1832H97.9871V51.0361ZM105.279 42.0345C106.555 42.0345 107.5 42.2713 108.112 42.7448C108.724 43.2183 109.031 43.9725 109.031 45.0076V51.0361H107.78L107.448 49.7808H107.37C106.914 50.2653 106.432 50.6232 105.924 50.8544C105.428 51.0856 104.738 51.2013 103.852 51.2013C102.901 51.2013 102.113 50.9921 101.488 50.5737C100.862 50.1442 100.549 49.4781 100.549 48.5752C100.549 47.6942 100.96 47.017 101.781 46.5436C102.601 46.0591 103.865 45.7948 105.572 45.7508L107.35 45.7013V45.1728C107.35 44.435 107.161 43.9229 106.783 43.6367C106.406 43.3504 105.871 43.2073 105.181 43.2073C104.634 43.2073 104.113 43.2788 103.618 43.4219C103.123 43.5541 102.66 43.7083 102.23 43.8845L101.703 42.7943C102.158 42.5851 102.699 42.4089 103.324 42.2658C103.95 42.1117 104.601 42.0345 105.279 42.0345ZM105.787 46.7583C104.484 46.8024 103.579 46.9786 103.07 47.2869C102.575 47.5952 102.328 48.0301 102.328 48.5917C102.328 49.0871 102.504 49.4505 102.856 49.6817C103.22 49.913 103.683 50.0286 104.243 50.0286C105.129 50.0286 105.865 49.8249 106.451 49.4174C107.037 48.999 107.33 48.3604 107.33 47.5015V46.7087L105.787 46.7583ZM120.747 38.5166C120.656 39.3423 120.324 39.97 119.75 40.3995C119.19 40.8179 118.291 41.0271 117.054 41.0271C115.777 41.0271 114.871 40.8179 114.337 40.3995C113.816 39.981 113.523 39.3534 113.458 38.5166H115.06C115.125 39.1112 115.308 39.5131 115.607 39.7223C115.92 39.9205 116.415 40.0195 117.093 40.0195C117.692 40.0195 118.161 39.915 118.5 39.7058C118.851 39.4855 119.06 39.0891 119.125 38.5166H120.747ZM113.888 47.5841C113.888 47.7163 113.881 47.9145 113.868 48.1787C113.855 48.443 113.836 48.7073 113.81 48.9715C113.797 49.2358 113.784 49.445 113.771 49.5991L119.379 42.1832H121.49V51.0361H119.887V45.8169C119.887 45.6407 119.887 45.4095 119.887 45.1232C119.9 44.8369 119.913 44.5561 119.926 44.2808C119.939 43.9946 119.952 43.7798 119.965 43.6367L114.396 51.0361H112.266V42.1832H113.888V47.5841ZM126.543 42.1832V45.8664H132.229V42.1832H133.949V51.0361H132.229V47.0887H126.543V51.0361H124.823V42.1832H126.543ZM148.408 43.4054H144.988V51.0361H143.288V43.4054H139.907V42.1832H148.408V43.4054ZM154.326 42.018C155.225 42.018 155.993 42.1832 156.632 42.5136C157.283 42.8439 157.778 43.3118 158.117 43.9175C158.469 44.5121 158.645 45.2112 158.645 46.0151V46.8904H151.473C151.498 47.8924 151.798 48.6578 152.371 49.1863C152.958 49.7038 153.772 49.9626 154.814 49.9626C155.478 49.9626 156.065 49.913 156.573 49.8139C157.094 49.7038 157.628 49.5496 158.175 49.3515V50.6232C157.641 50.8213 157.113 50.9646 156.593 51.0526C156.072 51.1517 155.453 51.2013 154.736 51.2013C153.746 51.2013 152.866 51.0305 152.098 50.6893C151.342 50.3479 150.75 49.8414 150.319 49.1697C149.902 48.487 149.694 47.6557 149.694 46.6758C149.694 45.7068 149.883 44.8754 150.261 44.1817C150.652 43.488 151.192 42.954 151.883 42.5797C152.586 42.2053 153.401 42.018 154.326 42.018ZM154.306 43.2073C153.486 43.2073 152.834 43.433 152.352 43.8845C151.883 44.3248 151.603 44.9415 151.512 45.7343H156.846C156.834 44.9855 156.625 44.3799 156.221 43.9175C155.817 43.444 155.179 43.2073 154.306 43.2073ZM166.294 42.018C167.584 42.018 168.619 42.398 169.401 43.1577C170.196 43.9175 170.593 45.0627 170.593 46.5932C170.593 48.1016 170.196 49.2468 169.401 50.0286C168.619 50.8104 167.577 51.2013 166.275 51.2013C165.466 51.2013 164.796 51.0747 164.262 50.8213C163.74 50.5571 163.33 50.2544 163.03 49.913H162.913C162.939 50.1001 162.966 50.3369 162.991 50.6232C163.017 50.9095 163.03 51.1573 163.03 51.3665V55H161.311V42.1832H162.718L162.952 43.3889H163.03C163.344 43.0035 163.753 42.6787 164.262 42.4145C164.77 42.1502 165.447 42.018 166.294 42.018ZM165.981 43.2403C164.913 43.2403 164.157 43.4936 163.714 44C163.285 44.5066 163.057 45.2773 163.03 46.3124V46.5932C163.03 47.6832 163.239 48.5256 163.656 49.1202C164.086 49.7038 164.874 49.9956 166.02 49.9956C166.659 49.9956 167.18 49.8469 167.584 49.5496C168 49.2523 168.307 48.8504 168.502 48.3439C168.711 47.8264 168.815 47.2373 168.815 46.5767C168.815 45.5636 168.58 44.7543 168.111 44.1487C167.655 43.5431 166.945 43.2403 165.981 43.2403ZM177.301 42.0345C178.577 42.0345 179.522 42.2713 180.134 42.7448C180.746 43.2183 181.052 43.9725 181.052 45.0076V51.0361H179.803L179.47 49.7808H179.392C178.936 50.2653 178.454 50.6232 177.946 50.8544C177.451 51.0856 176.761 51.2013 175.874 51.2013C174.923 51.2013 174.135 50.9921 173.51 50.5737C172.884 50.1442 172.571 49.4781 172.571 48.5752C172.571 47.6942 172.982 47.017 173.803 46.5436C174.623 46.0591 175.888 45.7948 177.593 45.7508L179.372 45.7013V45.1728C179.372 44.435 179.183 43.9229 178.805 43.6367C178.427 43.3504 177.893 43.2073 177.203 43.2073C176.656 43.2073 176.135 43.2788 175.64 43.4219C175.145 43.5541 174.682 43.7083 174.252 43.8845L173.725 42.7943C174.181 42.5851 174.721 42.4089 175.346 42.2658C175.972 42.1117 176.623 42.0345 177.301 42.0345ZM177.809 46.7583C176.506 46.8024 175.601 46.9786 175.093 47.2869C174.598 47.5952 174.35 48.0301 174.35 48.5917C174.35 49.0871 174.526 49.4505 174.878 49.6817C175.243 49.913 175.705 50.0286 176.266 50.0286C177.151 50.0286 177.887 49.8249 178.474 49.4174C179.06 48.999 179.353 48.3604 179.353 47.5015V46.7087L177.809 46.7583ZM193.14 42.1832V51.0361H191.42V43.4219H186.007V51.0361H184.287V42.1832H193.14ZM198.104 47.5841C198.104 47.7163 198.098 47.9145 198.084 48.1787C198.072 48.443 198.053 48.7073 198.026 48.9715C198.012 49.2358 198 49.445 197.987 49.5991L203.595 42.1832H205.706V51.0361H204.104V45.8169C204.104 45.6407 204.104 45.4095 204.104 45.1232C204.116 44.8369 204.13 44.5561 204.143 44.2808C204.155 43.9946 204.169 43.7798 204.182 43.6367L198.612 51.0361H196.482V42.1832H198.104V47.5841ZM209.685 51.0361H207.691L210.681 47.3199C210.277 47.2318 209.886 47.0942 209.508 46.9069C209.131 46.7087 208.825 46.439 208.59 46.0976C208.356 45.7453 208.238 45.3103 208.238 44.7928C208.238 43.945 208.576 43.3009 209.254 42.8604C209.932 42.4089 210.831 42.1832 211.951 42.1832H216.64V51.0361H214.921V47.518H212.38L209.685 51.0361ZM209.899 44.8093C209.899 45.3159 210.121 45.6957 210.564 45.949C211.02 46.1913 211.651 46.3124 212.46 46.3124H214.921V43.3889H212.127C211.332 43.3889 210.759 43.521 210.408 43.7854C210.069 44.0496 209.899 44.3909 209.899 44.8093Z" fill="white"/>
</svg>
