<svg width="30" height="30" viewBox="0 0 30 30" fill="none" xmlns="http://www.w3.org/2000/svg">
<path d="M15 1.52124C14.2467 1.52124 13.6338 2.13413 13.6338 2.88747C13.6338 3.64081 14.2467 4.2537 15 4.2537C15.7534 4.2537 16.3663 3.64081 16.3663 2.88747C16.3663 2.13413 15.7534 1.52124 15 1.52124ZM15 3.37474C14.7313 3.37474 14.5127 3.15612 14.5127 2.88741C14.5127 2.6187 14.7313 2.40009 15 2.40009C15.2687 2.40009 15.4873 2.6187 15.4873 2.88741C15.4873 3.15612 15.2687 3.37474 15 3.37474Z" fill="black"/>
<path d="M10.9487 4.80029C10.706 4.80029 10.5093 4.99705 10.5093 5.23975V5.97299C10.5093 6.21568 10.706 6.41244 10.9487 6.41244C11.1914 6.41244 11.3882 6.21568 11.3882 5.97299V5.23975C11.3882 4.99705 11.1914 4.80029 10.9487 4.80029Z" fill="black"/>
<path d="M19.0513 4.80029C18.8086 4.80029 18.6118 4.99705 18.6118 5.23975V5.97299C18.6118 6.21568 18.8086 6.41244 19.0513 6.41244C19.294 6.41244 19.4907 6.21568 19.4907 5.97299V5.23975C19.4907 4.99705 19.294 4.80029 19.0513 4.80029Z" fill="black"/>
<path d="M16.289 5.59104C16.1064 5.43126 15.8287 5.44995 15.6689 5.63265C15.5066 5.81827 15.2628 5.9248 14.9999 5.9248C14.737 5.9248 14.4931 5.81833 14.3309 5.63265C14.1712 5.44995 13.8936 5.43126 13.7108 5.59104C13.528 5.75083 13.5094 6.02839 13.6691 6.21114C13.9984 6.58778 14.4834 6.80376 14.9999 6.80376C15.5164 6.80376 16.0015 6.58772 16.3307 6.21114C16.4904 6.02839 16.4718 5.75071 16.289 5.59104Z" fill="black"/>
<path d="M19.844 17.6646H10.156C9.91331 17.6646 9.71655 17.8613 9.71655 18.104C9.71655 18.3468 9.91331 18.5435 10.156 18.5435H19.844C20.0867 18.5435 20.2835 18.3468 20.2835 18.104C20.2835 17.8613 20.0867 17.6646 19.844 17.6646Z" fill="black"/>
<path d="M19.844 20.3171H10.156C9.91331 20.3171 9.71655 20.5139 9.71655 20.7566C9.71655 20.9993 9.91331 21.196 10.156 21.196H19.844C20.0867 21.196 20.2835 20.9993 20.2835 20.7566C20.2835 20.5139 20.0867 20.3171 19.844 20.3171Z" fill="black"/>
<path d="M19.844 22.97H10.156C9.91331 22.97 9.71655 23.1667 9.71655 23.4094C9.71655 23.6521 9.91331 23.8489 10.156 23.8489H19.844C20.0867 23.8489 20.2835 23.6521 20.2835 23.4094C20.2835 23.1667 20.0867 22.97 19.844 22.97Z" fill="black"/>
<path d="M17.4856 11.823H16.3662V10.7036C16.3662 10.4609 16.1695 10.2642 15.9268 10.2642H14.0732C13.8305 10.2642 13.6338 10.4609 13.6338 10.7036V11.823H12.5144C12.2717 11.823 12.075 12.0197 12.075 12.2624V14.1161C12.075 14.3588 12.2717 14.5555 12.5144 14.5555H13.6338V15.6749C13.6338 15.9176 13.8305 16.1143 14.0732 16.1143H15.9268C16.1695 16.1143 16.3662 15.9176 16.3662 15.6749V14.5555H17.4856C17.7283 14.5555 17.9251 14.3588 17.9251 14.1161V12.2624C17.9251 12.0197 17.7283 11.823 17.4856 11.823ZM17.0462 13.6766H15.9268C15.6841 13.6766 15.4873 13.8733 15.4873 14.1161V15.2354H14.5127V14.1161C14.5127 13.8733 14.3159 13.6766 14.0732 13.6766H12.9539V12.7019H14.0732C14.3159 12.7019 14.5127 12.5051 14.5127 12.2624V11.1431H15.4873V12.2624C15.4873 12.5051 15.6841 12.7019 15.9268 12.7019H17.0462V13.6766Z" fill="black"/>
<path d="M23.9487 4.61268H22.0713V3.92203C22.0713 3.19312 21.4782 2.6001 20.7493 2.6001H18.008C17.7944 1.13162 16.5269 0 15.0001 0C13.4733 0 12.2059 1.13162 11.9923 2.6001H9.25089C8.52198 2.6001 7.92896 3.19312 7.92896 3.92203V4.61268H6.05149C4.64343 4.61268 3.4978 5.75824 3.4978 7.16631V27.4464C3.4978 28.8544 4.64337 30 6.05149 30H8.16146C8.40415 30 8.60091 29.8032 8.60091 29.5605C8.60091 29.3179 8.40415 29.1211 8.16146 29.1211H6.05149C5.12806 29.1211 4.37671 28.3698 4.37671 27.4464V7.16631C4.37671 6.24287 5.128 5.49158 6.05149 5.49158H7.92896V6.631H6.05149C5.7563 6.631 5.51618 6.87111 5.51618 7.16631V27.4464C5.51618 27.7416 5.7563 27.9817 6.05149 27.9817H23.9487C24.2439 27.9817 24.484 27.7416 24.484 27.4464V7.16631C24.484 6.87111 24.2439 6.631 23.9487 6.631H22.0713V5.49158H23.9487C24.8722 5.49158 25.6235 6.24287 25.6235 7.16631V27.4464C25.6235 28.3698 24.8722 29.1211 23.9487 29.1211H9.91927C9.67657 29.1211 9.47982 29.3179 9.47982 29.5605C9.47982 29.8032 9.67657 30 9.91927 30H23.9487C25.3568 30 26.5024 28.8544 26.5024 27.4464V7.16631C26.5024 5.75824 25.3568 4.61268 23.9487 4.61268ZM23.6051 7.50996V27.1028H6.39509V7.5099H7.92896V7.60389C7.92896 8.33279 8.52198 8.92582 9.25089 8.92582H17.7708C18.0135 8.92582 18.2103 8.72906 18.2103 8.48637C18.2103 8.24367 18.0135 8.04691 17.7708 8.04691H9.25089C9.00661 8.04691 8.80786 7.84816 8.80786 7.60389V3.92203C8.80786 3.67775 9.00661 3.479 9.25089 3.479H12.4001C12.6428 3.479 12.8395 3.28225 12.8395 3.03955C12.8395 1.84816 13.8087 0.878906 15.0001 0.878906C16.1915 0.878906 17.1608 1.84816 17.1608 3.03955C17.1608 3.28225 17.3575 3.479 17.6002 3.479H20.7493C20.9936 3.479 21.1924 3.67775 21.1924 3.92203V7.60395C21.1924 7.84822 20.9936 8.04697 20.7493 8.04697H19.5286C19.2859 8.04697 19.0892 8.24373 19.0892 8.48643C19.0892 8.72912 19.2859 8.92588 19.5286 8.92588H20.7493C21.4782 8.92588 22.0713 8.33285 22.0713 7.60395V7.50996H23.6051Z" fill="black"/>
</svg>
