<svg width="22" height="30" viewBox="0 0 22 30" fill="none" xmlns="http://www.w3.org/2000/svg">
<path d="M21.12 15.4939C21.12 14.8939 20.6153 14.4351 19.9553 14.4351C19.2953 14.4351 18.7906 14.8939 18.7906 15.4939C18.7906 19.6233 15.1024 22.9762 10.56 22.9762C6.01765 22.9762 2.32941 19.6233 2.32941 15.4939C2.32941 14.8939 1.82471 14.4351 1.16471 14.4351C0.504706 14.4351 0 14.8939 0 15.4939C0 20.3998 4.03765 24.5292 9.39529 25.0586V27.8821H5.16353C4.50353 27.8821 3.99882 28.3409 3.99882 28.9409C3.99882 29.5409 4.50353 29.9998 5.16353 29.9998H15.9565C16.6165 29.9998 17.1212 29.5409 17.1212 28.9409C17.1212 28.3409 16.6165 27.8821 15.9565 27.8821H11.7247V25.0586C17.0824 24.5292 21.12 20.3998 21.12 15.4939Z" fill="#303030"/>
<path d="M10.5599 0C6.98818 0 4.07642 2.64706 4.07642 5.89412V15.4588C4.07642 18.7412 6.98818 21.3529 10.5599 21.3882C14.1317 21.3882 17.0435 18.7412 17.0435 15.4941V5.89412C17.0435 2.64706 14.1317 0 10.5599 0Z" fill="#303030"/>
</svg>
