<svg width="18" height="18" viewBox="0 0 18 18" fill="none" xmlns="http://www.w3.org/2000/svg">
<path d="M11.8125 0.5625C8.81325 0.5625 5.625 1.548 5.625 3.375V5.625C5.625 5.9355 5.877 6.1875 6.1875 6.1875C6.498 6.1875 6.75 5.9355 6.75 5.625V5.03888C7.94362 5.7915 9.91463 6.1875 11.8125 6.1875C13.7104 6.1875 15.6814 5.7915 16.875 5.03888V5.625C16.875 6.17513 15.4913 7.05262 12.8903 7.26975C12.582 7.2945 12.3514 7.56787 12.3772 7.87725C12.4009 8.17088 12.6472 8.3925 12.9364 8.3925C12.9532 8.3925 12.9679 8.39138 12.9847 8.39025C14.4495 8.26763 15.9086 7.8885 16.875 7.27313V7.875C16.875 8.35537 15.8558 9.04613 13.9646 9.38025C13.6597 9.43425 13.455 9.72675 13.509 10.0316C13.5574 10.3039 13.7947 10.4963 14.0614 10.4963C14.094 10.4963 14.1277 10.494 14.1604 10.4872C15.3045 10.2859 16.2203 9.95625 16.875 9.53775V10.125C16.875 10.6054 15.8558 11.2961 13.9646 11.6302C13.6597 11.6842 13.455 11.9767 13.509 12.2816C13.5574 12.5539 13.7947 12.7463 14.0614 12.7463C14.094 12.7463 14.1277 12.744 14.1604 12.7372C15.3045 12.5359 16.2203 12.2051 16.875 11.7877V12.375C16.875 12.8554 15.8558 13.5461 13.9646 13.8802C13.6597 13.9342 13.455 14.2267 13.509 14.5316C13.5574 14.8039 13.7947 14.9963 14.0614 14.9963C14.094 14.9963 14.1277 14.994 14.1604 14.9872C15.3045 14.7859 16.2203 14.4551 16.875 14.0377V14.625C16.875 15.1751 15.4913 16.0526 12.8903 16.2697C12.582 16.2945 12.3514 16.5679 12.3772 16.8773C12.4009 17.1709 12.6472 17.3925 12.9364 17.3925C12.9532 17.3925 12.9679 17.3914 12.9847 17.3903C15.4811 17.181 18 16.2461 18 14.625V3.375C18 1.548 14.8117 0.5625 11.8125 0.5625ZM11.8125 5.0625C8.72213 5.0625 6.75 4.06238 6.75 3.375C6.75 2.68762 8.72213 1.6875 11.8125 1.6875C14.9029 1.6875 16.875 2.68762 16.875 3.375C16.875 4.06238 14.9029 5.0625 11.8125 5.0625Z" fill="#333333"/>
<path d="M6.1875 7.3125C3.18825 7.3125 0 8.298 0 10.125V14.625C0 16.452 3.18825 17.4375 6.1875 17.4375C9.18675 17.4375 12.375 16.452 12.375 14.625V10.125C12.375 8.298 9.18675 7.3125 6.1875 7.3125ZM11.25 14.625C11.25 15.3124 9.27787 16.3125 6.1875 16.3125C3.09713 16.3125 1.125 15.3124 1.125 14.625V14.0389C2.31862 14.7915 4.28963 15.1875 6.1875 15.1875C8.08537 15.1875 10.0564 14.7915 11.25 14.0389V14.625ZM11.25 12.375C11.25 13.0624 9.27787 14.0625 6.1875 14.0625C3.09713 14.0625 1.125 13.0624 1.125 12.375V11.7889C2.31862 12.5415 4.28963 12.9375 6.1875 12.9375C8.08537 12.9375 10.0564 12.5415 11.25 11.7889V12.375ZM6.1875 11.8125C3.09713 11.8125 1.125 10.8124 1.125 10.125C1.125 9.43762 3.09713 8.4375 6.1875 8.4375C9.27787 8.4375 11.25 9.43762 11.25 10.125C11.25 10.8124 9.27787 11.8125 6.1875 11.8125Z" fill="#333333"/>
</svg>
