<svg width="18" height="17" viewBox="0 0 18 17" fill="none" xmlns="http://www.w3.org/2000/svg">
<path d="M6.42857 3.42857V2.14286H11.5714V3.42857H6.42857ZM2.89286 3.42857H2.25C1.01451 3.42857 0 4.44308 0 5.67857V14.0357C0 15.2712 1.01451 16.2857 2.25 16.2857H2.89286V3.42857ZM14.1429 3.42857H12.8571V1.82143C12.8571 1.28906 12.4252 0.857142 11.8929 0.857142H6.10714C5.57478 0.857142 5.14286 1.28906 5.14286 1.82143V3.42857H3.85714V16.2857H14.1429V3.42857ZM18 5.67857C18 4.44308 16.9855 3.42857 15.75 3.42857H15.1071V16.2857H15.75C16.9855 16.2857 18 15.2712 18 14.0357V5.67857Z" fill="#666666"/>
</svg>
