<svg width="173" height="131" viewBox="0 0 173 131" fill="none" xmlns="http://www.w3.org/2000/svg">
<rect y="19" width="172.421" height="112" rx="5" fill="#F2F3F8"/>
<path d="M2.94727 29.3158H169.474V123.053C169.474 125.814 167.235 128.053 164.474 128.053H7.94727C5.18585 128.053 2.94727 125.814 2.94727 123.053V29.3158Z" fill="white"/>
<circle cx="9.57893" cy="24.1579" r="2.21053" fill="#2B89F8"/>
<circle cx="15.4737" cy="24.1579" r="2.21053" fill="#2B89F8"/>
<circle cx="21.3685" cy="24.1579" r="2.21053" fill="#2B89F8"/>
<path d="M51.5 88C40.1782 88 31 105.909 31 128H72C72 105.909 62.8218 88 51.5 88Z" fill="#2B89F8"/>
<circle cx="51.7368" cy="78.7368" r="14.7368" fill="#F2F3F8"/>
<path d="M140 101C132.268 101 126 113.088 126 128H154C154 113.088 147.732 101 140 101Z" fill="#2B89F8"/>
<circle cx="140" cy="95" r="10" fill="#F2F3F8"/>
<rect x="105" y="29" width="5" height="100" fill="#F2F3F8"/>
<rect x="63" y="40" width="35" height="18" rx="5" fill="#F2F3F8"/>
<path d="M63 61.5V53L69 57.5L63 61.5Z" fill="#F2F3F8"/>
<rect x="117" y="40" width="47.1579" height="4.42105" rx="2.21053" fill="#8E92AA"/>
<rect x="117" y="48.8422" width="28" height="4.42105" rx="2.21053" fill="#8E92AA"/>
<circle cx="12.5" cy="82.5" r="5.5" fill="#78C2A4"/>
<path d="M18 48.2453C18 48.095 18.0849 47.9575 18.2194 47.8903L28.5528 42.7236C29.2177 42.3912 30 42.8747 30 43.618V52.4416C30 53.1703 29.2457 53.6543 28.5833 53.3507L18.2315 48.6061C18.0905 48.5415 18 48.4005 18 48.2453Z" fill="#2B89F8"/>
<rect x="7" y="40" width="17" height="16" rx="3" fill="#F2F3F8"/>
<path d="M69 10C69 8.89543 69.8954 8 71 8H100C101.105 8 102 8.89543 102 10V22H69V10Z" fill="#F2F3F8"/>
<circle cx="85.5" cy="9.5" r="9.5" fill="white"/>
<circle cx="85.5" cy="9.5" r="3.5" fill="#2B89F8"/>
<circle cx="74.5789" cy="49.2105" r="2.21053" fill="#2B89F8"/>
<circle cx="80.4737" cy="49.2105" r="2.21053" fill="#2B89F8"/>
<circle cx="86.3685" cy="49.2105" r="2.21053" fill="#2B89F8"/>
<circle cx="12.5" cy="69.5" r="5.5" fill="#78C2A4"/>
</svg>
