<svg width="173" height="112" viewBox="0 0 173 112" fill="none" xmlns="http://www.w3.org/2000/svg">
<rect width="172.421" height="112" rx="5" fill="#F2F3F8"/>
<path d="M2.94727 10.3158H169.474V104.053C169.474 106.814 167.235 109.053 164.474 109.053H7.94727C5.18585 109.053 2.94727 106.814 2.94727 104.053V10.3158Z" fill="white"/>
<circle cx="9.57893" cy="5.15791" r="2.21053" fill="#2B89F8"/>
<circle cx="15.4737" cy="5.15791" r="2.21053" fill="#2B89F8"/>
<circle cx="21.3685" cy="5.15791" r="2.21053" fill="#2B89F8"/>
<rect x="80" y="27" width="47.1579" height="4.42105" rx="2.21053" fill="#8E92AA"/>
<rect x="96.2104" y="41.7368" width="47.1579" height="2.94737" rx="1.47368" fill="#F2F3F8"/>
<rect x="96.2104" y="47.6315" width="22.1053" height="2.94737" rx="1.47368" fill="#F2F3F8"/>
<rect x="80" y="41.7368" width="8.8421" height="8.8421" rx="1" fill="#2B89F8"/>
<rect x="96.2104" y="59.4211" width="47.1579" height="2.94737" rx="1.47368" fill="#F2F3F8"/>
<rect x="96.2104" y="65.3158" width="22.1053" height="2.94737" rx="1.47368" fill="#F2F3F8"/>
<rect x="80" y="59.4211" width="8.8421" height="8.8421" rx="1" fill="#2B89F8"/>
<rect x="96.2104" y="77.1052" width="47.1579" height="2.94737" rx="1.47368" fill="#F2F3F8"/>
<rect x="96.2104" y="82.9999" width="22.1053" height="2.94737" rx="1.47368" fill="#F2F3F8"/>
<rect x="80" y="77.1052" width="8.8421" height="8.8421" rx="1" fill="#2B89F8"/>
<rect x="13" y="27" width="54" height="64" rx="3" fill="#F2F3F8"/>
<g clip-path="url(#clip0)">
<path d="M39.715 58.2681C42.3621 58.2681 44.6542 57.3187 46.5271 55.4456C48.4 53.5727 49.3494 51.2811 49.3494 48.6338C49.3494 45.9873 48.4 43.6954 46.5268 41.8219C44.6536 39.9494 42.3618 39 39.715 39C37.0676 39 34.776 39.9494 32.9031 41.8223C31.0303 43.6951 30.0806 45.987 30.0806 48.6338C30.0806 51.2811 31.0303 53.573 32.9034 55.4459C34.7766 57.3184 37.0685 58.2681 39.715 58.2681Z" fill="#2B89F8"/>
<path d="M56.5726 69.758C56.5186 68.9785 56.4093 68.1283 56.2485 67.2305C56.0861 66.326 55.8771 65.4709 55.6268 64.6893C55.3683 63.8815 55.0168 63.0838 54.5822 62.3193C54.1312 61.5259 53.6014 60.835 53.0069 60.2664C52.3853 59.6716 51.6241 59.1934 50.744 58.8446C49.8669 58.4976 48.895 58.3218 47.8552 58.3218C47.4469 58.3218 47.052 58.4894 46.2894 58.9859C45.82 59.292 45.271 59.646 44.6582 60.0375C44.1342 60.3714 43.4244 60.6842 42.5476 60.9674C41.6922 61.2442 40.8237 61.3846 39.9664 61.3846C39.1092 61.3846 38.241 61.2442 37.3846 60.9674C36.5088 60.6845 35.799 60.3717 35.2756 60.0378C34.6686 59.65 34.1193 59.296 33.6429 58.9856C32.8812 58.4891 32.486 58.3215 32.0776 58.3215C31.0376 58.3215 30.0659 58.4976 29.1891 58.8449C28.3096 59.1931 27.5482 59.6713 26.926 60.2667C26.3318 60.8356 25.8017 61.5262 25.3513 62.3193C24.917 63.0838 24.5654 63.8812 24.3066 64.6896C24.0567 65.4712 23.8477 66.326 23.6853 67.2305C23.5245 68.1271 23.4152 68.9776 23.3612 69.7589C23.3081 70.5242 23.2812 71.3186 23.2812 72.1209C23.2812 74.2089 23.945 75.8993 25.2539 77.1459C26.5466 78.3761 28.2571 79.0002 30.3372 79.0002H49.5975C51.6776 79.0002 53.3875 78.3764 54.6805 77.1459C55.9897 75.9002 56.6534 74.2095 56.6534 72.1206C56.6531 71.3146 56.626 70.5197 56.5726 69.758Z" fill="#2B89F8"/>
</g>
<defs>
<clipPath id="clip0">
<rect width="40" height="40" fill="white" transform="translate(20 39)"/>
</clipPath>
</defs>
</svg>
