<svg width="10" height="17" viewBox="0 0 10 17" fill="none" xmlns="http://www.w3.org/2000/svg">
<path d="M9.96094 8.35714C9.96094 8.22321 9.89397 8.07254 9.79353 7.9721L1.99219 0.170758C1.89174 0.0703125 1.74107 0.00334668 1.60714 0.00334668C1.47321 0.00334668 1.32254 0.0703125 1.2221 0.170758L0.385045 1.00781C0.284598 1.10826 0.217634 1.25893 0.217634 1.39286C0.217634 1.52678 0.284598 1.67745 0.385045 1.7779L6.96429 8.35714L0.385045 14.9364C0.284598 15.0368 0.217634 15.1875 0.217634 15.3214C0.217634 15.4721 0.284598 15.606 0.385045 15.7065L1.2221 16.5435C1.32254 16.644 1.47321 16.7109 1.60714 16.7109C1.74107 16.7109 1.89174 16.644 1.99219 16.5435L9.79353 8.74219C9.89397 8.64174 9.96094 8.49107 9.96094 8.35714Z" fill="#2B89F8"/>
</svg>
