<svg width="118" height="118" viewBox="0 0 118 118" fill="none" xmlns="http://www.w3.org/2000/svg">
<path d="M118 59C118 67.5296 116.191 75.6352 112.932 82.9549C103.748 103.603 83.054 101.916 59 101.916C34.946 101.916 14.2522 103.603 5.06801 82.9549C1.80918 75.6352 0 67.5296 0 59C0 26.4163 26.4163 0 59 0C91.5837 0 118 26.4163 118 59Z" fill="#2B89F8" fill-opacity="0.9"/>
<path d="M112.932 62.3003V82.9549C103.748 103.603 83.0541 118 59.0001 118C34.9461 118 14.2523 103.603 5.06812 82.9549V62.3003H112.932Z" fill="#80B4FB"/>
<path d="M107.486 71.9108H10.5145C7.50622 71.9108 5.06763 69.4723 5.06763 66.4639V54.9338C5.06763 51.9255 7.50622 49.4869 10.5145 49.4869H107.486C110.494 49.4869 112.933 51.9255 112.933 54.9338V66.4639C112.933 69.4723 110.494 71.9108 107.486 71.9108Z" fill="#9DC6FB"/>
<path d="M90.5052 63.9031H88.961L59.0001 60.6991L30.7573 63.9031H27.495C25.7255 63.9031 24.291 62.4686 24.291 60.6991C24.291 58.9296 25.7255 57.4951 27.495 57.4951H90.5052C92.2747 57.4951 93.7091 58.9296 93.7091 60.6991C93.7091 62.4686 92.2747 63.9031 90.5052 63.9031Z" fill="#26457D"/>
<path d="M101.778 30.9727L88.961 63.9016H30.7573L17.9407 30.9727L30.7573 28.3018L36.0963 2.40333L56.6557 11.4813L59.8593 0L83.622 2.40333V35.5115L101.778 30.9727Z" fill="#F9F6F6"/>
<path d="M59.8593 0V63.9016H50.5618L56.6558 11.4813L59.8593 0Z" fill="#DDDAEC"/>
<path d="M45.2361 63.9016H39.4847L30.7573 28.3018L36.0964 2.40332L45.2361 63.9016Z" fill="#DDDAEC"/>
<path d="M101.778 30.9727L77.2551 63.9016H75.1514L83.622 35.5115L101.778 30.9727Z" fill="#DDDAEC"/>
<path d="M71.5837 92.2552H64.005V84.6765C64.005 83.6265 63.1536 82.7751 62.1036 82.7751H55.8964C54.8464 82.7751 53.995 83.6265 53.995 84.6765V92.2552H46.4165C45.3665 92.2552 44.5151 93.1066 44.5151 94.1566V100.364C44.5151 101.414 45.3665 102.265 46.4165 102.265H53.9952V109.844C53.9952 110.894 54.8466 111.745 55.8966 111.745H62.1038C63.1538 111.745 64.0052 110.894 64.0052 109.844V102.265H71.5837C72.6337 102.265 73.4851 101.414 73.4851 100.364V94.1566C73.4851 93.1064 72.6339 92.2552 71.5837 92.2552Z" fill="#F9F6F6"/>
</svg>
