<svg width="118" height="118" viewBox="0 0 118 118" fill="none" xmlns="http://www.w3.org/2000/svg">
<path d="M118 59C118 89.8529 94.3147 115.177 64.1348 117.779C62.4432 117.926 60.3183 112.293 58.5875 112.293C48.993 112.293 41.0797 109.949 33.0709 105.886C31.7757 105.229 30.5058 104.524 29.2681 103.775C28.6574 103.406 28.0536 103.026 27.459 102.637C23.0501 99.751 18.3177 102.052 14.8353 98.1221C5.605 87.7095 0 74.0081 0 59C0 45.2387 4.71309 32.5768 12.6136 22.5422C14.3536 20.3274 19.6069 21.5935 21.6442 19.6507C22.9602 18.3969 25.1614 18.4907 26.5903 17.3615C29.2776 15.2319 31.8275 15.3236 34.8674 13.6827C38.5111 11.7145 39.4993 8.36464 43.5533 7.19386C44.1249 7.02793 43.5095 4.37823 44.0857 4.23049C44.6526 4.0853 45.2196 3.94932 45.7911 3.82257C45.9018 3.79721 46.0147 3.77186 46.1276 3.74882C47.3007 3.49299 48.4853 3.27174 49.6838 3.08737C52.6476 2.62413 55.6829 2.38674 58.7758 2.38674C59.6331 2.38674 60.4858 2.40518 61.334 2.44206C67.4483 2.70249 73.5472 1.50728 79.0416 3.49392C101.761 11.6963 118 33.4526 118 59Z" fill="#2B89F8" fill-opacity="0.9"/>
<path d="M64.1348 86.1815V117.779C63.1645 117.864 62.1873 117.924 61.2055 117.959C60.4749 117.986 59.7374 118 58.9999 118C58.8616 118 58.7257 118 58.5874 117.998C41.1778 117.88 25.5589 110.222 14.8352 98.1221V86.1815C14.8352 76.3128 22.8348 68.3132 32.7034 68.3132H46.2665C56.1352 68.3132 64.1348 76.3128 64.1348 86.1815Z" fill="#FFDDCE"/>
<path d="M61.2055 92.2059V117.959C60.475 117.986 59.7374 118 58.9999 118C58.8617 118 58.7257 118 58.5874 117.998V92.2059H61.2055Z" fill="#FFCBBE"/>
<path d="M44.5933 68.3109C34.7247 68.3109 26.7251 76.3105 26.7251 86.1815V108.396C22.3162 105.511 18.3176 102.052 14.8352 98.122V86.1815C14.8352 76.3105 22.8348 68.3109 32.7034 68.3109H44.5933Z" fill="#FFCBBE"/>
<path d="M47.49 48.363V69.5327C47.49 71.766 46.5843 73.7872 45.1208 75.2481C43.6599 76.7116 41.6387 77.6173 39.4054 77.6173C37.8322 77.6173 36.3641 77.1693 35.1247 76.3899C32.8414 74.9621 31.3208 72.4237 31.3208 69.5327V48.363H47.49Z" fill="#FFDDCE"/>
<path d="M47.49 48.363V68.5389C46.3888 68.6938 45.2662 68.7724 44.1222 68.7724C39.4245 68.7724 35.0364 67.4378 31.3208 65.1257V48.363H47.49Z" fill="#FFCBBE"/>
<path d="M35.1249 56.5812V76.39C32.8417 74.9622 31.321 72.4238 31.321 69.5328V56.5812H35.1249Z" fill="#FFCBBE"/>
<path d="M46.0151 1.43579V24.508H15.9758V22.768C15.637 22.8025 15.2936 22.821 14.9456 22.821C14.1413 22.821 13.36 22.7242 12.6133 22.5421C14.3533 20.3273 16.2524 18.2393 18.2897 16.2964C22.0855 12.6781 26.3607 9.55981 31.0139 7.0477C34.6576 5.0795 38.5341 3.48466 42.588 2.31388C43.7173 1.98661 44.8605 1.69392 46.0151 1.43579Z" fill="#21386B"/>
<path d="M16.9925 25.7139C13.1496 29.5567 13.1496 35.7874 16.9925 39.6303C20.8353 43.4731 27.066 43.4731 30.9089 39.6303" fill="#26457D"/>
<path d="M69.9506 34.2813H16.2297C12.7517 34.2813 9.93237 31.4617 9.93237 27.984C9.93237 24.506 12.7519 21.6866 16.2297 21.6866H69.9506C73.4286 21.6866 76.2479 24.5062 76.2479 27.984C76.2481 31.462 73.4286 34.2813 69.9506 34.2813Z" fill="#FFCBBE"/>
<path d="M16.2298 30.6742C14.7463 30.6742 13.5396 29.4673 13.5396 27.984C13.5396 26.5004 14.7465 25.2937 16.2298 25.2937H69.9507C71.4342 25.2937 72.641 26.5007 72.641 27.984C72.641 29.4675 71.434 30.6742 69.9507 30.6742H16.2298Z" fill="#EAAC9D"/>
<path d="M68.4123 10.0762V40.8368C68.4123 54.2501 57.5365 65.1259 44.1232 65.1259C30.7076 65.1259 19.8318 54.2501 19.8318 40.8368V23.6139C19.8318 19.6959 22.0812 17.6752 23.729 14.3981C26.4163 12.2686 27.9743 8.68873 31.0141 7.04802C34.6578 5.07982 38.5343 3.48498 42.5883 2.3142C43.7176 1.98693 48.6321 4.64216 49.7867 4.3838C49.8974 4.35845 50.0103 4.3331 50.1232 4.31005C54.1979 3.41814 54.9481 2.39117 59.2901 2.39117C60.1475 2.39117 60.71 0.0187262 61.5582 0.0556012C65.5706 1.61564 68.4123 5.51518 68.4123 10.0762Z" fill="#FFDDCE"/>
<path d="M50.1154 64.3791C48.2002 64.8677 46.1928 65.1236 44.1232 65.1236C30.7076 65.1236 19.8318 54.2523 19.8318 40.8368V23.6138C19.8318 19.6959 22.0812 17.6751 23.729 14.3981C26.4163 12.2685 27.9742 8.68868 31.0141 7.04797C34.6578 5.07977 38.5343 3.48492 42.5883 2.31414C43.7176 1.98688 44.8607 1.69418 46.0153 1.43605C46.126 1.4107 46.2389 1.38535 46.3518 1.3623C37.7945 5.11894 31.8185 13.6693 31.8185 23.6141V40.837C31.8185 52.185 39.5991 61.7126 50.1154 64.3791Z" fill="#FFCBBE"/>
<path d="M37.8309 28.1126C36.1275 28.1126 34.7466 26.7316 34.7466 25.0282V18.6021C34.7466 16.8987 36.1275 15.5177 37.8309 15.5177C39.5343 15.5177 40.9153 16.8987 40.9153 18.6021V25.028C40.9155 26.7316 39.5346 28.1126 37.8309 28.1126Z" fill="#26457D"/>
<path d="M56.8517 28.1126C55.1483 28.1126 53.7673 26.7316 53.7673 25.0282V18.6021C53.7673 16.8987 55.1483 15.5177 56.8517 15.5177C58.5551 15.5177 59.9361 16.8987 59.9361 18.6021V25.028C59.9363 26.7316 58.5553 28.1126 56.8517 28.1126Z" fill="#26457D"/>
<path d="M50.4265 2.40834V34.4089H44.2568V2.40834C44.2568 2.21474 44.2753 2.02576 44.3098 1.84369C44.8768 1.69849 45.4438 1.56251 46.0153 1.43576C46.1259 1.41041 46.2389 1.38505 46.3518 1.36201C47.5249 1.10619 48.7095 0.884937 49.9079 0.700562C50.2352 1.18916 50.4265 1.77685 50.4265 2.40834Z" fill="#FFCBBE"/>
<path d="M47.0782 50.7464H40.6523C39.3359 50.7464 38.2688 49.6793 38.2688 48.3629C38.2688 47.0464 39.3359 45.9794 40.6523 45.9794H47.0782C48.3947 45.9794 49.4617 47.0464 49.4617 48.3629C49.4617 49.6793 48.3947 50.7464 47.0782 50.7464Z" fill="#FFCBBE"/>
<path d="M31.014 7.04773V10.6638C31.014 16.7505 26.0796 21.6871 19.9907 21.6871H18.2898V16.2964C22.0856 12.6781 26.3608 9.55984 31.014 7.04773Z" fill="#21386B"/>
<path d="M79.6936 7.60547H53.1828C48.8523 7.60547 45.0058 5.52664 42.5881 2.31391C47.7967 0.806641 53.3049 0 58.9998 0C66.036 0 72.7842 1.23301 79.0414 3.49391C79.4654 4.78914 79.6936 6.16965 79.6936 7.60547Z" fill="#26457D"/>
<path d="M51.0359 29.8833H46.0665C44.158 29.8833 42.6108 31.4304 42.6108 33.339C42.6108 35.2475 44.158 36.7946 46.0665 36.7946H51.0359C52.9444 36.7946 54.4915 35.2475 54.4915 33.339C54.4917 31.4304 52.9446 29.8833 51.0359 29.8833Z" fill="#FFCBBE"/>
<path d="M32.3369 91.4065V111.646C31.0416 110.989 29.7718 110.284 28.5341 109.535L28.5334 96.7693L32.3369 91.4065Z" fill="#FFCBBE"/>
<path d="M68.0045 84.5972H41.849C38.876 84.5972 36.2793 86.2033 34.875 88.594H28.5337V96.7691H34.875C36.2793 99.16 38.876 100.766 41.849 100.766H68.0047C72.4696 100.766 76.0891 97.1464 76.0891 92.6815C76.0889 88.2167 72.4693 84.5972 68.0045 84.5972Z" fill="#E4F6FF"/>
<path d="M76.0896 92.6814C76.0896 97.1456 72.4715 100.766 68.005 100.766H41.8491C38.877 100.766 36.2814 99.1596 34.8751 96.769H28.5352V93.9637H34.8751C36.2814 94.7146 38.877 95.2175 41.8491 95.2175H68.005C72.4715 95.2175 76.0896 94.0829 76.0896 92.6814Z" fill="#CBE2FF"/>
<path d="M41.8489 95.9992C40.6604 95.9992 39.5899 95.3846 38.9851 94.3548L38.0022 92.6816L38.9851 91.0084C39.5899 89.9789 40.6604 89.364 41.8489 89.364H68.0046C69.8338 89.364 71.3222 90.8524 71.3222 92.6816C71.3222 94.5111 69.8338 95.9992 68.0046 95.9992H41.8489Z" fill="#DD5790"/>
<path d="M28.5352 91.4065H46.8159V93.9569H28.5352V91.4065Z" fill="#DD5790"/>
<path d="M64.8341 93.3157C64.2213 93.3157 63.7244 92.8188 63.7244 92.206V87.4505C63.7244 86.8377 64.2213 86.3408 64.8341 86.3408C65.4469 86.3408 65.9438 86.8377 65.9438 87.4505V92.206C65.9438 92.8188 65.4469 93.3157 64.8341 93.3157Z" fill="white"/>
<path d="M58.8514 93.3157C58.2386 93.3157 57.7417 92.8188 57.7417 92.206V87.4505C57.7417 86.8377 58.2386 86.3408 58.8514 86.3408C59.4642 86.3408 59.9611 86.8377 59.9611 87.4505V92.206C59.9609 92.8188 59.4642 93.3157 58.8514 93.3157Z" fill="white"/>
<path d="M52.8683 93.3157C52.2554 93.3157 51.7585 92.8188 51.7585 92.206V87.4505C51.7585 86.8377 52.2554 86.3408 52.8683 86.3408C53.4811 86.3408 53.978 86.8377 53.978 87.4505V92.206C53.978 92.8188 53.4811 93.3157 52.8683 93.3157Z" fill="white"/>
<path d="M46.8856 93.3157C46.2728 93.3157 45.7759 92.8188 45.7759 92.206V87.4505C45.7759 86.8377 46.2728 86.3408 46.8856 86.3408C47.4984 86.3408 47.9953 86.8377 47.9953 87.4505V92.206C47.9951 92.8188 47.4984 93.3157 46.8856 93.3157Z" fill="white"/>
<path d="M83.3607 92.9029L83.2554 92.5102C82.8841 91.1248 83.649 89.6886 85.0058 89.2235L89.1789 87.7927C90.6737 87.2802 92.2898 88.141 92.6989 89.6674L92.9604 90.6434C93.3695 92.1698 92.4002 93.7232 90.8493 94.0267L86.52 94.8741C85.1123 95.1498 83.7318 94.2883 83.3607 92.9029Z" fill="#E4F6FF"/>
<path d="M78.1416 82.5931L77.8539 82.3054C76.8399 81.2914 76.7841 79.665 77.7265 78.5838L80.6251 75.2582C81.6633 74.0669 83.4933 74.0042 84.6106 75.1217L85.325 75.8362C86.4424 76.9535 86.3797 78.7834 85.1886 79.8217L81.8629 82.7203C80.7818 83.6629 79.1556 83.6074 78.1416 82.5931Z" fill="#E4F6FF"/>
<path d="M67.9369 77.1916L67.5442 77.0863C66.1588 76.715 65.2973 75.3345 65.573 73.927L66.4204 69.5977C66.724 68.0469 68.2775 67.0777 69.8037 67.4866L70.7797 67.7482C72.3061 68.1573 73.1667 69.7733 72.6544 71.2681L71.2236 75.4412C70.7585 76.798 69.3223 77.5629 67.9369 77.1916Z" fill="#E4F6FF"/>
<path d="M109.83 61.0032C105.456 61.0032 101.897 57.4445 101.897 53.0704C101.897 48.6964 105.456 45.1377 109.83 45.1377C111.419 45.1377 112.954 45.6067 114.266 46.4935C115.057 47.028 115.265 48.1024 114.731 48.8936C114.196 49.6844 113.122 49.8925 112.331 49.358C111.592 48.8586 110.727 48.5947 109.83 48.5947C107.362 48.5947 105.354 50.6026 105.354 53.0704C105.354 55.5383 107.362 57.5461 109.83 57.5461C110.735 57.5461 111.494 57.2788 112.085 56.7519C112.201 56.6489 112.312 56.5346 112.414 56.4127C113.027 55.6812 114.117 55.5853 114.849 56.1986C115.58 56.8119 115.676 57.9022 115.063 58.6337C114.854 58.8831 114.626 59.1184 114.385 59.333C113.158 60.4261 111.583 61.0032 109.83 61.0032Z" fill="white"/>
<path d="M85.6931 61.0036C85.4608 61.0036 85.2248 60.9564 84.9983 60.857C84.1243 60.4729 83.7272 59.453 84.1114 58.5791L89.5609 46.1829H84.0557C83.1008 46.1829 82.3271 45.4089 82.3271 44.4543C82.3271 43.4997 83.1008 42.7258 84.0557 42.7258H92.2087C92.7925 42.7258 93.3371 43.0206 93.6561 43.5094C93.975 43.9983 94.026 44.6152 93.7911 45.1499L87.2762 59.9702C86.9918 60.618 86.3581 61.0036 85.6931 61.0036Z" fill="white"/>
<path d="M75.3109 61.0032C72.572 61.0032 70.2215 58.9599 69.8435 56.2503C69.8083 55.9998 69.7903 55.7407 69.7903 55.4824C69.7903 54.5278 70.564 53.7538 71.5188 53.7538C72.4736 53.7538 73.2473 54.5278 73.2473 55.4824C73.2473 55.5801 73.254 55.6771 73.2671 55.7707C73.4084 56.7838 74.287 57.5462 75.3109 57.5462C76.449 57.5462 77.3746 56.6204 77.3746 55.4824C77.3746 54.3443 76.4488 53.4187 75.3109 53.4187C74.3561 53.4187 73.5824 52.6448 73.5824 51.6902C73.5824 50.7356 74.3561 49.9617 75.3109 49.9617C76.449 49.9617 77.3746 49.0359 77.3746 47.8981C77.3746 46.7603 76.4488 45.8342 75.3109 45.8342C74.3266 45.8342 73.475 46.5333 73.286 47.4962C73.1021 48.4328 72.1945 49.0426 71.2568 48.8591C70.3201 48.6752 69.7096 47.7665 69.8938 46.8299C70.4006 44.25 72.6788 42.3774 75.3109 42.3774C78.355 42.3774 80.8316 44.8541 80.8316 47.8983C80.8316 49.3655 80.2563 50.7008 79.3195 51.6905C80.2561 52.6801 80.8316 54.0154 80.8316 55.4826C80.8318 58.5266 78.355 61.0032 75.3109 61.0032Z" fill="white"/>
<path d="M100.3 47.7681C97.76 47.7681 95.6936 45.7017 95.6936 43.1619C95.6936 40.6219 97.76 38.5555 100.3 38.5555C102.84 38.5555 104.906 40.6219 104.906 43.1619C104.906 45.7017 102.84 47.7681 100.3 47.7681ZM100.3 42.0126C99.6662 42.0126 99.1506 42.5281 99.1506 43.1619C99.1506 43.7957 99.6662 44.311 100.3 44.311C100.934 44.311 101.449 43.7955 101.449 43.1619C101.449 42.5284 100.934 42.0126 100.3 42.0126Z" fill="white"/>
</svg>
