<svg width="118" height="118" viewBox="0 0 118 118" fill="none" xmlns="http://www.w3.org/2000/svg">
<path d="M118 59C118 73.5449 112.736 86.8591 104.013 97.1449C99.5971 102.349 92.0697 96.448 86.1144 99.8681C85.2916 100.343 86.6816 111.123 85.8335 111.556C82.8558 113.082 79.7284 114.359 76.4834 115.366C70.959 117.078 64.2017 112.437 58.115 112.437C49.6775 112.437 45.8571 111.339 38.5973 108.145C37.5441 107.682 34.9176 108.566 33.8967 108.043C31.2186 106.674 29.7812 103.457 27.3566 101.707C23.3142 98.7897 21.3426 97.2562 18.1598 93.4304C17.1088 92.1675 11.5739 94.1375 10.6313 92.7916C3.9318 83.22 0 71.5698 0 59C0 26.4163 26.4163 0 59 0C91.5837 0 118 26.4163 118 59Z" fill="#2B89F8" fill-opacity="0.9"/>
<path d="M76.4834 115.366C70.9591 117.078 65.0867 118 59.0001 118C49.3411 118 40.224 115.678 32.1758 111.561C29.4932 110.189 28.8402 106.706 26.4146 104.955C29.9292 99.2691 34.3074 97.3936 41.4842 97.3936H56.6283C66.9812 97.3938 75.4901 105.276 76.4834 115.366Z" fill="#DD5790"/>
<path d="M54.7595 97.3938C45.2227 97.3938 37.2462 104.084 35.278 113.033C34.2238 112.571 33.1862 112.078 32.1657 111.556C29.4868 110.185 29.7896 104.999 27.3662 103.25C30.8809 97.5639 34.3077 97.3938 41.4845 97.3938H54.7595Z" fill="#9D549B"/>
<path d="M57.996 75.1169V98.7568C57.996 101.251 56.9847 103.508 55.3505 105.139C53.719 106.773 51.462 107.785 48.9681 107.785C47.2115 107.785 45.5719 107.284 44.188 106.414C41.6383 104.82 39.9402 101.985 39.9402 98.7568V75.1169H57.996Z" fill="#FFDDCE"/>
<path d="M57.996 75.1169V97.6469C56.7665 97.82 55.5127 97.9078 54.2352 97.9078C48.9893 97.9078 44.0893 96.4173 39.9402 93.8356V75.1169H57.996Z" fill="#FFCBBE"/>
<path d="M44.188 84.2937V106.414C41.6383 104.819 39.9402 101.985 39.9402 98.7565V84.2937H44.188Z" fill="#FFCBBE"/>
<path d="M43.2904 11.9244C33.5806 11.9244 25.4545 18.6822 23.3441 27.7498L18.5342 22.9397C15.1066 26.3672 14.4198 31.4942 16.4673 35.6065H10.6653C10.6653 41.6754 15.5851 46.5952 21.6538 46.5952C22.0428 46.5952 22.4268 46.5743 22.8055 46.5349V48.4782H56.3497V11.9244H43.2904Z" fill="#21386B"/>
<path d="M23.9399 49.8248C19.6486 54.1162 19.6486 61.0738 23.9399 65.3651C28.2313 69.6565 35.1889 69.6565 39.4802 65.3651" fill="#26457D"/>
<path d="M83.0771 59.3922H23.088C19.2041 59.3922 16.0557 56.2438 16.0557 52.3599C16.0557 48.4761 19.2041 45.3276 23.088 45.3276H83.0771C86.961 45.3276 90.1094 48.4761 90.1094 52.3599C90.1094 56.2438 86.961 59.3922 83.0771 59.3922Z" fill="#FFCBBE"/>
<path d="M23.0879 55.364C21.4313 55.364 20.0837 54.0162 20.0837 52.3599C20.0837 50.7033 21.4315 49.3557 23.0879 49.3557H83.0771C84.7337 49.3557 86.0812 50.7035 86.0812 52.3599C86.0812 54.0165 84.7335 55.3643 83.0771 55.3643H23.0879V55.364Z" fill="#EAAC9D"/>
<path d="M54.2352 93.8359C39.2547 93.8359 27.1108 81.692 27.1108 66.7115V47.4805C27.1108 32.5003 39.2547 20.3562 54.2352 20.3562H69.3518C75.9833 20.3562 81.3595 25.7321 81.3595 32.3639V66.7115C81.3595 81.6918 69.2154 93.8359 54.2352 93.8359Z" fill="#FFDDCE"/>
<path d="M60.9287 93.0028C58.7881 93.5464 56.5468 93.8343 54.2365 93.8343C39.2554 93.8343 27.1108 81.6927 27.1108 66.7116V47.4808C27.1108 32.4997 39.2552 20.3551 54.2365 20.3551H67.618C52.6396 20.3551 40.4953 32.4994 40.4953 47.4808V66.7116C40.4953 79.3853 49.1842 90.0249 60.9287 93.0028Z" fill="#FFCBBE"/>
<path d="M47.2097 52.5036C45.3074 52.5036 43.7654 50.9615 43.7654 49.0592V41.8836C43.7654 39.9813 45.3074 38.4392 47.2097 38.4392C49.112 38.4392 50.6541 39.9813 50.6541 41.8836V49.0592C50.6541 50.9613 49.112 52.5036 47.2097 52.5036Z" fill="#21386B"/>
<path d="M68.45 52.5036C66.5477 52.5036 65.0056 50.9615 65.0056 49.0592V41.8836C65.0056 39.9813 66.5477 38.4392 68.45 38.4392C70.3523 38.4392 71.8943 39.9813 71.8943 41.8836V49.0592C71.8943 50.9613 70.3523 52.5036 68.45 52.5036Z" fill="#21386B"/>
<path d="M61.2742 59.5356H54.3855V23.8006C54.3855 21.8983 55.9276 20.3562 57.8298 20.3562C59.7321 20.3562 61.2742 21.8983 61.2742 23.8006V59.5356Z" fill="#FFCBBE"/>
<path d="M57.5358 77.7784H50.3599C48.89 77.7784 47.6985 76.5868 47.6985 75.1169C47.6985 73.647 48.89 72.4554 50.3599 72.4554H57.5358C59.0058 72.4554 60.1973 73.647 60.1973 75.1169C60.1975 76.5866 59.0058 77.7784 57.5358 77.7784Z" fill="#26457D"/>
<path d="M34.4312 15.3741V19.4638C29.155 21.3963 25.3896 26.4625 25.3896 32.4081V45.3277H27.2885C34.0866 45.3277 39.5976 39.8167 39.5976 33.0186V24.7503H45.3777C50.4285 24.7503 54.523 20.6558 54.523 15.6051V15.3741H34.4312Z" fill="#21386B"/>
<path d="M79.155 14.8016L85.2859 8.6707C79.5055 2.89031 70.1338 2.89031 64.3534 8.6707V0C56.1787 0 49.5518 6.6269 49.5518 14.8016C49.5518 22.9764 56.1787 29.6032 64.3534 29.6032H93.9564C93.9564 21.4283 87.3295 14.8016 79.155 14.8016Z" fill="#26457D"/>
<path d="M61.9556 54.4807H56.4063C54.2752 54.4807 52.5474 56.2085 52.5474 58.3397C52.5474 60.4708 54.2752 62.1987 56.4063 62.1987H61.9556C64.0867 62.1987 65.8145 60.4708 65.8145 58.3397C65.8145 56.2085 64.0869 54.4807 61.9556 54.4807Z" fill="#FFCBBE"/>
<path d="M47.8892 87.6081L42.4017 93.0956C43.0148 92.4825 43.8191 92.176 44.6234 92.176C45.4278 92.176 46.2321 92.4825 46.8451 93.0956C48.0735 94.3217 48.0735 96.3129 46.8451 97.539L35.1189 109.265C34.2293 110.155 33.2383 110.922 32.1666 111.554C29.4885 110.185 26.928 108.615 24.5035 106.866C19.129 102.987 14.4343 98.2235 10.6316 92.7913V78.0275C10.6316 76.8429 11.111 75.7712 11.8876 74.9945C12.6643 74.2179 13.7383 73.7362 14.9206 73.7362C17.2921 73.7385 19.2119 75.6583 19.2119 78.0275V83.5219L31.9407 70.7931C32.6944 70.0372 33.6831 69.6615 34.6718 69.6615C35.6605 69.6615 36.6492 70.0395 37.4028 70.7931C38.9055 72.2958 38.9101 74.7272 37.419 76.2368L39.7398 73.9136C41.254 72.3995 43.7707 72.3626 45.2733 73.8906C45.4854 74.1072 45.6698 74.3423 45.8196 74.5935C46.1929 75.2066 46.3796 75.9003 46.3819 76.5963C46.3819 77.585 46.0039 78.5714 45.2503 79.3274L42.4294 82.1483C43.9366 80.6387 46.3819 80.6387 47.8892 82.1483C48.6428 82.9019 49.0208 83.8883 49.0208 84.877C49.0208 85.8658 48.6451 86.8522 47.8892 87.6081Z" fill="#FFDDCE"/>
<path d="M35.9607 99.5367L42.4016 93.0958C43.6293 91.8681 45.6187 91.8681 46.8455 93.0951C47.0246 93.2742 47.1769 93.4701 47.3039 93.677C46.0937 92.9352 44.4901 93.0875 43.4417 94.1359L38.0409 99.5367C37.4666 100.111 36.5353 100.111 35.9607 99.5367Z" fill="#FFCBBE"/>
<path d="M37.9735 71.521C37.3607 71.1485 36.6665 70.9614 35.9719 70.9621C34.9841 70.9621 33.9954 71.3384 33.2413 72.0927L19.8798 85.4542L19.2124 84.7867V83.5215L31.9412 70.7927C32.6955 70.0383 33.684 69.662 34.6718 69.662C35.6603 69.6613 36.649 70.039 37.4024 70.7927C37.6264 71.0169 37.8163 71.2614 37.9735 71.521Z" fill="#FFCBBE"/>
<path d="M45.8198 74.5931C45.2072 74.2216 44.513 74.034 43.8203 74.0351C42.8315 74.0351 41.844 74.4112 41.0897 75.1656L30.3438 85.9114C29.6252 86.6289 28.4613 86.6289 27.7439 85.9114L37.4185 76.2368L39.7407 73.9146C41.2549 72.4004 43.7712 72.3624 45.2731 73.8899C45.4863 74.1077 45.6693 74.343 45.8198 74.5931Z" fill="#FFCBBE"/>
<path d="M33.1189 91.4573L42.4291 82.147C43.1835 81.3927 44.1719 81.0164 45.1597 81.0164C46.1482 81.0157 47.1369 81.3934 47.8903 82.147C48.1143 82.371 48.3042 82.6158 48.4614 82.8753C47.8486 82.5029 47.1544 82.3157 46.4598 82.3164C45.472 82.3164 44.4833 82.6928 43.7292 83.4471L35.719 91.4573C35.0009 92.1754 33.8368 92.1754 33.1189 91.4573Z" fill="#FFCBBE"/>
<path d="M16.4164 74.0059C15.8333 74.2225 15.3101 74.5613 14.8791 74.9946C14.1024 75.7713 13.6231 76.8429 13.6231 78.0275V96.707C12.5721 95.4441 11.5742 94.1373 10.6316 92.7914V78.0275C10.6316 76.8429 11.111 75.7713 11.8876 74.9946C12.6643 74.2179 13.7383 73.7385 14.9229 73.7385C15.4484 73.7385 15.9508 73.833 16.4164 74.0059Z" fill="#FFCBBE"/>
<path d="M104.013 97.1448C98.9864 103.068 92.8121 107.986 85.8335 111.556C83.4067 110.867 81.1872 109.567 79.3942 107.774L67.6679 96.0478C66.4419 94.8217 66.4442 92.8304 67.6703 91.6043C68.2833 90.9913 69.0876 90.6848 69.892 90.6848C70.6963 90.6848 71.5006 90.9913 72.1137 91.6067L66.6262 86.1169C65.8703 85.3633 65.4969 84.3745 65.4946 83.3858C65.4946 82.3994 65.8726 81.4107 66.6262 80.6548C68.1335 79.1475 70.5788 79.1498 72.086 80.6571L69.2651 77.8361C68.5115 77.0802 68.1335 76.0938 68.1358 75.1051C68.1358 74.4091 68.3225 73.7131 68.6958 73.1023C68.8456 72.8511 69.03 72.616 69.2421 72.3994C69.438 72.2012 69.6477 72.0283 69.8712 71.8831H69.8735C71.3808 70.9059 73.4596 71.1065 74.7756 72.4224L77.0987 74.7456C75.6053 73.236 75.6099 70.8045 77.1126 69.3019C77.8662 68.5483 78.8572 68.1703 79.8436 68.1703C80.8323 68.1703 81.821 68.546 82.5747 69.3019L95.3035 82.0307V76.5363C95.3035 74.1671 97.2233 72.245 99.5948 72.245C100.777 72.245 101.851 72.7267 102.625 73.501C103.404 74.28 103.884 75.3517 103.884 76.5363V96.087C103.884 96.4465 103.928 96.8014 104.013 97.1448Z" fill="#FFDDCE"/>
<path d="M95.3043 82.0303L97.1817 83.9077L97.1801 76.5368C97.1801 74.49 98.6143 72.7756 100.532 72.3501C100.229 72.2817 99.9163 72.246 99.5936 72.246C97.2242 72.246 95.3027 74.1674 95.3027 76.5368L95.3043 82.0303Z" fill="#FFCBBE"/>
<path d="M88.3387 110.196C87.5159 110.671 86.6816 111.123 85.8335 111.556C83.4067 110.867 81.1872 109.567 79.3942 107.774L67.6679 96.0478C66.4418 94.8217 66.4441 92.8305 67.6702 91.6044C67.9514 91.3232 68.2695 91.1089 68.6106 90.9568C68.0966 92.1114 68.3109 93.5127 69.2582 94.4599L80.9821 106.186C83.001 108.203 85.5546 109.595 88.3387 110.196Z" fill="#FFCBBE"/>
<path d="M77.8409 68.7299C77.4685 69.3427 77.2813 70.0369 77.282 70.7315C77.282 71.7193 77.6584 72.708 78.4127 73.4621L87.5773 82.6267C88.2952 83.3446 88.2952 84.5089 87.5773 85.2268L77.1126 74.7621C76.3583 74.0078 75.9819 73.0193 75.9819 72.0316C75.9812 71.0431 76.359 70.0544 77.1126 69.301C77.3366 69.0767 77.5812 68.8868 77.8409 68.7299Z" fill="#FFCBBE"/>
<path d="M69.2657 77.8354L81.2616 89.8313C81.9786 89.1143 81.9786 87.9507 81.2632 87.2321L70.5171 76.486C69.7626 75.7315 69.3862 74.7455 69.3862 73.7547C69.3862 73.1094 69.5476 72.4625 69.8718 71.8838C69.6485 72.0288 69.4367 72.2016 69.2429 72.3987C69.0295 72.6155 68.8453 72.8518 68.6953 73.1027C68.3221 73.7139 68.1348 74.4097 68.1348 75.1039C68.1329 76.0933 68.5111 77.0809 69.2657 77.8354Z" fill="#FFCBBE"/>
<path d="M76.9098 96.4001L66.6258 86.1162C65.8715 85.3618 65.4951 84.3733 65.4951 83.3856C65.4944 82.3971 65.8722 81.4084 66.6258 80.655C66.8498 80.4309 67.0946 80.241 67.3541 80.0839C66.9816 80.6967 66.7945 81.3908 66.7952 82.0855C66.7952 83.0733 67.1715 84.062 67.9259 84.8161L76.91 93.8002C77.6277 94.5179 77.6277 95.682 76.9098 96.4001Z" fill="#FFCBBE"/>
</svg>
