<svg width="45" height="45" viewBox="0 0 45 45" fill="none" xmlns="http://www.w3.org/2000/svg">
<path d="M43.5938 9.84375H39.375C39.0012 9.84155 38.642 9.98833 38.3766 10.2516L35.9859 12.6562H33.75V11.25C33.75 8.92002 31.8612 7.03125 29.5312 7.03125H4.21875C1.88877 7.03125 0 8.92002 0 11.25V33.75C0 36.08 1.88877 37.9688 4.21875 37.9688H29.5312C31.8612 37.9688 33.75 36.08 33.75 33.75V32.3438H35.9859L38.3906 34.7484C38.6525 35.0082 39.0061 35.1547 39.375 35.1562H43.5938C44.3704 35.1562 45 34.5267 45 33.75V11.25C45 10.4733 44.3704 9.84375 43.5938 9.84375ZM42.1875 32.3438H39.9516L37.5469 29.9391C37.285 29.6793 36.9314 29.5328 36.5625 29.5312H32.3438C31.5671 29.5312 30.9375 30.1608 30.9375 30.9375V33.75C30.9375 34.5267 30.3079 35.1562 29.5312 35.1562H4.21875C3.44206 35.1562 2.8125 34.5267 2.8125 33.75V11.25C2.8125 10.4733 3.44206 9.84375 4.21875 9.84375H29.5312C30.3079 9.84375 30.9375 10.4733 30.9375 11.25V25.3125H33.75V15.4688H36.5625C36.9363 15.4709 37.2956 15.3242 37.5609 15.0609L39.9516 12.6562H42.1875V32.3438Z" fill="#666666"/>
</svg>
