<svg width="24" height="17" viewBox="0 0 24 17" fill="none" xmlns="http://www.w3.org/2000/svg">
<path d="M23.3784 3.12109C23.1206 2.08984 22.3042 1.27344 21.3159 1.01562C19.4683 0.5 12.1636 0.5 12.1636 0.5C12.1636 0.5 4.81592 0.5 2.96826 1.01562C1.97998 1.27344 1.16357 2.08984 0.905762 3.12109C0.390137 4.92578 0.390137 8.79297 0.390137 8.79297C0.390137 8.79297 0.390137 12.6172 0.905762 14.4648C1.16357 15.4961 1.97998 16.2695 2.96826 16.5273C4.81592 17 12.1636 17 12.1636 17C12.1636 17 19.4683 17 21.3159 16.5273C22.3042 16.2695 23.1206 15.4961 23.3784 14.4648C23.894 12.6172 23.894 8.79297 23.894 8.79297C23.894 8.79297 23.894 4.92578 23.3784 3.12109ZM9.75732 12.2734V5.3125L15.8589 8.79297L9.75732 12.2734Z" fill="#2B89F8"/>
</svg>
