<svg width="26" height="26" viewBox="0 0 26 26" fill="none" xmlns="http://www.w3.org/2000/svg">
<path d="M2.45673 9.46371L14.0316 22.5306C15.9495 24.6959 19.0593 24.6959 20.9771 22.5306C22.895 20.3653 22.895 16.8552 20.9771 14.6899L10.5592 2.92982C9.28035 1.48658 7.20797 1.48658 5.92908 2.92982C4.65022 4.37301 4.65022 6.71375 5.92908 8.15695L16.347 19.9171C16.9861 20.6392 18.0227 20.6392 18.6625 19.9171C19.3015 19.1959 19.3015 18.0256 18.6625 17.3035L9.40228 6.85014L10.56 5.54338L19.8194 15.9976C21.0982 17.4409 21.0982 19.7816 19.8194 21.2248C18.5405 22.668 16.4682 22.668 15.1893 21.2248L4.77133 9.46464C2.85345 7.29938 2.85345 3.78925 4.77133 1.62395C6.68925 -0.541315 9.799 -0.541315 11.7169 1.62395L22.7137 14.0374L22.6739 14.0829C24.6714 16.9823 24.4958 21.1737 22.1348 23.8383C19.7738 26.5029 16.0625 26.7025 13.4934 24.4462L13.4535 24.4917L1.2998 10.7714L2.45673 9.46371Z" fill="#666666"/>
</svg>
