<svg width="25" height="19" viewBox="0 0 25 19" fill="none" xmlns="http://www.w3.org/2000/svg">
<path d="M4.32213 16C4.32213 15.7723 4.12123 15.5714 3.89355 15.5714H1.32213C1.09445 15.5714 0.893555 15.7723 0.893555 16V18.5714C0.893555 18.7991 1.09445 19 1.32213 19H3.89355C4.12123 19 4.32213 18.7991 4.32213 18.5714V16ZM4.32213 10.8571C4.32213 10.6295 4.12123 10.4286 3.89355 10.4286H1.32213C1.09445 10.4286 0.893555 10.6295 0.893555 10.8571V13.4286C0.893555 13.6562 1.09445 13.8571 1.32213 13.8571H3.89355C4.12123 13.8571 4.32213 13.6562 4.32213 13.4286V10.8571ZM4.32213 5.71428C4.32213 5.48661 4.12123 5.28571 3.89355 5.28571H1.32213C1.09445 5.28571 0.893555 5.48661 0.893555 5.71428V8.28571C0.893555 8.51339 1.09445 8.71428 1.32213 8.71428H3.89355C4.12123 8.71428 4.32213 8.51339 4.32213 8.28571V5.71428ZM24.8936 16C24.8936 15.7723 24.6927 15.5714 24.465 15.5714H6.46498C6.23731 15.5714 6.03641 15.7723 6.03641 16V18.5714C6.03641 18.7991 6.23731 19 6.46498 19H24.465C24.6927 19 24.8936 18.7991 24.8936 18.5714V16ZM4.32213 0.571427C4.32213 0.343749 4.12123 0.142856 3.89355 0.142856H1.32213C1.09445 0.142856 0.893555 0.343749 0.893555 0.571427V3.14286C0.893555 3.37053 1.09445 3.57143 1.32213 3.57143H3.89355C4.12123 3.57143 4.32213 3.37053 4.32213 3.14286V0.571427ZM24.8936 10.8571C24.8936 10.6295 24.6927 10.4286 24.465 10.4286H6.46498C6.23731 10.4286 6.03641 10.6295 6.03641 10.8571V13.4286C6.03641 13.6562 6.23731 13.8571 6.46498 13.8571H24.465C24.6927 13.8571 24.8936 13.6562 24.8936 13.4286V10.8571ZM24.8936 5.71428C24.8936 5.48661 24.6927 5.28571 24.465 5.28571H6.46498C6.23731 5.28571 6.03641 5.48661 6.03641 5.71428V8.28571C6.03641 8.51339 6.23731 8.71428 6.46498 8.71428H24.465C24.6927 8.71428 24.8936 8.51339 24.8936 8.28571V5.71428ZM24.8936 0.571427C24.8936 0.343749 24.6927 0.142856 24.465 0.142856H6.46498C6.23731 0.142856 6.03641 0.343749 6.03641 0.571427V3.14286C6.03641 3.37053 6.23731 3.57143 6.46498 3.57143H24.465C24.6927 3.57143 24.8936 3.37053 24.8936 3.14286V0.571427Z" fill="#969BB2"/>
</svg>
