<svg width="30" height="21" viewBox="0 0 30 21" fill="none" xmlns="http://www.w3.org/2000/svg">
<path d="M29.0625 1.875H26.25C26.0008 1.87354 25.7613 1.97139 25.5844 2.14687L23.9906 3.75H22.5V2.8125C22.5 1.25918 21.2408 0 19.6875 0H2.8125C1.25918 0 0 1.25918 0 2.8125V17.8125C0 19.3658 1.25918 20.625 2.8125 20.625H19.6875C21.2408 20.625 22.5 19.3658 22.5 17.8125V16.875H23.9906L25.5938 18.4781C25.7684 18.6513 26.0041 18.7489 26.25 18.75H29.0625C29.5803 18.75 30 18.3303 30 17.8125V2.8125C30 2.29471 29.5803 1.875 29.0625 1.875ZM28.125 16.875H26.6344L25.0312 15.2719C24.8566 15.0987 24.6209 15.0011 24.375 15H21.5625C21.0447 15 20.625 15.4197 20.625 15.9375V17.8125C20.625 18.3303 20.2053 18.75 19.6875 18.75H2.8125C2.29471 18.75 1.875 18.3303 1.875 17.8125V2.8125C1.875 2.29471 2.29471 1.875 2.8125 1.875H19.6875C20.2053 1.875 20.625 2.29471 20.625 2.8125V12.1875H22.5V5.625H24.375C24.6242 5.62646 24.8637 5.52861 25.0406 5.35313L26.6344 3.75H28.125V16.875Z" fill="#303030"/>
</svg>
