<svg width="24" height="40" viewBox="0 0 24 40" fill="none" xmlns="http://www.w3.org/2000/svg">
<path d="M0.000180451 19.6558C0.000180451 19.9709 0.158543 20.3254 0.395852 20.5618L18.8354 38.9179C19.0728 39.1542 19.4289 39.3118 19.7455 39.3118C20.062 39.3118 20.4182 39.1542 20.6556 38.9179L22.6341 36.9483C22.8715 36.712 23.0298 36.3575 23.0298 36.0423C23.0298 35.7272 22.8715 35.3727 22.6341 35.1363L7.08315 19.6558L22.6341 4.17517C22.8715 3.93894 23.0298 3.58435 23.0298 3.26929C23.0298 2.9147 22.8715 2.59964 22.6341 2.36317L20.6556 0.393762C20.4182 0.157291 20.062 -0.000117034 19.7455 -0.000117034C19.4289 -0.000117034 19.0728 0.157291 18.8354 0.393762L0.395852 18.7498C0.158543 18.9861 0.000180451 19.3407 0.000180451 19.6558Z" fill="black"/>
</svg>
