<svg width="260" height="55" viewBox="0 0 260 55" fill="none" xmlns="http://www.w3.org/2000/svg">
<path d="M12.6023 13.8053C5.6089 15.694 -4.66269 23.3465 10.1984 38.8462L8.44997 40.3085C1.23801 33.4846 -8.02827 18.1555 12.6023 11.4292V13.8053Z" fill="#D3D1D1"/>
<path d="M41.4502 13.8053C48.9694 15.694 60.0132 23.3465 44.035 38.8462L45.9147 40.3085C53.6689 33.4846 63.6319 18.1555 41.4502 11.4292V13.8053Z" fill="#D3D1D1"/>
<path d="M15.2251 15.0851C16.9149 15.0851 18.2847 13.9395 18.2847 12.5262C18.2847 11.1129 16.9149 9.96729 15.2251 9.96729C13.5354 9.96729 12.1655 11.1129 12.1655 12.5262C12.1655 13.9395 13.5354 15.0851 15.2251 15.0851Z" fill="#D3D1D1"/>
<path d="M39.2642 15.0851C40.9541 15.0851 42.3239 13.9395 42.3239 12.5262C42.3239 11.1129 40.9541 9.96729 39.2642 9.96729C37.5744 9.96729 36.2046 11.1129 36.2046 12.5262C36.2046 13.9395 37.5744 15.0851 39.2642 15.0851Z" fill="#D3D1D1"/>
<path d="M7.33301 21.8386C7.33301 17.477 8.04623 13.658 9.47269 10.3817C10.8991 7.10545 13.061 4.55609 15.9586 2.73365C18.8783 0.91121 22.5669 0 27.0246 0C31.5268 0 35.2267 0.921456 38.124 2.76436C41.0438 4.60728 43.2058 7.16687 44.6099 10.4431C46.0363 13.7194 46.7496 17.518 46.7496 21.8386C46.7496 26.2001 46.0363 30.0292 44.6099 33.326C43.1835 36.6023 41.0104 39.1619 38.0907 41.0047C35.1932 42.8272 31.5045 43.7384 27.0246 43.7384C22.5447 43.7384 18.8448 42.8169 15.9251 40.974C13.0053 39.131 10.8434 36.5613 9.43923 33.2645C8.03508 29.9678 7.33301 26.1591 7.33301 21.8386ZM17.9645 21.8386C17.9645 23.4971 18.0647 25.1864 18.2654 26.9066C18.4882 28.6061 18.9116 30.1929 19.5358 31.6674C20.1598 33.1212 21.0626 34.2986 22.2437 35.1996C23.4473 36.0801 25.0409 36.5204 27.0246 36.5204C29.0306 36.5204 30.6241 36.0801 31.8054 35.1996C33.009 34.2986 33.9228 33.1212 34.5468 31.6674C35.171 30.1929 35.5832 28.6061 35.7838 26.9066C35.9844 25.1864 36.0848 23.4971 36.0848 21.8386C36.0848 20.1799 35.9844 18.5008 35.7838 16.8012C35.5832 15.0812 35.171 13.5045 34.5468 12.071C33.9228 10.6172 33.009 9.45004 31.8054 8.56954C30.6241 7.66855 29.0306 7.21807 27.0246 7.21807C25.0409 7.21807 23.4473 7.66855 22.2437 8.56954C21.0626 9.45004 20.1598 10.6172 19.5358 12.071C18.9116 13.5045 18.4882 15.0812 18.2654 16.8012C18.0647 18.5008 17.9645 20.1799 17.9645 21.8386Z" fill="#0B569A"/>
<path d="M8.59627 39.7143C9.65819 38.6475 11.5317 38.5162 12.6969 39.4272L20.6046 45.6094L28.8516 50.6828C30.1373 51.4737 30.3253 53.0397 29.2627 54.1073C28.2686 55.1061 26.5449 55.294 25.3615 54.5327L16.8893 49.0823L8.80484 43.0044C7.69293 42.1684 7.60076 40.7145 8.59627 39.7143Z" fill="#4AD295"/>
<path d="M25.0476 54.1057C23.9856 53.0388 24.1711 51.4741 25.4535 50.6809L34.1563 45.2976L41.6168 39.4344C42.7799 38.5201 44.6554 38.6493 45.7182 39.7169C46.7124 40.7157 46.621 42.1675 45.5111 43.0029L37.5664 48.983L28.9541 54.5306C27.7695 55.2936 26.0432 55.1059 25.0476 54.1057Z" fill="#4AD295"/>
<path d="M93.0041 28.3586C92.5988 28.6395 92.0828 28.8734 91.4562 29.0607C90.8297 29.2478 90.0928 29.3415 89.245 29.3415C88.2132 29.3415 87.3102 29.1855 86.5363 28.8734C85.7992 28.5303 85.1175 27.9063 84.4909 27.0016L75.3696 13.5709C74.9643 12.978 74.5404 12.3542 74.0981 11.699C73.6928 11.0438 73.2875 10.3886 72.882 9.7335C72.5135 9.07834 72.145 8.45439 71.7764 7.86162C71.4447 7.23767 71.1499 6.6917 70.8918 6.22373L70.6154 6.27053C70.7999 7.89283 70.9288 9.63991 71.0025 11.5118C71.0763 13.3524 71.113 15.0996 71.113 16.7531V28.9671C70.8551 29.0294 70.4682 29.0919 69.9521 29.1542C69.4731 29.2478 68.9756 29.2946 68.4595 29.2946C67.3539 29.2946 66.5432 29.123 66.0271 28.7799C65.5482 28.4367 65.3086 27.8595 65.3086 27.0484V1.40364C65.6772 1.06047 66.193 0.795289 66.8563 0.608097C67.5566 0.389707 68.2937 0.280518 69.0677 0.280518C70.0996 0.280518 71.0025 0.436499 71.7764 0.748485C72.5503 1.06047 73.2506 1.66884 73.8771 2.57356L83.0536 16.0511C83.4591 16.6439 83.8644 17.2679 84.2697 17.9229C84.6753 18.5781 85.0622 19.2333 85.4307 19.8885C85.8362 20.5435 86.2045 21.1832 86.5363 21.8071C86.9048 22.3999 87.2181 22.9303 87.476 23.3982L87.6971 23.3514C87.4023 20.9804 87.2366 18.6405 87.1996 16.3319C87.1629 13.9921 87.1443 11.7145 87.1443 9.49952V0.608097C87.4393 0.545711 87.8262 0.483303 88.3052 0.420906C88.7843 0.327321 89.3003 0.280518 89.8531 0.280518C90.9587 0.280518 91.7512 0.452116 92.2302 0.795289C92.7463 1.13846 93.0041 1.71563 93.0041 2.52677V28.3586Z" fill="#4AD295"/>
<path d="M115.118 4.72649V28.9205C114.86 29.0141 114.473 29.0921 113.957 29.1545C113.478 29.2481 112.962 29.2949 112.41 29.2949C111.267 29.2949 110.456 29.1233 109.977 28.7801C109.498 28.4057 109.259 27.7974 109.259 26.9551V4.72649H99.474C99.2897 4.5081 99.1239 4.22731 98.9764 3.88414C98.8658 3.54097 98.8105 3.15099 98.8105 2.71422C98.8105 2.02786 98.995 1.51309 99.3633 1.16992C99.7688 0.795547 100.303 0.608356 100.966 0.608356H125.013C125.161 0.795548 125.29 1.06073 125.4 1.4039C125.548 1.74708 125.622 2.12146 125.622 2.52703C125.622 3.99333 124.903 4.72649 123.466 4.72649H115.118ZM134.7 29.0609C133.742 29.0609 132.968 28.8113 132.378 28.3122C131.789 27.8129 131.494 27.1578 131.494 26.3466V3.27579C131.494 2.46464 131.789 1.82508 132.378 1.35711C132.968 0.857933 133.742 0.608356 134.7 0.608356H152.998C153.182 0.795548 153.33 1.06073 153.44 1.4039C153.588 1.74708 153.661 2.12146 153.661 2.52703C153.661 3.21339 153.459 3.74375 153.053 4.11813C152.685 4.49251 152.169 4.67969 151.506 4.67969H137.354V12.448H151.34C151.524 12.6351 151.671 12.9004 151.782 13.2436C151.929 13.5866 152.003 13.9611 152.003 14.3667C152.003 15.0842 151.8 15.6146 151.395 15.9578C151.026 16.3009 150.51 16.4725 149.847 16.4725H137.354V24.9895H153.274C153.422 25.1768 153.569 25.442 153.717 25.7851C153.864 26.1283 153.938 26.5026 153.938 26.9082C153.938 27.6258 153.735 28.1718 153.33 28.5461C152.961 28.8893 152.445 29.0609 151.782 29.0609H134.7ZM167.102 28.9205C166.808 29.0141 166.42 29.0921 165.941 29.1545C165.462 29.2481 164.928 29.2949 164.338 29.2949C163.195 29.2949 162.366 29.1233 161.85 28.7801C161.371 28.4057 161.132 27.7974 161.132 26.9551V2.80782C161.132 2.27745 161.297 1.87188 161.629 1.59109C161.997 1.27911 162.495 1.04512 163.121 0.889143C164.265 0.54597 165.627 0.311975 167.213 0.187192C168.797 0.0623973 170.382 0 171.967 0C176.757 0 180.314 0.826746 182.636 2.48024C184.994 4.10253 186.173 6.39559 186.173 9.35939C186.173 11.4184 185.529 13.1811 184.239 14.6474C182.986 16.0827 181.18 17.1589 178.821 17.8765C179.705 18.8123 180.572 19.7483 181.42 20.6842C182.267 21.589 183.06 22.4625 183.797 23.3049C184.57 24.116 185.252 24.8647 185.842 25.5512C186.468 26.2063 186.966 26.7523 187.336 27.189C187.15 27.9066 186.745 28.4526 186.119 28.8269C185.491 29.2013 184.81 29.3885 184.074 29.3885C183.188 29.3885 182.488 29.2168 181.973 28.8737C181.456 28.4993 180.94 28.0001 180.424 27.3762L173.293 18.6719H167.102V28.9205ZM172.409 14.6474C174.805 14.6474 176.703 14.2107 178.102 13.3371C179.503 12.4635 180.203 11.1376 180.203 9.35939C180.203 7.6123 179.484 6.30199 178.048 5.42844C176.647 4.55489 174.565 4.11813 171.801 4.11813C170.954 4.11813 170.105 4.14934 169.258 4.21172C168.447 4.27412 167.709 4.35212 167.046 4.44571V14.6474H172.409ZM191.225 26.5339C191.225 25.6292 191.539 24.8805 192.165 24.2876C192.829 23.6948 193.733 23.3985 194.874 23.3985C196.054 23.3985 196.956 23.6948 197.582 24.2876C198.21 24.8805 198.522 25.6292 198.522 26.5339C198.522 27.4385 198.21 28.1873 197.582 28.7801C196.956 29.3729 196.054 29.6693 194.874 29.6693C193.733 29.6693 192.829 29.3729 192.165 28.7801C191.539 28.1873 191.225 27.4385 191.225 26.5339ZM210.019 16.1917V28.9673C209.726 29.0297 209.338 29.1076 208.858 29.2013C208.381 29.2949 207.846 29.3417 207.255 29.3417C206.115 29.3417 205.285 29.1701 204.768 28.8269C204.289 28.4526 204.049 27.8442 204.049 27.0018V0.608356C204.345 0.54597 204.733 0.483561 205.21 0.421176C205.727 0.32758 206.261 0.280776 206.813 0.280776C207.883 0.280776 208.675 0.452374 209.19 0.795548C209.743 1.13872 210.019 1.74708 210.019 2.62063V13.1967L224.226 0.374372C225.627 0.405582 226.641 0.670753 227.267 1.16992C227.895 1.63789 228.206 2.19945 228.206 2.85461C228.206 3.38498 228.041 3.88414 227.709 4.35211C227.378 4.78888 226.899 5.27246 226.271 5.80282L215.768 14.6007C218.828 17.2525 221.499 19.6079 223.784 21.667C226.106 23.6948 228.095 25.3484 229.754 26.6274C229.681 27.5011 229.331 28.1873 228.704 28.6865C228.116 29.1545 227.397 29.3885 226.548 29.3885C225.664 29.3885 224.91 29.1857 224.282 28.7801C223.693 28.3745 223.085 27.9066 222.457 27.3762L210.019 16.1917ZM258.175 0.561564C259.132 1.21672 259.612 2.05906 259.612 3.08859C259.612 3.61896 259.464 4.11813 259.17 4.5861C258.911 5.02286 258.562 5.49084 258.12 5.99001L241.37 24.8491H259.281C259.464 25.0676 259.63 25.3484 259.778 25.6916C259.925 26.0347 260 26.4247 260 26.8614C260 27.5789 259.797 28.1249 259.391 28.4993C258.985 28.8424 258.451 29.0141 257.788 29.0141H235.4C234.993 28.7334 234.662 28.3902 234.405 27.9845C234.183 27.5478 234.072 27.0642 234.072 26.5339C234.072 26.0036 234.202 25.5043 234.46 25.0364C234.754 24.5371 235.123 24.0381 235.565 23.5389L252.371 4.72649H235.179C234.993 4.5081 234.827 4.22731 234.681 3.88414C234.533 3.54097 234.46 3.15099 234.46 2.71422C234.46 1.27911 235.214 0.561564 236.726 0.561564H258.175Z" fill="#4AD295"/>
<path d="M74.6774 46.593C74.6774 48.0574 74.2351 49.1916 73.3506 49.9954C72.4791 50.7992 71.2955 51.201 69.7996 51.201C68.8761 51.201 68.0502 51.0249 67.3218 50.6725C66.6064 50.3092 66.0405 49.7862 65.6243 49.1035C65.208 48.4097 65 47.5729 65 46.593C65 45.1285 65.4357 43.9999 66.3072 43.2071C67.1787 42.4143 68.3623 42.0179 69.8581 42.0179C70.8076 42.0179 71.6401 42.1995 72.3555 42.563C73.0839 42.9153 73.6498 43.4328 74.0529 44.1155C74.4692 44.7872 74.6774 45.6129 74.6774 46.593ZM66.7754 46.593C66.7754 47.639 67.0161 48.4703 67.4974 49.0869C67.9917 49.6926 68.772 49.9954 69.8386 49.9954C70.8922 49.9954 71.6662 49.6926 72.1604 49.0869C72.6547 48.4703 72.9019 47.639 72.9019 46.593C72.9019 45.5469 72.6547 44.7266 72.1604 44.132C71.6662 43.5374 70.8857 43.2401 69.8191 43.2401C68.7525 43.2401 67.9786 43.5374 67.4974 44.132C67.0161 44.7266 66.7754 45.5469 66.7754 46.593ZM79.1154 42.183V45.8663H84.793V42.183H86.5101V51.0359H84.793V47.0884H79.1154V51.0359H77.3985V42.183H79.1154ZM97.7817 51.0359H96.0453V43.3887H92.9626C92.7935 45.2496 92.5594 46.7526 92.2602 47.8978C91.961 49.0319 91.5643 49.8577 91.07 50.3753C90.5757 50.8927 89.9514 51.1515 89.197 51.1515C89.0278 51.1515 88.8588 51.1406 88.6898 51.1185C88.5336 51.1075 88.4035 51.08 88.2995 51.0359V49.9458C88.3775 49.9678 88.4621 49.9844 88.5531 49.9954C88.6442 50.0064 88.7352 50.0119 88.8263 50.0119C89.5287 50.0119 90.088 49.3787 90.5042 48.1125C90.9334 46.8462 91.2587 44.8697 91.4798 42.183H97.7817V51.0359ZM105.062 42.0343C106.336 42.0343 107.279 42.2711 107.891 42.7446C108.502 43.218 108.808 43.9724 108.808 45.0074V51.0359H107.559L107.227 49.7807H107.149C106.694 50.2652 106.213 50.623 105.705 50.8543C105.211 51.0855 104.522 51.201 103.637 51.201C102.688 51.201 101.901 50.9919 101.277 50.5735C100.652 50.144 100.34 49.4779 100.34 48.575C100.34 47.6941 100.75 47.0169 101.569 46.5435C102.389 46.059 103.65 45.7946 105.354 45.7507L107.13 45.701V45.1725C107.13 44.4348 106.941 43.9227 106.564 43.6365C106.187 43.3502 105.653 43.2071 104.964 43.2071C104.418 43.2071 103.898 43.2786 103.403 43.4218C102.909 43.5539 102.447 43.7081 102.018 43.8843L101.491 42.7941C101.946 42.585 102.486 42.4088 103.111 42.2656C103.735 42.1115 104.385 42.0343 105.062 42.0343ZM105.569 46.7581C104.268 46.8021 103.364 46.9783 102.857 47.2866C102.363 47.5949 102.116 48.0299 102.116 48.5915C102.116 49.0869 102.291 49.4503 102.642 49.6815C103.007 49.9128 103.468 50.0284 104.028 50.0284C104.912 50.0284 105.647 49.8247 106.232 49.4173C106.818 48.9989 107.11 48.3602 107.11 47.5014V46.7086L105.569 46.7581ZM120.505 38.5164C120.414 39.3422 120.083 39.9698 119.51 40.3992C118.951 40.8176 118.053 41.0269 116.818 41.0269C115.543 41.0269 114.639 40.8176 114.106 40.3992C113.586 39.9808 113.293 39.3532 113.228 38.5164H114.828C114.893 39.111 115.075 39.5129 115.374 39.722C115.686 39.9202 116.181 40.0194 116.857 40.0194C117.455 40.0194 117.923 39.9147 118.262 39.7056C118.613 39.4854 118.821 39.089 118.886 38.5164H120.505ZM113.657 47.584C113.657 47.7161 113.651 47.9143 113.638 48.1786C113.625 48.4428 113.605 48.7071 113.579 48.9713C113.566 49.2356 113.553 49.4449 113.54 49.5989L119.14 42.183H121.247V51.0359H119.647V45.8166C119.647 45.6406 119.647 45.4093 119.647 45.123C119.66 44.8367 119.673 44.5559 119.686 44.2807C119.699 43.9944 119.712 43.7796 119.725 43.6365L114.164 51.0359H112.038V42.183H113.657V47.584ZM126.292 42.183V45.8663H131.969V42.183H133.686V51.0359H131.969V47.0884H126.292V51.0359H124.575V42.183H126.292ZM148.123 43.4053H144.708V51.0359H143.011V43.4053H139.635V42.183H148.123V43.4053ZM154.031 42.0179C154.928 42.0179 155.696 42.183 156.333 42.5133C156.984 42.8437 157.478 43.3117 157.816 43.9173C158.167 44.5119 158.343 45.2111 158.343 46.0148V46.8902H151.182C151.208 47.8923 151.508 48.6576 152.08 49.1861C152.665 49.7036 153.478 49.9623 154.519 49.9623C155.182 49.9623 155.767 49.9128 156.275 49.8137C156.795 49.7036 157.328 49.5494 157.875 49.3512V50.623C157.341 50.8212 156.814 50.9644 156.294 51.0525C155.774 51.1515 155.156 51.201 154.441 51.201C153.452 51.201 152.574 51.0305 151.807 50.6891C151.052 50.3478 150.46 49.8413 150.031 49.1695C149.615 48.4869 149.407 47.6555 149.407 46.6756C149.407 45.7065 149.595 44.8753 149.973 44.1815C150.363 43.4879 150.903 42.9538 151.592 42.5794C152.294 42.205 153.107 42.0179 154.031 42.0179ZM154.011 43.2071C153.192 43.2071 152.541 43.4328 152.06 43.8843C151.592 44.3247 151.312 44.9413 151.221 45.7341H156.548C156.535 44.9854 156.327 44.3797 155.923 43.9173C155.52 43.4438 154.883 43.2071 154.011 43.2071ZM165.98 42.0179C167.267 42.0179 168.302 42.3977 169.082 43.1576C169.876 43.9173 170.273 45.0624 170.273 46.593C170.273 48.1014 169.876 49.2467 169.082 50.0284C168.302 50.8102 167.262 51.201 165.96 51.201C165.154 51.201 164.484 51.0745 163.951 50.8212C163.431 50.5569 163.02 50.2541 162.722 49.9128H162.604C162.63 50.0999 162.656 50.3367 162.684 50.623C162.709 50.9093 162.722 51.157 162.722 51.3663V54.9999H161.005V42.183H162.409L162.644 43.3887H162.722C163.034 43.0034 163.443 42.6786 163.951 42.4143C164.458 42.15 165.135 42.0179 165.98 42.0179ZM165.669 43.2401C164.602 43.2401 163.847 43.4934 163.405 43.9999C162.975 44.5064 162.748 45.2771 162.722 46.3122V46.593C162.722 47.683 162.93 48.5254 163.347 49.12C163.775 49.7036 164.562 49.9954 165.707 49.9954C166.344 49.9954 166.865 49.8467 167.267 49.5494C167.684 49.2522 167.99 48.8502 168.186 48.3437C168.393 47.8262 168.497 47.2371 168.497 46.5764C168.497 45.5634 168.263 44.7541 167.795 44.1485C167.34 43.5429 166.63 43.2401 165.669 43.2401ZM176.97 42.0343C178.244 42.0343 179.187 42.2711 179.798 42.7446C180.409 43.218 180.715 43.9724 180.715 45.0074V51.0359H179.467L179.135 49.7807H179.057C178.602 50.2652 178.12 50.623 177.614 50.8543C177.119 51.0855 176.43 51.201 175.546 51.201C174.596 51.201 173.809 50.9919 173.184 50.5735C172.559 50.144 172.248 49.4779 172.248 48.575C172.248 47.6941 172.658 47.0169 173.478 46.5435C174.296 46.059 175.558 45.7946 177.262 45.7507L179.038 45.701V45.1725C179.038 44.4348 178.849 43.9227 178.472 43.6365C178.094 43.3502 177.561 43.2071 176.872 43.2071C176.326 43.2071 175.805 43.2786 175.311 43.4218C174.817 43.5539 174.355 43.7081 173.926 43.8843L173.398 42.7941C173.854 42.585 174.394 42.4088 175.018 42.2656C175.643 42.1115 176.293 42.0343 176.97 42.0343ZM177.476 46.7581C176.176 46.8021 175.272 46.9783 174.765 47.2866C174.27 47.5949 174.023 48.0299 174.023 48.5915C174.023 49.0869 174.199 49.4503 174.55 49.6815C174.914 49.9128 175.377 50.0284 175.936 50.0284C176.82 50.0284 177.555 49.8247 178.141 49.4173C178.726 48.9989 179.018 48.3602 179.018 47.5014V46.7086L177.476 46.7581ZM192.783 42.183V51.0359H191.067V43.4218H185.662V51.0359H183.945V42.183H192.783ZM197.739 47.584C197.739 47.7161 197.734 47.9143 197.72 48.1786C197.708 48.4428 197.688 48.7071 197.662 48.9713C197.649 49.2356 197.636 49.4449 197.623 49.5989L203.222 42.183H205.33V51.0359H203.73V45.8166C203.73 45.6406 203.73 45.4093 203.73 45.123C203.742 44.8367 203.756 44.5559 203.768 44.2807C203.782 43.9944 203.795 43.7796 203.808 43.6365L198.247 51.0359H196.12V42.183H197.739V47.584ZM209.302 51.0359H207.311L210.296 47.3197C209.894 47.2316 209.503 47.094 209.126 46.9068C208.749 46.7086 208.443 46.4388 208.209 46.0974C207.975 45.7451 207.858 45.3101 207.858 44.7927C207.858 43.9448 208.196 43.3006 208.872 42.8602C209.548 42.4088 210.446 42.183 211.565 42.183H216.247V51.0359H214.531V47.5179H211.995L209.302 51.0359ZM209.516 44.8092C209.516 45.3157 209.737 45.6956 210.18 45.9489C210.634 46.1911 211.266 46.3122 212.072 46.3122H214.531V43.3887H211.741C210.947 43.3887 210.375 43.5209 210.023 43.7851C209.685 44.0494 209.516 44.3908 209.516 44.8092Z" fill="#909090"/>
</svg>
