<svg width="18" height="18" viewBox="0 0 18 18" fill="none" xmlns="http://www.w3.org/2000/svg">
<path d="M16.4215 5.93508H11.3867V0.871172C11.3867 0.39 10.9989 0 10.5205 0H6.76713C6.28872 0 5.90096 0.39 5.90096 0.871172V5.93508H0.866163C0.387757 5.93508 0 6.32508 0 6.80625V10.5816C0 11.0627 0.387757 11.4527 0.866163 11.4527H5.90096V16.5166C5.90096 16.9978 6.28872 17.3878 6.76713 17.3878H10.5207C10.9991 17.3878 11.3869 16.9978 11.3869 16.5166V11.4527H16.4217C16.9001 11.4527 17.2879 11.0627 17.2879 10.5816V6.80625C17.2876 6.32508 16.8999 5.93508 16.4215 5.93508Z" fill="#333333"/>
</svg>
