<svg width="36" height="35" viewBox="0 0 36 35" fill="none" xmlns="http://www.w3.org/2000/svg">
<path d="M35.4375 17.5C35.4375 7.86719 27.6328 0.0625 18 0.0625C8.36719 0.0625 0.5625 7.86719 0.5625 17.5C0.5625 27.1328 8.36719 34.9375 18 34.9375C27.6328 34.9375 35.4375 27.1328 35.4375 17.5ZM3.9375 17.5C3.9375 9.76562 10.1953 3.4375 18 3.4375C25.7344 3.4375 32.0625 9.76563 32.0625 17.5C32.0625 25.3047 25.7344 31.5625 18 31.5625C10.1953 31.5625 3.9375 25.3047 3.9375 17.5ZM9 18.9062C9 19.3984 9.35156 19.75 9.84375 19.75L18 19.75V24.4609C18 25.2344 18.8437 25.6563 19.4062 25.0938L26.3672 18.1328C26.7187 17.7813 26.7187 17.2891 26.3672 16.9375L19.4062 9.97656C18.8437 9.41406 18 9.83594 18 10.5391V15.25L9.84375 15.25C9.35156 15.25 9 15.6719 9 16.0938V18.9062Z" fill="#B4ECFF"/>
</svg>
