<svg width="173" height="155" viewBox="0 0 173 155" fill="none" xmlns="http://www.w3.org/2000/svg">
<circle cx="86.5" cy="77.5" r="77.5" fill="#2B89F8"/>
<rect x="0.289551" y="22" width="172.421" height="112" rx="5" fill="#F2F3F8"/>
<path d="M3.23682 32.3158H169.763V126.053C169.763 128.814 167.525 131.053 164.763 131.053H8.23682C5.4754 131.053 3.23682 128.814 3.23682 126.053V32.3158Z" fill="white"/>
<circle cx="9.86849" cy="27.1579" r="2.21053" fill="#2B89F8"/>
<circle cx="15.7633" cy="27.1579" r="2.21053" fill="#2B89F8"/>
<circle cx="21.658" cy="27.1579" r="2.21053" fill="#2B89F8"/>
<circle cx="22.3948" cy="55.8947" r="14.7368" fill="#F2F3F8"/>
<rect x="48.9211" y="41.1578" width="47.1579" height="4.42105" rx="2.21053" fill="#8E92AA"/>
<rect x="48.9211" y="110.421" width="47.1579" height="4.42105" rx="2.21053" fill="#8E92AA"/>
<rect x="48.9211" y="119.263" width="28" height="4.42105" rx="2.21053" fill="#8E92AA"/>
<rect x="65.1316" y="55.8948" width="47.1579" height="2.94737" rx="1.47368" fill="#F2F3F8"/>
<rect x="65.1316" y="61.7894" width="22.1053" height="2.94737" rx="1.47368" fill="#F2F3F8"/>
<rect x="48.9211" y="55.8948" width="8.8421" height="8.8421" rx="1" fill="#2B89F8"/>
<rect x="65.1316" y="73.579" width="47.1579" height="2.94737" rx="1.47368" fill="#F2F3F8"/>
<rect x="65.1316" y="79.4736" width="22.1053" height="2.94737" rx="1.47368" fill="#F2F3F8"/>
<rect x="48.9211" y="73.579" width="8.8421" height="8.8421" rx="1" fill="#2B89F8"/>
<rect x="65.1316" y="91.2632" width="47.1579" height="2.94737" rx="1.47368" fill="#F2F3F8"/>
<rect x="65.1316" y="97.1578" width="22.1053" height="2.94737" rx="1.47368" fill="#F2F3F8"/>
<rect x="48.9211" y="91.2632" width="8.8421" height="8.8421" rx="1" fill="#2B89F8"/>
<rect x="110.816" y="110.421" width="42.7368" height="8.8421" rx="1" fill="#2B89F8"/>
<circle cx="125.687" cy="114.976" r="1.60766" fill="white"/>
<circle cx="129.974" cy="114.976" r="1.60766" fill="white"/>
<circle cx="134.261" cy="114.976" r="1.60766" fill="white"/>
<path d="M129.974 59.579L133.375 63.2632L138.816 55.8948" stroke="#78C2A4" stroke-width="1.5"/>
<path d="M129.974 74.3158L133.375 78L138.816 70.6316" stroke="#78C2A4" stroke-width="1.5"/>
<path d="M129.974 89.0526L133.375 92.7368L138.816 85.3684" stroke="#78C2A4" stroke-width="1.5"/>
</svg>
