<svg width="44" height="44" viewBox="0 0 44 44" fill="none" xmlns="http://www.w3.org/2000/svg">
<g clip-path="url(#clip0)">
<path d="M43.4097 17.0328L43.4096 17.0322C43.1831 16.3318 42.5623 15.8346 41.8272 15.7684L41.8269 15.7684L29.1273 14.6152L28.83 14.5882L28.7127 14.3137L23.6914 2.5608C23.3996 1.88214 22.7365 1.44434 22.0002 1.44434C21.2644 1.44434 20.6014 1.88172 20.3095 2.56194C20.3094 2.5621 20.3093 2.56227 20.3092 2.56243L15.2877 14.3138L15.1704 14.5882L14.8732 14.6152L2.17236 15.7683C2.17218 15.7683 2.17201 15.7683 2.17183 15.7683C1.4379 15.8364 0.818603 16.332 0.590634 17.033C0.362566 17.7344 0.573428 18.5022 1.1277 18.9859L1.12865 18.9867L10.728 27.4054L10.9519 27.6017L10.886 27.892L8.05543 40.3605L43.4097 17.0328ZM43.4097 17.0328C43.6376 17.735 43.4258 18.5019 42.8702 18.988L42.8698 18.9884L33.2704 27.4054L33.0466 27.6017L33.1125 27.892L35.9431 40.3608L43.4097 17.0328ZM10.7889 42.3478L10.7891 42.3476L21.7437 35.8004L22.0003 35.6471L22.2568 35.8005L33.2074 42.3477L33.2086 42.3484C33.8375 42.7268 34.6307 42.6927 35.2278 42.2599L35.2279 42.2598C35.8264 41.8261 36.106 41.0811 35.9431 40.361L10.7889 42.3478ZM10.7889 42.3478C10.496 42.523 10.1721 42.6105 9.84681 42.6105C9.46901 42.6105 9.09319 42.493 8.76996 42.2594M10.7889 42.3478L8.76996 42.2594M8.76996 42.2594C8.17265 41.8276 7.89232 41.0834 8.05532 40.361L8.76996 42.2594Z" fill="white" stroke="#FFC107"/>
</g>
<defs>
<clipPath id="clip0">
<rect width="44" height="44" fill="white"/>
</clipPath>
</defs>
</svg>
