<svg width="15" height="15" viewBox="0 0 15 15" fill="none" xmlns="http://www.w3.org/2000/svg">
<path d="M14.8571 6.0625C14.8571 5.79464 14.5714 5.6875 14.3571 5.65178L9.875 5L7.86607 0.937499C7.78571 0.767857 7.63393 0.571428 7.42857 0.571428C7.22321 0.571428 7.07143 0.767857 6.99107 0.937499L4.98214 5L0.5 5.65178C0.276786 5.6875 0 5.79464 0 6.0625C0 6.22321 0.116071 6.375 0.223214 6.49107L3.47321 9.65179L2.70536 14.1161C2.69643 14.1786 2.6875 14.2321 2.6875 14.2946C2.6875 14.5268 2.80357 14.7411 3.0625 14.7411C3.1875 14.7411 3.30357 14.6964 3.41964 14.6339L7.42857 12.5268L11.4375 14.6339C11.5446 14.6964 11.6696 14.7411 11.7946 14.7411C12.0536 14.7411 12.1607 14.5268 12.1607 14.2946C12.1607 14.2321 12.1607 14.1786 12.1518 14.1161L11.3839 9.65179L14.625 6.49107C14.7411 6.375 14.8571 6.22321 14.8571 6.0625Z" fill="#FFDE66"/>
</svg>
