<svg width="44" height="44" viewBox="0 0 44 44" fill="none" xmlns="http://www.w3.org/2000/svg">
<path d="M43.8853 16.8784C43.5973 15.9875 42.807 15.3547 41.8721 15.2704L29.1725 14.1173L24.1507 2.36335C23.7805 1.50194 22.9372 0.944336 22.0002 0.944336C21.0633 0.944336 20.22 1.50194 19.8497 2.36536L14.828 14.1173L2.12633 15.2704C1.19308 15.3567 0.404851 15.9875 0.11514 16.8784C-0.174571 17.7694 0.0929839 18.7466 0.798965 19.3626L10.3984 27.7814L7.56772 40.2503C7.3606 41.1671 7.71644 42.1148 8.47714 42.6647C8.88603 42.9601 9.3644 43.1105 9.84681 43.1105C10.2627 43.1105 10.6753 42.9984 11.0456 42.7768L22.0002 36.2296L32.9508 42.7768C33.7521 43.2589 34.7623 43.2149 35.5213 42.6647C36.2823 42.1131 36.6378 41.1651 36.4307 40.2503L33.6001 27.7814L43.1995 19.3643C43.9055 18.7466 44.175 17.7711 43.8853 16.8784Z" fill="#FFC107"/>
</svg>
