<svg width="23" height="23" viewBox="0 0 23 23" fill="none" xmlns="http://www.w3.org/2000/svg">
<path d="M5.53502 14.3171C6.19751 13.6548 6.95156 13.1082 7.7716 12.6957C8.17663 12.4968 8.45346 12.0311 8.44854 11.6575L8.74708 9.52277C10.911 8.86547 12.6487 8.86549 14.7915 9.52325L15.0846 11.5993C15.0842 12.0622 15.3389 12.4831 15.7553 12.7006C16.5793 13.1157 17.3332 13.662 17.9957 14.3248C18.4743 14.8036 19.2532 14.8037 19.732 14.3251L21.7191 12.3387C22.1979 11.8601 22.198 11.0812 21.7194 10.6024C16.2336 5.11462 7.306 5.11307 1.8182 10.5989C1.33945 11.0775 1.33931 11.8564 1.8179 12.3352L3.79882 14.3168C4.27741 14.7955 5.0563 14.7956 5.53502 14.3171Z" fill="white"/>
</svg>
