<svg width="118" height="118" viewBox="0 0 118 118" fill="none" xmlns="http://www.w3.org/2000/svg">
<path d="M118 59C118 73.5449 112.736 86.8591 104.013 97.1449C99.5971 102.349 92.0697 96.448 86.1144 99.8681C85.2916 100.343 86.6816 111.123 85.8335 111.556C82.8558 113.082 79.7284 114.359 76.4834 115.366C70.959 117.078 64.2017 112.437 58.115 112.437C49.6775 112.437 45.8571 111.339 38.5973 108.145C37.5441 107.682 34.9176 108.566 33.8967 108.043C31.2186 106.674 29.7812 103.457 27.3566 101.707C23.3142 98.7897 21.3426 97.2562 18.1598 93.4304C17.1088 92.1675 11.5739 94.1375 10.6313 92.7916C3.9318 83.22 0 71.5698 0 59C0 26.4163 26.4163 0 59 0C91.5837 0 118 26.4163 118 59Z" fill="#2B89F8" fill-opacity="0.9"/>
<path d="M76.4834 115.366C70.9591 117.078 65.0867 118 59.0001 118C49.3411 118 40.224 115.678 32.1758 111.561C29.4932 110.189 28.8402 106.706 26.4146 104.955C29.9292 99.2691 34.3074 97.3936 41.4842 97.3936H56.6283C66.9812 97.3938 75.4901 105.276 76.4834 115.366Z" fill="#DD5790"/>
<path d="M54.7595 97.3938C45.2227 97.3938 37.2462 104.084 35.278 113.033C34.2238 112.571 33.1862 112.078 32.1657 111.556C29.4868 110.185 29.7896 104.999 27.3662 103.25C30.8809 97.5639 34.3077 97.3938 41.4845 97.3938H54.7595Z" fill="#9D549B"/>
<path d="M57.996 75.1169V98.7568C57.996 101.251 56.9847 103.508 55.3505 105.139C53.719 106.773 51.462 107.785 48.9681 107.785C47.2115 107.785 45.5719 107.284 44.188 106.414C41.6383 104.82 39.9402 101.985 39.9402 98.7568V75.1169H57.996Z" fill="#FFDDCE"/>
<path d="M57.996 75.1169V97.6469C56.7665 97.82 55.5127 97.9078 54.2352 97.9078C48.9893 97.9078 44.0893 96.4173 39.9402 93.8356V75.1169H57.996Z" fill="#FFCBBE"/>
<path d="M44.188 84.2937V106.414C41.6383 104.819 39.9402 101.985 39.9402 98.7565V84.2937H44.188Z" fill="#FFCBBE"/>
<path d="M43.2904 11.9244C33.5806 11.9244 25.4545 18.6822 23.3441 27.7498L18.5342 22.9397C15.1066 26.3672 14.4198 31.4942 16.4673 35.6065H10.6653C10.6653 41.6754 15.5851 46.5952 21.6538 46.5952C22.0428 46.5952 22.4268 46.5743 22.8055 46.5349V48.4782H56.3497V11.9244H43.2904Z" fill="#21386B"/>
<path d="M23.9399 49.8248C19.6486 54.1162 19.6486 61.0738 23.9399 65.3651C28.2313 69.6565 35.1889 69.6565 39.4802 65.3651" fill="#26457D"/>
<path d="M83.0771 59.3922H23.088C19.2041 59.3922 16.0557 56.2438 16.0557 52.3599C16.0557 48.4761 19.2041 45.3276 23.088 45.3276H83.0771C86.961 45.3276 90.1094 48.4761 90.1094 52.3599C90.1094 56.2438 86.961 59.3922 83.0771 59.3922Z" fill="#FFCBBE"/>
<path d="M23.0879 55.364C21.4313 55.364 20.0837 54.0162 20.0837 52.3599C20.0837 50.7033 21.4315 49.3557 23.0879 49.3557H83.0771C84.7337 49.3557 86.0812 50.7035 86.0812 52.3599C86.0812 54.0165 84.7335 55.3643 83.0771 55.3643H23.0879V55.364Z" fill="#EAAC9D"/>
<path d="M54.2352 93.8359C39.2547 93.8359 27.1108 81.692 27.1108 66.7115V47.4805C27.1108 32.5003 39.2547 20.3562 54.2352 20.3562H69.3518C75.9833 20.3562 81.3595 25.7321 81.3595 32.3639V66.7115C81.3595 81.6918 69.2154 93.8359 54.2352 93.8359Z" fill="#FFDDCE"/>
<path d="M60.9287 93.0028C58.7881 93.5464 56.5468 93.8343 54.2365 93.8343C39.2554 93.8343 27.1108 81.6927 27.1108 66.7116V47.4808C27.1108 32.4997 39.2552 20.3551 54.2365 20.3551H67.618C52.6396 20.3551 40.4953 32.4994 40.4953 47.4808V66.7116C40.4953 79.3853 49.1842 90.0249 60.9287 93.0028Z" fill="#FFCBBE"/>
<path d="M47.2097 52.5036C45.3074 52.5036 43.7654 50.9615 43.7654 49.0592V41.8836C43.7654 39.9813 45.3074 38.4392 47.2097 38.4392C49.112 38.4392 50.6541 39.9813 50.6541 41.8836V49.0592C50.6541 50.9613 49.112 52.5036 47.2097 52.5036Z" fill="#21386B"/>
<path d="M68.45 52.5036C66.5477 52.5036 65.0056 50.9615 65.0056 49.0592V41.8836C65.0056 39.9813 66.5477 38.4392 68.45 38.4392C70.3523 38.4392 71.8943 39.9813 71.8943 41.8836V49.0592C71.8943 50.9613 70.3523 52.5036 68.45 52.5036Z" fill="#21386B"/>
<path d="M61.2742 59.5356H54.3855V23.8006C54.3855 21.8983 55.9276 20.3562 57.8298 20.3562C59.7321 20.3562 61.2742 21.8983 61.2742 23.8006V59.5356Z" fill="#FFCBBE"/>
<path d="M57.5358 77.7784H50.3599C48.89 77.7784 47.6985 76.5868 47.6985 75.1169C47.6985 73.647 48.89 72.4554 50.3599 72.4554H57.5358C59.0058 72.4554 60.1973 73.647 60.1973 75.1169C60.1975 76.5866 59.0058 77.7784 57.5358 77.7784Z" fill="#26457D"/>
<path d="M34.4312 15.3741V19.4638C29.155 21.3963 25.3896 26.4625 25.3896 32.4081V45.3277H27.2885C34.0866 45.3277 39.5976 39.8167 39.5976 33.0186V24.7503H45.3777C50.4285 24.7503 54.523 20.6558 54.523 15.6051V15.3741H34.4312Z" fill="#21386B"/>
<path d="M79.155 14.8016L85.2859 8.6707C79.5055 2.89031 70.1338 2.89031 64.3534 8.6707V0C56.1787 0 49.5518 6.6269 49.5518 14.8016C49.5518 22.9764 56.1787 29.6032 64.3534 29.6032H93.9564C93.9564 21.4283 87.3295 14.8016 79.155 14.8016Z" fill="#26457D"/>
<path d="M61.9556 54.4807H56.4063C54.2752 54.4807 52.5474 56.2085 52.5474 58.3397C52.5474 60.4708 54.2752 62.1987 56.4063 62.1987H61.9556C64.0867 62.1987 65.8145 60.4708 65.8145 58.3397C65.8145 56.2085 64.0869 54.4807 61.9556 54.4807Z" fill="#FFCBBE"/>
<path d="M47.8892 87.6081L42.4017 93.0956C43.0148 92.4825 43.8191 92.176 44.6234 92.176C45.4278 92.176 46.2321 92.4825 46.8451 93.0956C48.0735 94.3217 48.0735 96.3129 46.8451 97.539L35.1189 109.265C34.2293 110.155 33.2383 110.922 32.1666 111.554C29.4885 110.185 26.928 108.615 24.5035 106.866C19.129 102.987 14.4343 98.2235 10.6316 92.7913V78.0275C10.6316 76.8429 11.111 75.7712 11.8876 74.9945C12.6643 74.2179 13.7383 73.7362 14.9206 73.7362C17.2921 73.7385 19.2119 75.6583 19.2119 78.0275V83.5219L31.9407 70.7931C32.6944 70.0372 33.6831 69.6615 34.6718 69.6615C35.6605 69.6615 36.6492 70.0395 37.4028 70.7931C38.9055 72.2958 38.9101 74.7272 37.419 76.2368L39.7398 73.9136C41.254 72.3995 43.7707 72.3626 45.2733 73.8906C45.4854 74.1072 45.6698 74.3423 45.8196 74.5935C46.1929 75.2066 46.3796 75.9003 46.3819 76.5963C46.3819 77.585 46.0039 78.5714 45.2503 79.3274L42.4294 82.1483C43.9366 80.6387 46.3819 80.6387 47.8892 82.1483C48.6428 82.9019 49.0208 83.8883 49.0208 84.877C49.0208 85.8658 48.6451 86.8522 47.8892 87.6081Z" fill="#FFDDCE"/>
<path d="M35.9607 99.5367L42.4016 93.0958C43.6293 91.8681 45.6187 91.8681 46.8455 93.0951C47.0246 93.2742 47.1769 93.4701 47.3039 93.677C46.0937 92.9352 44.4901 93.0875 43.4417 94.1359L38.0409 99.5367C37.4666 100.111 36.5353 100.111 35.9607 99.5367Z" fill="#FFCBBE"/>
<path d="M37.9735 71.521C37.3607 71.1485 36.6665 70.9614 35.9719 70.9621C34.9841 70.9621 33.9954 71.3384 33.2413 72.0927L19.8798 85.4542L19.2124 84.7867V83.5215L31.9412 70.7927C32.6955 70.0383 33.684 69.662 34.6718 69.662C35.6603 69.6613 36.649 70.039 37.4024 70.7927C37.6264 71.0169 37.8163 71.2614 37.9735 71.521Z" fill="#FFCBBE"/>
<path d="M45.8198 74.5931C45.2072 74.2216 44.513 74.034 43.8203 74.0351C42.8315 74.0351 41.844 74.4112 41.0897 75.1656L30.3438 85.9114C29.6252 86.6289 28.4613 86.6289 27.7439 85.9114L37.4185 76.2368L39.7407 73.9146C41.2549 72.4004 43.7712 72.3624 45.2731 73.8899C45.4863 74.1077 45.6693 74.343 45.8198 74.5931Z" fill="#FFCBBE"/>
<path d="M33.1189 91.4573L42.4291 82.147C43.1835 81.3927 44.1719 81.0164 45.1597 81.0164C46.1482 81.0157 47.1369 81.3934 47.8903 82.147C48.1143 82.371 48.3042 82.6158 48.4614 82.8753C47.8486 82.5029 47.1544 82.3157 46.4598 82.3164C45.472 82.3164 44.4833 82.6928 43.7292 83.4471L35.719 91.4573C35.0009 92.1754 33.8368 92.1754 33.1189 91.4573Z" fill="#FFCBBE"/>
<path d="M16.4164 74.0059C15.8333 74.2225 15.3101 74.5613 14.8791 74.9946C14.1024 75.7713 13.6231 76.8429 13.6231 78.0275V96.707C12.5721 95.4441 11.5742 94.1373 10.6316 92.7914V78.0275C10.6316 76.8429 11.111 75.7713 11.8876 74.9946C12.6643 74.2179 13.7383 73.7385 14.9229 73.7385C15.4484 73.7385 15.9508 73.833 16.4164 74.0059Z" fill="#FFCBBE"/>
<path d="M104.013 97.1448C98.9864 103.068 92.8121 107.986 85.8335 111.556C83.4067 110.867 81.1872 109.567 79.3942 107.774L67.6679 96.0478C66.4419 94.8217 66.4442 92.8304 67.6703 91.6043C68.2833 90.9913 69.0876 90.6848 69.892 90.6848C70.6963 90.6848 71.5006 90.9913 72.1137 91.6067L66.6262 86.1169C65.8703 85.3633 65.4969 84.3745 65.4946 83.3858C65.4946 82.3994 65.8726 81.4107 66.6262 80.6548C68.1335 79.1475 70.5788 79.1498 72.086 80.6571L69.2651 77.8361C68.5115 77.0802 68.1335 76.0938 68.1358 75.1051C68.1358 74.4091 68.3225 73.7131 68.6958 73.1023C68.8456 72.8511 69.03 72.616 69.2421 72.3994C69.438 72.2012 69.6477 72.0283 69.8712 71.8831H69.8735C71.3808 70.9059 73.4596 71.1065 74.7756 72.4224L77.0987 74.7456C75.6053 73.236 75.6099 70.8045 77.1126 69.3019C77.8662 68.5483 78.8572 68.1703 79.8436 68.1703C80.8323 68.1703 81.821 68.546 82.5747 69.3019L95.3035 82.0307V76.5363C95.3035 74.1671 97.2233 72.245 99.5948 72.245C100.777 72.245 101.851 72.7267 102.625 73.501C103.404 74.28 103.884 75.3517 103.884 76.5363V96.087C103.884 96.4465 103.928 96.8014 104.013 97.1448Z" fill="#FFDDCE"/>
<path d="M95.3043 82.0303L97.1817 83.9077L97.1801 76.5368C97.1801 74.49 98.6143 72.7756 100.532 72.3501C100.229 72.2817 99.9163 72.246 99.5936 72.246C97.2242 72.246 95.3027 74.1674 95.3027 76.5368L95.3043 82.0303Z" fill="#FFCBBE"/>
<path d="M88.3387 110.196C87.5159 110.671 86.6816 111.123 85.8335 111.556C83.4067 110.867 81.1872 109.567 79.3942 107.774L67.6679 96.0478C66.4418 94.8217 66.4441 92.8305 67.6702 91.6044C67.9514 91.3232 68.2695 91.1089 68.6106 90.9568C68.0966 92.1114 68.3109 93.5127 69.2582 94.4599L80.9821 106.186C83.001 108.203 85.5546 109.595 88.3387 110.196Z" fill="#FFCBBE"/>
<path d="M77.8409 68.7299C77.4685 69.3427 77.2813 70.0369 77.282 70.7315C77.282 71.7193 77.6584 72.708 78.4127 73.4621L87.5773 82.6267C88.2952 83.3446 88.2952 84.5089 87.5773 85.2268L77.1126 74.7621C76.3583 74.0078 75.9819 73.0193 75.9819 72.0316C75.9812 71.0431 76.359 70.0544 77.1126 69.301C77.3366 69.0767 77.5812 68.8868 77.8409 68.7299Z" fill="#FFCBBE"/>
<path d="M69.2657 77.8354L81.2616 89.8313C81.9786 89.1143 81.9786 87.9507 81.2632 87.2321L70.5171 76.486C69.7626 75.7315 69.3862 74.7455 69.3862 73.7547C69.3862 73.1094 69.5476 72.4625 69.8718 71.8838C69.6485 72.0288 69.4367 72.2016 69.2429 72.3987C69.0295 72.6155 68.8453 72.8518 68.6953 73.1027C68.3221 73.7139 68.1348 74.4097 68.1348 75.1039C68.1329 76.0933 68.5111 77.0809 69.2657 77.8354Z" fill="#FFCBBE"/>
<path d="M76.9098 96.4001L66.6258 86.1162C65.8715 85.3618 65.4951 84.3733 65.4951 83.3856C65.4944 82.3971 65.8722 81.4084 66.6258 80.655C66.8498 80.4309 67.0946 80.241 67.3541 80.0839C66.9816 80.6967 66.7945 81.3908 66.7952 82.0855C66.7952 83.0733 67.1715 84.062 67.9259 84.8161L76.91 93.8002C77.6277 94.5179 77.6277 95.682 76.9098 96.4001Z" fill="#FFCBBE"/>
<path d="M118 59C118 79.8551 107.179 98.1843 90.8439 108.675C89.0831 109.807 87.2601 109.694 85.3772 110.637C82.5193 112.065 79.5279 113.273 76.4304 114.227C76.3313 114.257 76.2345 114.287 76.1354 114.317C75.2872 114.575 74.4299 114.815 73.5656 115.036C72.9918 115.181 72.4156 115.317 71.8371 115.446C69.1775 116.036 66.4511 116.447 63.6693 116.666C62.1275 116.785 60.5718 116.848 59 116.848C58.1795 116.848 57.3637 116.832 56.5524 116.797C56.0869 116.779 55.6236 116.755 55.1627 116.726C54.1256 116.659 53.0954 116.564 52.0744 116.444C51.8278 116.417 51.5835 116.387 51.3392 116.354C41.4936 115.078 34.8243 109.392 27.122 103.879C23.8401 101.533 18.3937 101.992 15.6604 99.0347V99.0324C5.94148 88.5138 0 74.4506 0 59C0 26.4163 26.4163 0 59 0C91.5837 0 118 26.4163 118 59Z" fill="#2B89F8" fill-opacity="0.9"/>
<path d="M90.8439 108.675C89.0831 109.807 87.2601 110.846 85.3772 111.789C82.5194 113.218 79.5279 114.425 76.4304 115.38C76.3313 115.409 76.2345 115.439 76.1354 115.469C75.2873 115.728 74.4299 115.967 73.5657 116.188C72.9918 116.334 72.4156 116.47 71.8371 116.599C69.1775 117.189 66.4511 117.599 63.6693 117.818C62.1275 117.938 60.5718 118 59 118C58.1796 118 57.3637 117.984 56.5525 117.949C56.0869 117.931 55.6237 117.908 55.1627 117.878C54.1256 117.811 53.0954 117.716 52.0745 117.597C51.3277 116.705 50.6455 115.746 50.0371 114.73L59.9196 108.804C61.4061 111.279 63.7661 113.031 66.5663 113.732C69.3688 114.432 72.275 114.001 74.7526 112.517C79.8644 109.45 81.5307 102.796 78.4654 97.6841L62.0791 70.3575L71.9616 64.4298L88.3479 91.7588C91.5169 97.0434 92.2382 103.126 90.8439 108.675Z" fill="#DD5790"/>
<path d="M79.8109 112.517C77.3656 113.983 74.5032 114.421 71.7376 113.757C72.7862 113.501 73.8003 113.087 74.7521 112.517C79.8662 109.45 81.5302 102.796 78.465 97.6844L62.0786 70.3577L71.9634 64.4301L73.3001 66.661L67.1374 70.3577L83.5237 97.6844C86.589 102.796 84.9227 109.45 79.8109 112.517Z" fill="#9D549B"/>
<path d="M63.6694 110.203V117.818C62.1275 117.938 60.5719 118 59.0001 118C41.867 118 26.4417 110.696 15.6604 99.0345C19.0759 94.4413 24.5427 91.4659 30.7077 91.4659H44.9299C55.2803 91.4659 63.6694 99.855 63.6694 110.203Z" fill="#DD5790"/>
<path d="M43.1761 91.4659C33.9159 91.4659 26.2228 98.1818 24.7087 107.013C21.4268 104.667 18.3938 101.991 15.6604 99.0345C15.6604 99.0345 15.6581 99.0345 15.6604 99.0322C19.076 94.4413 24.5427 91.4659 30.7078 91.4659H43.1761Z" fill="#9D549B"/>
<path d="M46.2138 70.5443V92.7451C46.2138 95.0872 45.2641 97.2068 43.7294 98.739C42.1972 100.274 40.0776 101.223 37.7356 101.223C36.0859 101.223 34.5461 100.753 33.2465 99.9362C30.8519 98.4391 29.2573 95.777 29.2573 92.7451V70.5443H46.2138Z" fill="#FFDDCE"/>
<path d="M46.2138 70.5443V91.703C45.0589 91.8655 43.8817 91.948 42.6819 91.948C37.7554 91.948 33.1536 90.5483 29.2568 88.1236V70.5443H46.2138Z" fill="#FFCBBE"/>
<path d="M33.246 79.1627V99.9365C30.8514 98.4394 29.2568 95.7772 29.2568 92.7454V79.163H33.246V79.1627Z" fill="#FFCBBE"/>
<path d="M35.5389 11.1985C26.4201 11.1985 18.7886 17.5449 16.8066 26.0605L12.2894 21.5433C9.07067 24.762 8.42559 29.5772 10.3484 33.4392H4.89941C4.89941 39.1387 9.51962 43.7589 15.2191 43.7589C15.5844 43.7589 15.9451 43.7393 16.3005 43.7022V45.527H47.8028V11.1985H35.5389Z" fill="#21386B"/>
<path d="M17.3662 46.792C13.336 50.8222 13.336 57.3562 17.3662 61.3864C21.3964 65.4167 27.9304 65.4167 31.9606 61.3864" fill="#26457D"/>
<path d="M72.9036 55.7769H16.566C12.9186 55.7769 9.96191 52.8202 9.96191 49.1728C9.96191 45.5254 12.9186 42.5687 16.566 42.5687H72.9036C76.551 42.5687 79.5077 45.5254 79.5077 49.1728C79.5079 52.8202 76.551 55.7769 72.9036 55.7769Z" fill="#FFCBBE"/>
<path d="M16.566 51.9941C15.0104 51.9941 13.7446 50.7284 13.7446 49.1727C13.7446 47.6171 15.0104 46.3513 16.566 46.3513H72.9036C74.4593 46.3513 75.725 47.6171 75.725 49.1727C75.725 50.7284 74.4593 51.9941 72.9036 51.9941H16.566Z" fill="#EAAC9D"/>
<path d="M45.8172 88.1239C31.7487 88.1239 20.344 76.7192 20.344 62.6506V44.5902C20.344 30.5217 31.7487 19.1169 45.8172 19.1169H60.0139C66.2418 19.1169 71.2905 24.1656 71.2905 30.3935V62.6506C71.2905 76.7192 59.8857 88.1239 45.8172 88.1239Z" fill="#FFDDCE"/>
<path d="M52.1033 87.3416C50.0929 87.8523 47.988 88.1225 45.8184 88.1225C31.749 88.1225 20.344 76.72 20.344 62.6506V44.5904C20.344 30.5209 31.7492 19.116 45.8184 19.116H58.3854C44.3187 19.116 32.9135 30.5212 32.9135 44.5904V62.6506C32.9138 74.5529 41.0737 84.5449 52.1033 87.3416Z" fill="#FFCBBE"/>
<path d="M53.5801 55.9118H47.1106V22.3518C47.1106 20.5655 48.5589 19.1172 50.3452 19.1172C52.1316 19.1172 53.5799 20.5655 53.5799 22.3518V55.9118H53.5801Z" fill="#FFCBBE"/>
<path d="M27.2187 14.4382V18.279C22.2636 20.0937 18.7275 24.8515 18.7275 30.4353V42.5686H20.5109C26.8951 42.5686 32.0708 37.3932 32.0708 31.0087V23.2438H37.4992C42.2425 23.2438 46.0879 19.3984 46.0879 14.6551V14.4382H27.2187Z" fill="#21386B"/>
<path d="M69.2202 13.9005L74.978 8.14269C69.5495 2.71423 60.7482 2.71423 55.3197 8.14269V0C47.6425 0 41.4192 6.22358 41.4192 13.9005C41.4192 21.5774 47.6428 27.801 55.3197 27.801H83.1209C83.1207 20.1241 76.8973 13.9005 69.2202 13.9005Z" fill="#26457D"/>
<path d="M54.22 51.1646H49.0086C47.007 51.1646 45.3845 52.7871 45.3845 54.7887C45.3845 56.7903 47.007 58.4128 49.0086 58.4128H54.22C56.2216 58.4128 57.8441 56.7903 57.8441 54.7887C57.8441 52.7871 56.2216 51.1646 54.22 51.1646Z" fill="#FFCBBE"/>
<path d="M41.4926 75.0017C40.8528 75.0017 40.2133 74.7576 39.7252 74.2695C38.7491 73.2934 38.7491 71.7106 39.7254 70.7345C40.3601 70.0998 40.7095 69.2559 40.7095 68.3584C40.7095 67.4607 40.3599 66.617 39.7254 65.9823C38.7494 65.0062 38.7491 63.4236 39.7252 62.4474C40.7012 61.4713 42.2838 61.4713 43.2601 62.4474C44.839 64.0263 45.7086 66.1254 45.7086 68.3584C45.7086 70.5912 44.839 72.6905 43.2601 74.2695C42.772 74.7574 42.1322 75.0017 41.4926 75.0017Z" fill="#FFCBBE"/>
<path d="M43.1509 47.4019H37.1608C36.1255 47.4019 35.2861 46.5625 35.2861 45.5273C35.2861 44.492 36.1255 43.6526 37.1608 43.6526H40.8072C40.1354 42.3975 38.8114 41.542 37.291 41.542C36.2557 41.542 35.4163 40.7026 35.4163 39.6674C35.4163 38.6321 36.2557 37.7927 37.291 37.7927C41.556 37.7927 45.0257 41.2624 45.0257 45.5273C45.0257 46.5625 44.1864 47.4019 43.1509 47.4019Z" fill="#EAAC9D"/>
<path d="M62.2997 47.4019H57.1266C56.0913 47.4019 55.252 46.5625 55.252 45.5273C55.252 41.2624 58.7217 37.7927 62.9867 37.7927C64.022 37.7927 64.8614 38.6321 64.8614 39.6674C64.8614 40.7026 64.022 41.542 62.9867 41.542C61.4663 41.542 60.1423 42.3975 59.4705 43.6526H62.2997C63.335 43.6526 64.1743 44.492 64.1743 45.5273C64.1743 46.5625 63.335 47.4019 62.2997 47.4019Z" fill="#EAAC9D"/>
<path d="M55.9833 64.8678V73.5933C55.9833 75.1812 54.7457 76.4811 53.1808 76.5802C53.1163 76.5848 51.8875 75.4228 51.8229 75.4228L50.919 74.9088C49.2666 74.9088 48.5049 75.2458 48.5049 73.5933L47.5044 70.6433V64.8678C47.5044 64.6972 47.5159 64.529 47.5344 64.363C47.5482 64.2478 48.152 64.1349 48.1728 64.0242C48.1774 64.0012 49.341 63.6147 49.3479 63.5917C49.7651 61.6903 49.7146 61.2669 51.7427 61.2669C52.6139 61.2669 53.4251 60.8922 54.1004 61.3462C54.3309 61.5006 54.5452 61.6758 54.7411 61.8717C55.3035 62.4317 55.7091 63.1485 55.8842 63.9528C55.8912 63.9758 55.8958 64.0012 55.9004 64.0242C55.9534 64.2962 55.9833 64.5797 55.9833 64.8678Z" fill="#21386B"/>
<path d="M54.1002 61.3462V64.363H47.5342C47.548 64.2478 47.5664 64.1348 47.5872 64.0242C47.5918 64.0012 47.5964 63.9781 47.6033 63.9551C48.0205 62.0537 49.7144 60.6294 51.7425 60.6294C52.6137 60.6294 53.425 60.8921 54.1002 61.3462Z" fill="#F9F6F6"/>
<path d="M53.1808 74.6051V76.5802C53.1163 76.5848 53.0518 76.5871 52.9872 76.5871H50.4982C48.8457 76.5871 47.5044 75.2458 47.5044 73.5933V70.6433H49.2168C51.4062 70.6433 53.1808 72.4179 53.1808 74.6051Z" fill="#DD5790"/>
<path d="M83.2441 60.2591C82.4042 60.2591 81.6398 59.6905 81.4268 58.8387C81.1756 57.8343 81.7863 56.8163 82.7907 56.5653L95.7574 53.3235C96.7615 53.0723 97.7795 53.6831 98.0307 54.6875C98.2819 55.6918 97.6712 56.7098 96.6668 56.9608L83.7002 60.2026C83.5476 60.2408 83.3946 60.2591 83.2441 60.2591Z" fill="#E4F6FF"/>
<path d="M91.6429 69.2132C91.5512 69.2132 91.4585 69.2066 91.3652 69.1927L82.9701 67.9459C81.9459 67.7938 81.2391 66.8403 81.3912 65.8161C81.5431 64.7919 82.4965 64.0849 83.5207 64.2372L91.9158 65.484C92.94 65.6361 93.6468 66.5896 93.4947 67.6138C93.3567 68.5444 92.5565 69.2132 91.6429 69.2132Z" fill="#E4F6FF"/>
<path d="M64.2763 80.0041L62.8043 78.5321C61.7467 77.4745 60.0322 77.4745 58.9746 78.5321C57.917 79.5897 57.917 81.3042 58.9746 82.3618L62.4429 85.8301C63.5006 86.8877 65.215 86.8877 66.2726 85.8301L67.4648 84.6379C68.5822 83.5206 68.5822 81.7089 67.4648 80.5916C66.6024 79.7289 65.3275 79.5351 64.2763 80.0041Z" fill="#FFDDCE"/>
<path d="M67.5434 84.5519C67.519 84.5828 67.493 84.6091 67.4653 84.6367L66.2724 85.8296C65.2148 86.8873 63.5003 86.8873 62.4427 85.8296L58.9749 82.3618C57.9172 81.3042 57.9172 79.5897 58.9749 78.5321C59.2127 78.2942 59.4849 78.1101 59.7734 77.978C59.3236 78.9753 59.5077 80.1894 60.3275 81.0092L63.7953 84.477C64.8267 85.5086 66.4826 85.5346 67.5434 84.5519Z" fill="#FFCBBE"/>
<path d="M63.9163 65.814C59.7008 69.1613 58.9969 75.292 62.3443 79.5075L65.2926 83.2208C68.64 87.4363 74.7707 88.1402 78.9862 84.7929C83.2017 81.4455 83.9055 75.3148 80.5582 71.0993L77.6098 67.386C74.2625 63.1705 68.1318 62.4667 63.9163 65.814Z" fill="#FFDDCE"/>
<path d="M80.6725 83.0789C80.1932 83.7023 79.6306 84.2805 78.9855 84.7926C74.7712 88.1388 68.6391 87.435 65.2927 83.2206L62.3438 79.5068C58.9961 75.2904 59.7015 69.1604 63.9159 65.814C64.5609 65.3017 65.2517 64.885 65.9675 64.5593C63.3164 68.023 63.2447 72.9687 66.0804 76.5398L69.0293 80.2536C71.8633 83.8228 76.6965 84.874 80.6725 83.0789Z" fill="#FFCBBE"/>
<path d="M118 59C118 79.8551 107.179 98.1843 90.8439 108.675C89.0831 109.807 87.2601 109.694 85.3772 110.637C82.5193 112.065 79.5279 113.273 76.4304 114.227C76.3313 114.257 76.2345 114.287 76.1354 114.317C75.2872 114.575 74.4299 114.815 73.5656 115.036C72.9918 115.181 72.4156 115.317 71.8371 115.446C69.1775 116.036 66.4511 116.447 63.6693 116.666C62.1275 116.785 60.5718 116.848 59 116.848C58.1795 116.848 57.3637 116.832 56.5524 116.797C56.0869 116.779 55.6236 116.755 55.1627 116.726C54.1256 116.659 53.0954 116.564 52.0744 116.444C51.8278 116.417 51.5835 116.387 51.3392 116.354C41.4936 115.078 34.8243 109.392 27.122 103.879C23.8401 101.533 18.3937 101.992 15.6604 99.0347V99.0324C5.94148 88.5138 0 74.4506 0 59C0 26.4163 26.4163 0 59 0C91.5837 0 118 26.4163 118 59Z" fill="#2B89F8" fill-opacity="0.9"/>
<path d="M90.8439 108.675C89.0831 109.807 87.2601 110.846 85.3772 111.789C82.5194 113.218 79.5279 114.425 76.4304 115.38C76.3313 115.41 76.2345 115.439 76.1354 115.469C75.2873 115.728 74.4299 115.967 73.5657 116.188C72.9918 116.334 72.4156 116.47 71.8371 116.599C69.1775 117.189 66.4511 117.599 63.6693 117.818C62.1275 117.938 60.5718 118 59 118C58.1796 118 57.3637 117.984 56.5525 117.949C56.0869 117.931 55.6237 117.908 55.1627 117.878C54.1256 117.811 53.0954 117.716 52.0745 117.597C51.3277 116.705 50.6455 115.746 50.0371 114.73L59.9196 108.804C61.4061 111.28 63.7661 113.031 66.5663 113.732C69.3688 114.432 72.275 114.001 74.7526 112.517C79.8644 109.45 81.5306 102.796 78.4654 97.6842L62.0791 70.3575L71.9616 64.4298L88.3479 91.7588C91.5169 97.0434 92.2382 103.126 90.8439 108.675Z" fill="#DD5790"/>
<path d="M79.8109 112.517C77.3656 113.983 74.5032 114.421 71.7376 113.757C72.7862 113.501 73.8003 113.087 74.7521 112.517C79.8662 109.45 81.5302 102.796 78.4649 97.6844L62.0786 70.3577L71.9634 64.4301L73.3001 66.661L67.1374 70.3577L83.5237 97.6844C86.589 102.796 84.9227 109.45 79.8109 112.517Z" fill="#9D549B"/>
<path d="M63.6694 110.203V117.818C62.1275 117.938 60.5719 118 59.0001 118C41.867 118 26.4417 110.696 15.6604 99.0345C19.0759 94.4413 24.5427 91.4659 30.7077 91.4659H44.9299C55.2803 91.4659 63.6694 99.855 63.6694 110.203Z" fill="#DD5790"/>
<path d="M43.1761 91.4659C33.9159 91.4659 26.2228 98.1818 24.7087 107.013C21.4268 104.667 18.3938 101.991 15.6604 99.0345C15.6604 99.0345 15.6581 99.0345 15.6604 99.0322C19.076 94.4413 24.5427 91.4659 30.7078 91.4659H43.1761Z" fill="#9D549B"/>
<path d="M46.2138 70.5443V92.7451C46.2138 95.0872 45.2641 97.2068 43.7294 98.7389C42.1972 100.274 40.0776 101.223 37.7356 101.223C36.0859 101.223 34.5461 100.753 33.2465 99.9362C30.8519 98.4391 29.2573 95.777 29.2573 92.7451V70.5443H46.2138Z" fill="#FFDDCE"/>
<path d="M46.2138 70.5443V91.703C45.0589 91.8654 43.8817 91.9479 42.6819 91.9479C37.7554 91.9479 33.1536 90.5483 29.2568 88.1235V70.5443H46.2138Z" fill="#FFCBBE"/>
<path d="M33.246 79.1627V99.9365C30.8515 98.4394 29.2568 95.7772 29.2568 92.7454V79.163H33.246V79.1627Z" fill="#FFCBBE"/>
<path d="M35.5389 11.1985C26.4201 11.1985 18.7886 17.5449 16.8066 26.0605L12.2894 21.5433C9.07067 24.762 8.42559 29.5772 10.3484 33.4392H4.89941C4.89941 39.1387 9.51962 43.7589 15.2191 43.7589C15.5844 43.7589 15.9451 43.7393 16.3005 43.7022V45.527H47.8028V11.1985H35.5389Z" fill="#21386B"/>
<path d="M17.3662 46.792C13.336 50.8222 13.336 57.3562 17.3662 61.3864C21.3964 65.4166 27.9304 65.4166 31.9606 61.3864" fill="#26457D"/>
<path d="M72.9036 55.7769H16.566C12.9186 55.7769 9.96191 52.8202 9.96191 49.1728C9.96191 45.5254 12.9186 42.5687 16.566 42.5687H72.9036C76.551 42.5687 79.5077 45.5254 79.5077 49.1728C79.5079 52.8202 76.551 55.7769 72.9036 55.7769Z" fill="#FFCBBE"/>
<path d="M16.566 51.9941C15.0104 51.9941 13.7446 50.7284 13.7446 49.1727C13.7446 47.6171 15.0104 46.3513 16.566 46.3513H72.9037C74.4593 46.3513 75.7251 47.6171 75.7251 49.1727C75.7251 50.7284 74.4593 51.9941 72.9037 51.9941H16.566Z" fill="#EAAC9D"/>
<path d="M45.8172 88.1239C31.7487 88.1239 20.344 76.7192 20.344 62.6506V44.5902C20.344 30.5217 31.7487 19.1169 45.8172 19.1169H60.0139C66.2418 19.1169 71.2905 24.1656 71.2905 30.3935V62.6506C71.2905 76.7192 59.8857 88.1239 45.8172 88.1239Z" fill="#FFDDCE"/>
<path d="M52.1033 87.3416C50.0929 87.8523 47.988 88.1225 45.8184 88.1225C31.749 88.1225 20.344 76.72 20.344 62.6506V44.5904C20.344 30.5209 31.7492 19.116 45.8184 19.116H58.3854C44.3187 19.116 32.9135 30.5212 32.9135 44.5904V62.6506C32.9138 74.5529 41.0737 84.5449 52.1033 87.3416Z" fill="#FFCBBE"/>
<path d="M53.5801 55.9118H47.1106V22.3518C47.1106 20.5655 48.5589 19.1172 50.3452 19.1172C52.1316 19.1172 53.5799 20.5655 53.5799 22.3518V55.9118H53.5801Z" fill="#FFCBBE"/>
<path d="M27.2187 14.4382V18.279C22.2636 20.0937 18.7275 24.8515 18.7275 30.4353V42.5686H20.5109C26.8951 42.5686 32.0708 37.3932 32.0708 31.0087V23.2438H37.4992C42.2425 23.2438 46.0879 19.3984 46.0879 14.6551V14.4382H27.2187Z" fill="#21386B"/>
<path d="M69.2202 13.9005L74.978 8.14269C69.5495 2.71423 60.7481 2.71423 55.3197 8.14269V0C47.6425 0 41.4192 6.22358 41.4192 13.9005C41.4192 21.5774 47.6428 27.801 55.3197 27.801H83.1209C83.1207 20.1241 76.8973 13.9005 69.2202 13.9005Z" fill="#26457D"/>
<path d="M54.22 51.1646H49.0086C47.007 51.1646 45.3845 52.7871 45.3845 54.7887C45.3845 56.7903 47.007 58.4128 49.0086 58.4128H54.22C56.2216 58.4128 57.8441 56.7903 57.8441 54.7887C57.8441 52.7871 56.2216 51.1646 54.22 51.1646Z" fill="#FFCBBE"/>
<path d="M43.1509 47.4019H37.1608C36.1255 47.4019 35.2861 46.5625 35.2861 45.5273C35.2861 44.492 36.1255 43.6526 37.1608 43.6526H40.8072C40.1354 42.3975 38.8114 41.542 37.291 41.542C36.2557 41.542 35.4163 40.7026 35.4163 39.6674C35.4163 38.6321 36.2557 37.7927 37.291 37.7927C41.556 37.7927 45.0257 41.2624 45.0257 45.5273C45.0257 46.5625 44.1864 47.4019 43.1509 47.4019Z" fill="#EAAC9D"/>
<path d="M41.4926 75.0017C40.8528 75.0017 40.2133 74.7576 39.7252 74.2695C38.7491 73.2935 38.7491 71.7106 39.7254 70.7346C40.3601 70.0998 40.7095 69.2559 40.7095 68.3584C40.7095 67.4607 40.3599 66.617 39.7254 65.9823C38.7494 65.0063 38.7491 63.4236 39.7252 62.4474C40.7012 61.4713 42.2838 61.4713 43.2601 62.4474C44.839 64.0263 45.7086 66.1254 45.7086 68.3584C45.7086 70.5912 44.839 72.6905 43.2601 74.2695C42.772 74.7574 42.1322 75.0017 41.4926 75.0017Z" fill="#FFCBBE"/>
<path d="M62.2995 47.4019H57.1263C56.0911 47.4019 55.2517 46.5625 55.2517 45.5273C55.2517 41.2624 58.7214 37.7927 62.9865 37.7927C64.0217 37.7927 64.8611 38.6321 64.8611 39.6674C64.8611 40.7026 64.0217 41.542 62.9865 41.542C61.4661 41.542 60.142 42.3975 59.4702 43.6526H62.2995C63.3347 43.6526 64.1741 44.492 64.1741 45.5273C64.1741 46.5625 63.3347 47.4019 62.2995 47.4019Z" fill="#EAAC9D"/>
<path d="M55.9833 64.8678V73.5933C55.9833 75.1812 54.7457 76.4811 53.1808 76.5802C53.1163 76.5848 51.8875 75.4228 51.8229 75.4228L50.919 74.9088C49.2666 74.9088 48.5049 75.2458 48.5049 73.5933L47.5044 70.6433V64.8678C47.5044 64.6972 47.5159 64.529 47.5344 64.363C47.5482 64.2478 48.152 64.1349 48.1728 64.0242C48.1774 64.0012 49.341 63.6147 49.3479 63.5917C49.7651 61.6903 49.7146 61.2669 51.7427 61.2669C52.6139 61.2669 53.4251 60.8922 54.1004 61.3462C54.3309 61.5006 54.5452 61.6758 54.7411 61.8717C55.3035 62.4317 55.7091 63.1485 55.8842 63.9528C55.8912 63.9758 55.8958 64.0012 55.9004 64.0242C55.9534 64.2962 55.9833 64.5797 55.9833 64.8678Z" fill="#21386B"/>
<path d="M54.1002 61.3461V64.363H47.5342C47.548 64.2478 47.5664 64.1348 47.5872 64.0242C47.5918 64.0012 47.5964 63.9781 47.6033 63.9551C48.0205 62.0537 49.7144 60.6294 51.7425 60.6294C52.6137 60.6294 53.425 60.8921 54.1002 61.3461Z" fill="#F9F6F6"/>
<path d="M53.1808 74.6051V76.5802C53.1163 76.5848 53.0518 76.5871 52.9872 76.5871H50.4982C48.8457 76.5871 47.5044 75.2458 47.5044 73.5933V70.6433H49.2168C51.4062 70.6433 53.1808 72.4179 53.1808 74.6051Z" fill="#DD5790"/>
<path d="M83.2441 60.2591C82.4042 60.2591 81.6398 59.6905 81.4268 58.8387C81.1756 57.8343 81.7863 56.8163 82.7907 56.5653L95.7574 53.3235C96.7615 53.0723 97.7795 53.6831 98.0307 54.6875C98.2819 55.6918 97.6712 56.7098 96.6668 56.9608L83.7002 60.2026C83.5476 60.2408 83.3946 60.2591 83.2441 60.2591Z" fill="#E4F6FF"/>
<path d="M91.6429 69.2132C91.5512 69.2132 91.4585 69.2066 91.3652 69.1927L82.9701 67.9459C81.9459 67.7938 81.2391 66.8403 81.3912 65.8161C81.5431 64.7919 82.4965 64.0849 83.5207 64.2372L91.9158 65.484C92.94 65.6361 93.6468 66.5896 93.4947 67.6138C93.3567 68.5444 92.5565 69.2132 91.6429 69.2132Z" fill="#E4F6FF"/>
<path d="M97.6365 40.7271C108.883 40.7271 118 31.61 118 20.3635C118 9.11706 108.883 0 97.6365 0C86.39 0 77.2729 9.11706 77.2729 20.3635C77.2729 31.61 86.39 40.7271 97.6365 40.7271Z" fill="#DD5790"/>
<path d="M97.6365 37.5005C107.101 37.5005 114.773 29.828 114.773 20.3635C114.773 10.899 107.101 3.22656 97.6365 3.22656C88.172 3.22656 80.4995 10.899 80.4995 20.3635C80.4995 29.828 88.172 37.5005 97.6365 37.5005Z" fill="#F9F6F6"/>
<path d="M97.6365 37.5005C107.101 37.5005 114.773 29.828 114.773 20.3635C114.773 10.899 107.101 3.22656 97.6365 3.22656C88.172 3.22656 80.4995 10.899 80.4995 20.3635C80.4995 29.828 88.172 37.5005 97.6365 37.5005Z" fill="#F9F6F6"/>
<path d="M101.2 37.1279C100.05 37.3722 98.8584 37.5013 97.6369 37.5013C88.1877 37.5013 80.4993 29.8128 80.4993 20.3636C80.4993 10.9144 88.1877 3.22595 97.6369 3.22595C98.8584 3.22595 100.05 3.35501 101.2 3.59931C93.4562 5.24255 87.6277 12.1359 87.6277 20.3636C87.6277 28.5913 93.4562 35.4847 101.2 37.1279Z" fill="#DDDAEC"/>
<path d="M88.6004 29.3995C87.4545 28.2537 87.4545 26.3956 88.6004 25.2497L102.522 11.3278C103.668 10.1819 105.526 10.1819 106.672 11.3278C107.818 12.4737 107.818 14.3317 106.672 15.4776L92.7502 29.3995C91.6043 30.5454 89.7463 30.5454 88.6004 29.3995Z" fill="#DD5790"/>
<path d="M88.6004 11.3278C89.7463 10.1819 91.6043 10.1819 92.7502 11.3278L106.672 25.2497C107.818 26.3956 107.818 28.2537 106.672 29.3995C105.526 30.5454 103.668 30.5454 102.522 29.3995L88.6004 15.4776C87.4545 14.3317 87.4545 12.4737 88.6004 11.3278Z" fill="#DD5790"/>
<path d="M64.2763 80.0041L62.8043 78.5321C61.7467 77.4745 60.0322 77.4745 58.9746 78.5321C57.917 79.5897 57.917 81.3042 58.9746 82.3618L62.4429 85.8301C63.5006 86.8877 65.215 86.8877 66.2726 85.8301L67.4649 84.6379C68.5822 83.5206 68.5822 81.7089 67.4649 80.5916C66.6024 79.7289 65.3275 79.5351 64.2763 80.0041Z" fill="#FFDDCE"/>
<path d="M67.5434 84.5519C67.519 84.5828 67.493 84.6091 67.4653 84.6367L66.2724 85.8296C65.2148 86.8873 63.5003 86.8873 62.4427 85.8296L58.9749 82.3618C57.9172 81.3042 57.9172 79.5897 58.9749 78.5321C59.2127 78.2942 59.4849 78.1101 59.7734 77.978C59.3236 78.9753 59.5077 80.1894 60.3275 81.0091L63.7953 84.477C64.8267 85.5086 66.4826 85.5346 67.5434 84.5519Z" fill="#FFCBBE"/>
<path d="M63.9163 65.814C59.7008 69.1613 58.9969 75.292 62.3443 79.5075L65.2926 83.2208C68.64 87.4363 74.7707 88.1402 78.9862 84.7929C83.2017 81.4455 83.9055 75.3148 80.5582 71.0993L77.6098 67.386C74.2625 63.1705 68.1318 62.4667 63.9163 65.814Z" fill="#FFDDCE"/>
<path d="M80.6726 83.0789C80.1932 83.7023 79.6306 84.2805 78.9855 84.7926C74.7712 88.1388 68.6391 87.4349 65.2927 83.2206L62.3438 79.5068C58.9961 75.2904 59.7015 69.1604 63.9159 65.814C64.5609 65.3017 65.2517 64.885 65.9675 64.5593C63.3164 68.023 63.2447 72.9687 66.0804 76.5398L69.0293 80.2535C71.8633 83.8228 76.6965 84.874 80.6726 83.0789Z" fill="#FFCBBE"/>
</svg>
