<svg width="118" height="118" viewBox="0 0 118 118" fill="none" xmlns="http://www.w3.org/2000/svg">
<g clip-path="url(#clip0)">
<circle cx="59" cy="59" r="59" fill="#2B89F8"/>
<path d="M59.0368 97.3246V113.796H59C56.4602 113.796 53.958 117.84 51.5028 117.528C36.199 115.587 22.7242 107.784 13.3994 96.4396C13.858 87.7118 21.0832 80.777 29.9263 80.777H42.4869C51.6273 80.777 59.0368 88.1842 59.0368 97.3246Z" fill="#78C2A4"/>
<path d="M40.9358 80.7747C31.7977 80.7747 24.3882 88.1842 24.3882 97.3246V106.785C20.2996 103.819 16.6052 100.339 13.3994 96.4396C13.858 87.7118 21.0832 80.7747 29.9263 80.7747H40.9358Z" fill="#66B394"/>
<path d="M43.6204 62.3V81.9065C43.6204 83.9749 42.7815 85.8468 41.4261 87.1999C40.0731 88.5553 38.2012 89.3942 36.1327 89.3942C34.6759 89.3942 33.3162 88.9791 32.1682 88.2573C30.0534 86.9351 28.6453 84.5841 28.6453 81.9065V62.3H43.6204Z" fill="#FFDDCE"/>
<path d="M43.6204 62.3V80.986C42.6006 81.1296 41.561 81.2024 40.5013 81.2024C36.1505 81.2024 32.0866 79.9662 28.6453 77.8251V62.3003H43.6204V62.3Z" fill="#FFCBBE"/>
<path d="M32.1682 69.9113V88.2573C30.0534 86.9351 28.6453 84.584 28.6453 81.9065V69.9113H32.1682Z" fill="#FFCBBE"/>
<path d="M31.4241 9.88989C23.3711 9.88989 16.6315 15.4947 14.8811 23.0151L10.8916 19.0257C8.04905 21.8683 7.47933 26.1207 9.17742 29.5314H4.36523C4.36523 34.5648 8.44568 38.645 13.4789 38.645C13.8015 38.645 14.1201 38.6277 14.434 38.595V40.2067H42.2548V9.88989H31.4241Z" fill="#21386B"/>
<path d="M15.3752 41.3235C11.816 44.8826 11.816 50.6531 15.3752 54.2122C18.9343 57.7713 24.7048 57.7713 28.2639 54.2122" fill="#26457D"/>
<path d="M64.4223 49.2584H14.6687C11.4476 49.2584 8.83643 46.6471 8.83643 43.4261C8.83643 40.2051 11.4476 37.5939 14.6687 37.5939H64.4223C67.6433 37.5939 70.2545 40.2051 70.2545 43.4261C70.2547 46.6471 67.6435 49.2584 64.4223 49.2584Z" fill="#FFCBBE"/>
<path d="M14.6686 45.9176C13.2945 45.9176 12.177 44.7999 12.177 43.426C12.177 42.052 13.2948 40.9344 14.6686 40.9344H64.4222C65.7963 40.9344 66.9138 42.0522 66.9138 43.426C66.9138 44.7999 65.796 45.9176 64.4222 45.9176H14.6686Z" fill="#EAAC9D"/>
<path d="M40.5014 77.8251C28.0771 77.8251 18.0051 67.7531 18.0051 55.3288V39.379C18.0051 26.9546 28.0771 16.8827 40.5014 16.8827H53.0389C58.539 16.8827 62.9977 21.3413 62.9977 26.8415V55.3286C62.9977 67.7531 52.9257 77.8251 40.5014 77.8251Z" fill="#FFDDCE"/>
<path d="M46.0527 77.1342C44.2774 77.5852 42.4184 77.8238 40.5023 77.8238C28.0773 77.8238 18.0049 67.7539 18.0049 55.3289V39.3793C18.0049 26.9542 28.0771 16.8818 40.5023 16.8818H51.6005C39.1778 16.8818 29.1056 26.954 29.1056 39.3793V55.3289C29.1059 65.8401 36.3122 74.6645 46.0527 77.1342Z" fill="#FFCBBE"/>
<path d="M46.3393 49.3774H40.626V19.7394C40.626 18.1616 41.9048 16.8827 43.4826 16.8827C45.0604 16.8827 46.3393 18.1616 46.3393 19.7394V49.3774Z" fill="#FFCBBE"/>
<path d="M43.2389 64.5075H37.2875C36.0683 64.5075 35.0801 63.5193 35.0801 62.3001C35.0801 61.0809 36.0683 60.0927 37.2875 60.0927H43.2389C44.4581 60.0927 45.4463 61.0809 45.4463 62.3001C45.4463 63.5193 44.4581 64.5075 43.2389 64.5075Z" fill="#FFCBBE"/>
<path d="M24.0764 12.7509V16.1427C19.7005 17.7453 16.5776 21.9472 16.5776 26.8784V37.5938H18.1524C23.7906 37.5938 28.3613 33.0231 28.3613 27.3849V20.5273H33.1553C37.3443 20.5273 40.7402 17.1314 40.7402 12.9424V12.7509H24.0764Z" fill="#21386B"/>
<path d="M61.1692 12.2761L66.2541 7.19132C61.4601 2.39734 53.6873 2.39734 48.8931 7.19132V0C42.1132 0 36.6169 5.49622 36.6169 12.2761C36.6169 19.0561 42.1132 24.5521 48.8931 24.5521H73.4452C73.4452 17.7721 67.9489 12.2761 61.1692 12.2761Z" fill="#26457D"/>
<path d="M46.9043 45.1851H42.3018C40.5341 45.1851 39.1013 46.6179 39.1013 48.3856C39.1013 50.1533 40.5341 51.5861 42.3018 51.5861H46.9043C48.672 51.5861 50.1048 50.1533 50.1048 48.3856C50.1048 46.6179 48.672 45.1851 46.9043 45.1851Z" fill="#FFCBBE"/>
<path d="M100.067 33.7833L99.9275 33.2631C99.4359 31.4286 100.449 29.5265 102.246 28.9105L107.772 27.0158C109.752 26.337 111.892 27.4769 112.434 29.4982L112.78 30.7906C113.322 32.8121 112.038 34.8692 109.984 35.2712L104.251 36.3936C102.387 36.7586 100.559 35.6178 100.067 33.7833Z" fill="#E4F6FF"/>
<path d="M93.1552 20.1298L92.7745 19.7491C91.4316 18.4062 91.3576 16.2524 92.6056 14.8205L96.4443 10.4163C97.8192 8.83872 100.243 8.75575 101.722 10.2354L102.669 11.1817C104.149 12.6613 104.065 15.0849 102.488 16.4599L98.0836 20.2986C96.6519 21.5465 94.4982 21.4728 93.1552 20.1298Z" fill="#E4F6FF"/>
<path d="M79.6411 12.9766L79.121 12.8371C77.2864 12.3455 76.1456 10.5172 76.5104 8.65342L77.6328 2.91982C78.0348 0.86611 80.0922 -0.417371 82.1134 0.124231L83.4058 0.470625C85.4273 1.01223 86.5669 3.15259 85.8882 5.13209L83.9935 10.6587C83.3779 12.4552 81.4759 13.4681 79.6411 12.9766Z" fill="#E4F6FF"/>
</g>
<defs>
<clipPath id="clip0">
<rect width="118" height="118" fill="white"/>
</clipPath>
</defs>
</svg>
