<svg width="118" height="118" viewBox="0 0 118 118" fill="none" xmlns="http://www.w3.org/2000/svg">
<g clip-path="url(#clip0)">
<path d="M118 59C118 74.4184 112.086 88.4562 102.4 98.9656C100.524 101.003 88.296 96.5994 86.1504 98.3555C85.8231 98.6229 86.4822 98.0974 86.1504 98.3555C85.4866 98.8787 86.8372 97.8623 86.1504 98.3555C76.4868 105.288 72.5841 94.7821 59.7861 94.789L59 118C56.4602 118 52.8783 103.224 50.4238 102.913C40.38 101.638 32.2011 102.994 24.3882 97.3247C20.2997 94.3585 16.6053 100.339 13.3995 96.4397C5.02652 86.2529 0 73.213 0 59C0 26.4163 26.4163 0 59 0C91.5837 0 118 26.4163 118 59Z" fill="#2B89F8" fill-opacity="0.9"/>
<path d="M59.0368 97.3246V113.796H59C56.4602 113.796 53.958 117.84 51.5028 117.528C36.199 115.587 22.7242 107.784 13.3994 96.4396C13.858 87.7118 21.0832 80.777 29.9263 80.777H42.4869C51.6273 80.777 59.0368 88.1842 59.0368 97.3246Z" fill="#78C2A4"/>
<path d="M40.9358 80.7747C31.7977 80.7747 24.3882 88.1842 24.3882 97.3246V106.785C20.2996 103.819 16.6052 100.339 13.3994 96.4396C13.858 87.7118 21.0832 80.7747 29.9263 80.7747H40.9358Z" fill="#66B394"/>
<path d="M43.6204 62.3V81.9065C43.6204 83.9749 42.7815 85.8468 41.4261 87.1999C40.0731 88.5553 38.2012 89.3942 36.1327 89.3942C34.6759 89.3942 33.3162 88.9791 32.1682 88.2573C30.0534 86.9351 28.6453 84.5841 28.6453 81.9065V62.3H43.6204Z" fill="#FFDDCE"/>
<path d="M43.6204 62.3V80.986C42.6006 81.1296 41.561 81.2024 40.5013 81.2024C36.1505 81.2024 32.0866 79.9662 28.6453 77.8251V62.3003H43.6204V62.3Z" fill="#FFCBBE"/>
<path d="M32.1682 69.9113V88.2573C30.0534 86.9351 28.6453 84.584 28.6453 81.9065V69.9113H32.1682Z" fill="#FFCBBE"/>
<path d="M31.4241 9.88989C23.3711 9.88989 16.6315 15.4947 14.8811 23.0151L10.8916 19.0257C8.04905 21.8683 7.47933 26.1207 9.17742 29.5314H4.36523C4.36523 34.5648 8.44568 38.645 13.4789 38.645C13.8015 38.645 14.1201 38.6277 14.434 38.595V40.2067H42.2548V9.88989H31.4241Z" fill="#21386B"/>
<path d="M15.3752 41.3235C11.816 44.8826 11.816 50.6531 15.3752 54.2122C18.9343 57.7713 24.7048 57.7713 28.2639 54.2122" fill="#26457D"/>
<path d="M64.4223 49.2584H14.6687C11.4476 49.2584 8.83643 46.6471 8.83643 43.4261C8.83643 40.2051 11.4476 37.5939 14.6687 37.5939H64.4223C67.6433 37.5939 70.2545 40.2051 70.2545 43.4261C70.2547 46.6471 67.6435 49.2584 64.4223 49.2584Z" fill="#FFCBBE"/>
<path d="M14.6686 45.9176C13.2945 45.9176 12.177 44.7999 12.177 43.426C12.177 42.052 13.2948 40.9344 14.6686 40.9344H64.4222C65.7963 40.9344 66.9138 42.0522 66.9138 43.426C66.9138 44.7999 65.796 45.9176 64.4222 45.9176H14.6686Z" fill="#EAAC9D"/>
<path d="M40.5014 77.8251C28.0771 77.8251 18.0051 67.7531 18.0051 55.3288V39.379C18.0051 26.9546 28.0771 16.8827 40.5014 16.8827H53.0389C58.539 16.8827 62.9977 21.3413 62.9977 26.8415V55.3286C62.9977 67.7531 52.9257 77.8251 40.5014 77.8251Z" fill="#FFDDCE"/>
<path d="M46.0527 77.1342C44.2774 77.5852 42.4184 77.8238 40.5023 77.8238C28.0773 77.8238 18.0049 67.7539 18.0049 55.3289V39.3793C18.0049 26.9542 28.0771 16.8818 40.5023 16.8818H51.6005C39.1778 16.8818 29.1056 26.954 29.1056 39.3793V55.3289C29.1059 65.8401 36.3122 74.6645 46.0527 77.1342Z" fill="#FFCBBE"/>
<path d="M34.6745 43.545C33.0967 43.545 31.8179 42.2661 31.8179 40.6883V34.7369C31.8179 33.1591 33.0967 31.8802 34.6745 31.8802C36.2523 31.8802 37.5312 33.1591 37.5312 34.7369V40.6883C37.5312 42.2661 36.2521 43.545 34.6745 43.545Z" fill="#21386B"/>
<path d="M52.2907 43.545C50.713 43.545 49.4341 42.2661 49.4341 40.6883V34.7369C49.4341 33.1591 50.713 31.8802 52.2907 31.8802C53.8685 31.8802 55.1474 33.1591 55.1474 34.7369V40.6883C55.1474 42.2661 53.8683 43.545 52.2907 43.545Z" fill="#21386B"/>
<path d="M46.3393 49.3774H40.626V19.7394C40.626 18.1616 41.9048 16.8827 43.4826 16.8827C45.0604 16.8827 46.3393 18.1616 46.3393 19.7394V49.3774Z" fill="#FFCBBE"/>
<path d="M43.2389 64.5075H37.2875C36.0683 64.5075 35.0801 63.5193 35.0801 62.3001C35.0801 61.0809 36.0683 60.0927 37.2875 60.0927H43.2389C44.4581 60.0927 45.4463 61.0809 45.4463 62.3001C45.4463 63.5193 44.4581 64.5075 43.2389 64.5075Z" fill="#FFCBBE"/>
<path d="M24.0764 12.7509V16.1427C19.7005 17.7453 16.5776 21.9472 16.5776 26.8784V37.5938H18.1524C23.7906 37.5938 28.3613 33.0231 28.3613 27.3849V20.5273H33.1553C37.3443 20.5273 40.7402 17.1314 40.7402 12.9424V12.7509H24.0764Z" fill="#21386B"/>
<path d="M61.1692 12.2761L66.2541 7.19132C61.4601 2.39734 53.6873 2.39734 48.8931 7.19132V0C42.1132 0 36.6169 5.49622 36.6169 12.2761C36.6169 19.0561 42.1132 24.5521 48.8931 24.5521H73.4452C73.4452 17.7721 67.9489 12.2761 61.1692 12.2761Z" fill="#26457D"/>
<path d="M46.9043 45.1851H42.3018C40.5341 45.1851 39.1013 46.6179 39.1013 48.3856C39.1013 50.1533 40.5341 51.5861 42.3018 51.5861H46.9043C48.672 51.5861 50.1048 50.1533 50.1048 48.3856C50.1048 46.6179 48.672 45.1851 46.9043 45.1851Z" fill="#FFCBBE"/>
<path d="M54.8171 94.7761H48.6974C46.4829 94.7761 44.6877 96.5712 44.6877 98.7858V104.905H54.8171V94.7761Z" fill="#FFCBBE"/>
<path d="M96.3591 79.1338V104.665C94.7988 105.944 93.1694 107.145 91.4823 108.263C89.0279 109.883 86.4466 111.326 83.7547 112.573C76.2368 116.053 67.8639 117.995 59.037 118H59.0001C56.4603 118 53.9574 117.839 51.5029 117.528V79.1338H96.3591Z" fill="#F9F6F6"/>
<path d="M51.5017 79.1346H96.3599V85.8217H51.5017V79.1346Z" fill="#DDDAEC"/>
<path d="M90.9745 92.8765H56.8877C55.6812 92.8765 54.7031 91.8984 54.7031 90.6919C54.7031 89.4854 55.6812 88.5073 56.8877 88.5073H90.9747C92.1812 88.5073 93.1594 89.4854 93.1594 90.6919C93.1594 91.8984 92.1812 92.8765 90.9745 92.8765Z" fill="#26457D"/>
<path d="M90.9745 83.0282H56.8877C55.6812 83.0282 54.7031 82.0501 54.7031 80.8436C54.7031 79.637 55.6812 78.6589 56.8877 78.6589H90.9747C92.1812 78.6589 93.1594 79.637 93.1594 80.8436C93.1594 82.0501 92.1812 83.0282 90.9745 83.0282Z" fill="#26457D"/>
<path d="M90.9743 73.18H56.8875C55.681 73.18 54.7029 72.2019 54.7029 70.9954C54.7029 69.7889 55.681 68.8108 56.8875 68.8108H90.9745C92.181 68.8108 93.1591 69.7889 93.1591 70.9954C93.1591 72.2019 92.181 73.18 90.9743 73.18Z" fill="#26457D"/>
<path d="M90.9745 102.725H56.8877C55.6812 102.725 54.7031 101.747 54.7031 100.54C54.7031 99.3336 55.6812 98.3555 56.8877 98.3555H90.9747C92.1812 98.3555 93.1594 99.3336 93.1594 100.54C93.1594 101.747 92.1812 102.725 90.9745 102.725Z" fill="#26457D"/>
<path d="M91.4824 108.263C89.0279 109.883 86.4467 111.326 83.7548 112.572H56.8867C55.6814 112.572 54.7019 111.595 54.7019 110.388C54.7019 109.786 54.9462 109.238 55.3426 108.843C55.7367 108.447 56.2852 108.203 56.8867 108.203H90.9754C91.1505 108.203 91.3188 108.224 91.4824 108.263Z" fill="#26457D"/>
<path d="M60.6963 56.0085L60.1271 63.137L59.0254 76.9052L51.5029 65.2043C51.5029 64.4921 51.5836 63.8007 51.7357 63.137C52.6737 59.053 56.3289 56.0085 60.6963 56.0085Z" fill="#F9F6F6"/>
<path d="M114.748 65.2043V81.9202H69.892V65.2043C69.892 64.4921 69.8113 63.8007 69.6592 63.1369C69.2651 61.4269 68.3963 59.8989 67.1978 58.7004C65.5338 57.0364 63.2361 56.0085 60.6963 56.0085H105.555C109.922 56.0085 113.577 59.053 114.515 63.1369C114.667 63.8007 114.748 64.4921 114.748 65.2043Z" fill="#F9F6F6"/>
<path d="M69.892 65.2043V81.9202H51.5029V65.2043C51.5029 60.1247 55.6191 56.0085 60.6963 56.0085C65.7736 56.0085 69.892 60.1247 69.892 65.2043Z" fill="#734A9B"/>
<path d="M69.8921 78.6589V81.9201L63.3627 82.5009L54.9854 81.9201C54.8056 81.602 54.7019 81.2356 54.7019 80.8438C54.7019 80.24 54.9462 79.6937 55.3426 79.2996C55.7367 78.9032 56.2852 78.6589 56.8867 78.6589H69.8921Z" fill="#26457D"/>
<path d="M69.8921 68.811V73.1807H56.8867C55.6814 73.1807 54.7019 72.2012 54.7019 70.9959C54.7019 70.392 54.9462 69.8458 55.3426 69.4494C55.7367 69.0553 56.2852 68.811 56.8867 68.811H69.8921Z" fill="#26457D"/>
<path d="M102.399 97.1933V98.9656C100.523 101.003 98.5046 102.909 96.3589 104.665C95.3794 105.467 94.3769 106.237 93.3467 106.977C91.8832 105.942 90.9268 104.232 90.9268 102.3V97.1933C90.9268 94.0243 93.4942 91.4569 96.6631 91.4569C98.2465 91.4569 99.68 92.0999 100.719 93.137C101.756 94.1741 102.399 95.6077 102.399 97.1933Z" fill="#FFDDCE"/>
<path d="M94.4276 97.1933V102.3C94.4276 103.464 94.7756 104.55 95.3725 105.453C94.7088 105.976 94.0335 106.483 93.3467 106.977C93.3467 106.977 93.3444 106.977 93.3444 106.979C91.8809 105.94 90.9268 104.232 90.9268 102.3V97.1933C90.9268 94.0243 93.4942 91.4569 96.6631 91.4569C97.2739 91.4569 97.8616 91.5514 98.4124 91.7312C96.1008 92.4687 94.4276 94.6351 94.4276 97.1933Z" fill="#FFCBBE"/>
<path d="M50.4237 115.122C47.2559 115.122 44.6877 112.554 44.6877 109.386V104.279C44.6877 101.111 47.2559 98.5433 50.4237 98.5433C53.5914 98.5433 56.1596 101.111 56.1596 104.279V109.386C56.1596 112.554 53.5914 115.122 50.4237 115.122Z" fill="#FFDDCE"/>
<path d="M52.1734 114.849C51.6226 115.029 51.0349 115.123 50.4241 115.123C47.2552 115.123 44.6877 112.554 44.6877 109.387V104.28C44.6877 101.111 47.2552 98.5433 50.4241 98.5433C51.0349 98.5433 51.6226 98.6378 52.1734 98.8176C49.8618 99.5551 48.1886 101.721 48.1886 104.28V109.387C48.1886 111.943 49.8618 114.109 52.1734 114.849Z" fill="#FFCBBE"/>
<path d="M82.0767 66.2769C82.8402 66.2769 83.4595 66.8961 83.4595 67.6597V75.1842C83.4595 75.9478 82.8402 76.5671 82.0767 76.5671C81.3131 76.5671 80.6938 75.9478 80.6938 75.1842V67.6597C80.6938 66.8961 81.3129 66.2769 82.0767 66.2769Z" fill="#DD5790"/>
<path d="M77.1571 66.2776C77.5219 66.2776 77.8723 66.4219 78.1313 66.6791C78.3915 66.9374 78.5385 67.2889 78.5399 67.6556C78.5399 67.6556 78.5494 70.3041 78.5494 71.3196C78.5494 72.152 78.5547 74.9598 78.5547 74.96C78.5554 75.3272 78.4099 75.6796 78.1507 75.9395C77.8914 76.1993 77.5392 76.3454 77.1719 76.3454H75.1036C72.5533 76.3454 70.772 74.2755 70.772 71.3115C70.772 68.447 72.5581 66.337 75.0191 66.2939C75.6141 66.2836 77.1518 66.2776 77.1518 66.2776H77.1571ZM75.7865 73.5798C75.7851 72.7439 75.7837 71.7579 75.7837 71.3196C75.7837 70.7998 75.7812 69.8515 75.7789 69.0513C75.5023 69.0536 75.2433 69.0561 75.0677 69.0593C74.0108 69.0778 73.5378 70.2039 73.5378 71.3117C73.5378 73.4164 74.7365 73.58 75.1039 73.58H75.7865V73.5798Z" fill="#DD5790"/>
<path d="M108.536 66.2769C111.373 66.2769 113.681 68.585 113.681 71.4221C113.681 74.2591 111.373 76.5673 108.536 76.5673C107.505 76.5673 106.51 76.2631 105.659 75.6878C105.026 75.2603 104.859 74.4006 105.287 73.7678C105.714 73.1349 106.574 72.9685 107.207 73.396C107.6 73.6613 108.059 73.8017 108.536 73.8017C109.848 73.8017 110.916 72.7341 110.916 71.4221C110.916 70.11 109.848 69.0425 108.536 69.0425C108.072 69.0425 107.687 69.1759 107.391 69.4393C107.333 69.4912 107.277 69.5486 107.226 69.6101C106.735 70.1955 105.863 70.272 105.278 69.7816C104.692 69.2909 104.615 68.4186 105.106 67.8334C105.244 67.6693 105.393 67.5147 105.552 67.3741C106.358 66.6562 107.39 66.2769 108.536 66.2769Z" fill="#DD5790"/>
<path d="M89.0861 66.2768C89.7423 66.2768 90.3295 66.691 90.5494 67.31L93.1253 74.7309C93.3756 75.4525 92.9939 76.2402 92.2723 76.4907C91.5503 76.7406 90.763 76.3592 90.5125 75.6378L89.1112 71.6009L87.7807 75.6062C87.5401 76.331 86.757 76.7237 86.0326 76.4824C85.3078 76.2418 84.9155 75.4592 85.1564 74.7343L87.6132 67.3386C87.8291 66.7039 88.4154 66.281 89.076 66.2766C89.0792 66.2768 89.0827 66.2768 89.0861 66.2768Z" fill="#DD5790"/>
<path d="M98.8842 66.2769C101.721 66.2769 104.029 68.585 104.029 71.4221C104.029 74.2591 101.721 76.5673 98.8842 76.5673C96.0472 76.5673 93.739 74.2591 93.739 71.4221C93.739 68.585 96.0472 66.2769 98.8842 66.2769ZM98.8842 73.8017C100.196 73.8017 101.264 72.7341 101.264 71.4221C101.264 70.11 100.196 69.0425 98.8842 69.0425C97.5722 69.0425 96.5046 70.11 96.5046 71.4221C96.5046 72.7341 97.5722 73.8017 98.8842 73.8017Z" fill="#DD5790"/>
<path d="M114.515 63.137H69.6592C69.2651 61.4269 68.3963 59.8989 67.1978 58.7004C65.5338 57.0364 63.2361 56.0085 60.6963 56.0085H105.555C109.922 56.0085 113.577 59.053 114.515 63.137Z" fill="#DDDAEC"/>
<path d="M100.067 33.7833L99.9275 33.2631C99.4359 31.4286 100.449 29.5265 102.246 28.9105L107.772 27.0158C109.752 26.337 111.892 27.4769 112.434 29.4982L112.78 30.7906C113.322 32.8121 112.038 34.8692 109.984 35.2712L104.251 36.3936C102.387 36.7586 100.559 35.6178 100.067 33.7833Z" fill="#E4F6FF"/>
<path d="M93.1552 20.1298L92.7745 19.7491C91.4316 18.4062 91.3576 16.2524 92.6056 14.8205L96.4443 10.4163C97.8192 8.83872 100.243 8.75575 101.722 10.2354L102.669 11.1817C104.149 12.6613 104.065 15.0849 102.488 16.4599L98.0836 20.2986C96.6519 21.5465 94.4982 21.4728 93.1552 20.1298Z" fill="#E4F6FF"/>
<path d="M79.6411 12.9766L79.121 12.8371C77.2864 12.3455 76.1456 10.5172 76.5104 8.65342L77.6328 2.91982C78.0348 0.86611 80.0922 -0.417371 82.1134 0.124231L83.4058 0.470625C85.4273 1.01223 86.5669 3.15259 85.8882 5.13209L83.9935 10.6587C83.3779 12.4552 81.4759 13.4681 79.6411 12.9766Z" fill="#E4F6FF"/>
</g>
<defs>
<clipPath id="clip0">
<rect width="118" height="118" fill="white"/>
</clipPath>
</defs>
</svg>
