<svg width="48" height="46" viewBox="0 0 48 46" fill="none" xmlns="http://www.w3.org/2000/svg">
<g clip-path="url(#clip0)">
<path d="M43.7527 29.5715C42.8431 29.5715 42.1058 30.3071 42.1058 31.2144V41.0716C42.1058 41.9789 41.3684 42.7144 40.4589 42.7144H7.52123C6.61165 42.7144 5.87431 41.9789 5.87431 41.0716V31.2144C5.87431 30.3071 5.13698 29.5715 4.22739 29.5715C3.31781 29.5715 2.58047 30.3071 2.58047 31.2144V41.0716C2.58047 43.7935 4.79248 46.0001 7.52114 46.0001H40.459C43.1876 46.0001 45.3996 43.7935 45.3996 41.0716V31.2144C45.3996 30.3071 44.6623 29.5715 43.7527 29.5715Z" fill="#999999"/>
<path d="M33.3515 28.4099C32.7132 27.7951 31.7015 27.7951 31.0633 28.4099L25.6368 33.8198V1.64289C25.6368 0.735531 24.8995 0 23.9899 0C23.0803 0 22.343 0.735531 22.343 1.64289V33.8199L16.9197 28.4099C16.2655 27.7796 15.2229 27.7977 14.591 28.4503C13.9746 29.0869 13.9746 30.0962 14.591 30.7329L22.8254 38.9471C23.4678 39.5895 24.5106 39.5908 25.1545 38.9501C25.1555 38.9492 25.1564 38.9482 25.1575 38.9471L33.3919 30.7329C34.0239 30.0802 34.0057 29.0402 33.3515 28.4099Z" fill="#999999"/>
</g>
<defs>
<clipPath id="clip0">
<rect width="46.1129" height="46" fill="white" transform="translate(0.933594)"/>
</clipPath>
</defs>
</svg>
